<?xml version="1.0" encoding="UTF-8"?>
<svg width="27px" height="27px" viewBox="0 0 27 27" version="1.1" xmlns="http://www.w3.org/2000/svg" xmlns:xlink="http://www.w3.org/1999/xlink">
    <!-- Generator: Sketch 52.1 (67048) - http://www.bohemiancoding.com/sketch -->
    <title>plus-square</title>
    <desc>Created with Sketch.</desc>
    <g id="Page-1" stroke="none" stroke-width="1" fill="none" fill-rule="evenodd">
        <g id="NOTAS-DOCENTE" transform="translate(-1591.000000, -743.000000)" fill="#568AE9">
            <path d="M1614.43744,743.625058 C1615.99017,743.625058 1617.24994,744.884821 1617.24994,746.437551 L1617.24994,767.062502 C1617.24994,768.615233 1615.99017,769.874996 1614.43744,769.874996 L1593.81249,769.874996 C1592.25976,769.874996 1591,768.615233 1591,767.062502 L1591,746.437551 C1591,744.884821 1592.25976,743.625058 1593.81249,743.625058 L1614.43744,743.625058 Z M1612.56245,758.390648 L1612.56245,755.109406 C1612.56245,754.722711 1612.24602,754.406282 1611.85933,754.406282 L1606.46871,754.406282 L1606.46871,749.01567 C1606.46871,748.628975 1606.15228,748.312547 1605.76559,748.312547 L1602.48435,748.312547 C1602.09765,748.312547 1601.78122,748.628975 1601.78122,749.01567 L1601.78122,754.406282 L1596.39061,754.406282 C1596.00392,754.406282 1595.68749,754.722711 1595.68749,755.109406 L1595.68749,758.390648 C1595.68749,758.777343 1596.00392,759.093771 1596.39061,759.093771 L1601.78122,759.093771 L1601.78122,764.484383 C1601.78122,764.871078 1602.09765,765.187507 1602.48435,765.187507 L1605.76559,765.187507 C1606.15228,765.187507 1606.46871,764.871078 1606.46871,764.484383 L1606.46871,759.093771 L1611.85933,759.093771 C1612.24602,759.093771 1612.56245,758.777343 1612.56245,758.390648 Z" id="plus-square"></path>
        </g>
    </g>
</svg>