<svg width="23" height="27" viewBox="0 0 23 27" fill="none" xmlns="http://www.w3.org/2000/svg">
<path d="M7.51562 14.875C7.82031 14.875 8.125 14.6211 8.125 14.2656V12.2344C8.125 11.9297 7.82031 11.625 7.51562 11.625H5.48438C5.12891 11.625 4.875 11.9297 4.875 12.2344V14.2656C4.875 14.6211 5.12891 14.875 5.48438 14.875H7.51562ZM13 14.2656V12.2344C13 11.9297 12.6953 11.625 12.3906 11.625H10.3594C10.0039 11.625 9.75 11.9297 9.75 12.2344V14.2656C9.75 14.6211 10.0039 14.875 10.3594 14.875H12.3906C12.6953 14.875 13 14.6211 13 14.2656ZM17.875 14.2656V12.2344C17.875 11.9297 17.5703 11.625 17.2656 11.625H15.2344C14.8789 11.625 14.625 11.9297 14.625 12.2344V14.2656C14.625 14.6211 14.8789 14.875 15.2344 14.875H17.2656C17.5703 14.875 17.875 14.6211 17.875 14.2656ZM13 19.1406V17.1094C13 16.8047 12.6953 16.5 12.3906 16.5H10.3594C10.0039 16.5 9.75 16.8047 9.75 17.1094V19.1406C9.75 19.4961 10.0039 19.75 10.3594 19.75H12.3906C12.6953 19.75 13 19.4961 13 19.1406ZM8.125 19.1406V17.1094C8.125 16.8047 7.82031 16.5 7.51562 16.5H5.48438C5.12891 16.5 4.875 16.8047 4.875 17.1094V19.1406C4.875 19.4961 5.12891 19.75 5.48438 19.75H7.51562C7.82031 19.75 8.125 19.4961 8.125 19.1406ZM17.875 19.1406V17.1094C17.875 16.8047 17.5703 16.5 17.2656 16.5H15.2344C14.8789 16.5 14.625 16.8047 14.625 17.1094V19.1406C14.625 19.4961 14.8789 19.75 15.2344 19.75H17.2656C17.5703 19.75 17.875 19.4961 17.875 19.1406ZM22.75 5.9375C22.75 4.61719 21.6328 3.5 20.3125 3.5H17.875V0.859375C17.875 0.554688 17.5703 0.25 17.2656 0.25H15.2344C14.8789 0.25 14.625 0.554688 14.625 0.859375V3.5H8.125V0.859375C8.125 0.554688 7.82031 0.25 7.51562 0.25H5.48438C5.12891 0.25 4.875 0.554688 4.875 0.859375V3.5H2.4375C1.06641 3.5 0 4.61719 0 5.9375V23.8125C0 25.1836 1.06641 26.25 2.4375 26.25H20.3125C21.6328 26.25 22.75 25.1836 22.75 23.8125V5.9375ZM20.3125 23.5078C20.3125 23.7109 20.1602 23.8125 20.0078 23.8125H2.74219C2.53906 23.8125 2.4375 23.7109 2.4375 23.5078V8.375H20.3125V23.5078Z" fill="#227A5D"/>
</svg>
