<?xml version="1.0" encoding="UTF-8"?>
<svg width="120px" height="109px" viewBox="0 0 120 109" version="1.1" xmlns="http://www.w3.org/2000/svg" xmlns:xlink="http://www.w3.org/1999/xlink">
    <!-- Generator: Sketch 52.1 (67048) - http://www.bohemiancoding.com/sketch -->
    <title>Group 12</title>
    <desc>Created with Sketch.</desc>
    <defs>
        <polygon id="path-1" points="0 0.546 119.744 0.546 119.744 108.999927 0 108.999927"></polygon>
        <polygon id="path-3" points="0 109.454 119.744 109.454 119.744 1 0 1"></polygon>
    </defs>
    <g id="Page-1" stroke="none" stroke-width="1" fill="none" fill-rule="evenodd">
        <g id="PAGOS-" transform="translate(-860.000000, -296.000000)">
            <g id="Group-12" transform="translate(860.000000, 295.000000)">
                <g id="Group-3" transform="translate(0.000000, 0.454000)">
                    <mask id="mask-2" fill="white">
                        <use xlink:href="#path-1"></use>
                    </mask>
                    <g id="Clip-2"></g>
                    <path d="M108.5642,6.4335 L114.9912,6.4335 C113.6102,3.7615 109.3852,4.2185 108.5642,6.4335 Z M69.8872,76.9425 L69.8872,102.0945 C70.3832,101.6335 70.6952,101.3615 70.9862,101.0705 C73.3322,98.7305 75.6662,96.3785 78.0202,94.0475 C79.3392,92.7405 80.3082,92.7445 81.6252,94.0525 C84.0312,96.4415 86.4202,98.8485 88.8202,101.2445 C89.0802,101.5045 89.3632,101.7415 89.8222,102.1575 L89.8222,76.9635 L93.7462,76.9635 C93.7802,77.6135 93.8102,78.1825 93.8402,78.7695 C96.1102,78.7695 98.2872,78.8375 100.4582,78.7415 C101.5722,78.6925 102.4442,78.0315 103.1642,76.8575 L95.9062,76.8575 L95.9062,72.8505 L103.7912,72.8505 L103.7912,71.2515 C103.7912,51.5675 103.7842,31.8835 103.7992,12.1995 C103.8012,9.6565 103.4342,7.0585 104.8492,4.55925 L103.4912,4.5595 C75.8932,4.5595 48.2942,4.5585 20.6972,4.5605 C17.4032,4.5615 15.9312,6.0445 15.9312,9.3595 C15.9282,30.0965 15.9302,50.8325 15.9302,71.5695 L15.9302,72.9235 L63.7532,72.9235 L63.7532,76.9075 L4.5972,76.9075 C5.6802,78.5905 7.1602,78.8565 8.8122,78.8545 C27.3672,78.8425 45.9212,78.8475 64.4772,78.8475 L65.7802,78.8475 C65.8352,78.1375 65.8792,77.5695 65.9282,76.9425 L69.8872,76.9425 Z M119.7442,9.0645 C119.1982,10.1795 118.2972,10.5515 117.0762,10.5305 C114.0432,10.4785 111.0072,10.5135 107.7882,10.5135 L107.7882,12.0585 C107.7882,32.7185 107.7832,53.3775 107.7922,74.0375 C107.7932,77.5555 106.5642,80.4245 103.2722,81.9545 C101.9832,82.5525 100.4332,82.6935 98.9842,82.8145 C97.2902,82.9565 95.5762,82.8485 93.7872,82.8485 L93.7872,84.2705 C93.7872,91.6385 93.7792,99.0055 93.7942,106.3725 C93.7962,107.4065 93.6792,108.3635 92.6132,108.8215 C91.5162,109.2915 90.6852,108.7695 89.9182,107.9945 C86.5982,104.6455 83.2592,101.3145 79.5612,97.6105 C79.3312,98.0345 79.1992,98.4845 78.9092,98.7785 C75.8672,101.8565 72.7932,104.9015 69.7462,107.9735 C68.9812,108.7445 68.1622,109.2925 67.0562,108.8295 C65.9792,108.3775 65.8572,107.4105 65.8582,106.3845 C65.8662,99.0565 65.8622,91.7275 65.8622,84.3995 L65.8622,82.8485 L64.2722,82.8485 C45.7932,82.8485 27.3162,82.8375 8.8382,82.8595 C5.9472,82.8625 3.4762,82.0585 1.6512,79.7035 C0.6402,78.3995 0.1142,76.9145 0.0072,75.2815 C-0.0888,73.7945 0.7012,72.9195 2.2152,72.9045 C4.9822,72.8745 7.7512,72.8945 10.5182,72.8935 L11.9332,72.8935 L11.9332,71.3175 C11.9332,50.6575 11.9372,29.9975 11.9302,9.3385 C11.9292,5.8175 13.1872,2.9755 16.4712,1.4305 C17.6582,0.8715 19.0902,0.6005 20.4122,0.5995 C50.7012,0.5535 80.9902,0.5785 111.2792,0.5455 C114.9422,0.5415 118.7282,2.6195 119.7442,7.4275 L119.7442,9.0645 Z" id="Fill-1" fill="#568AE9" mask="url(#mask-2)"></path>
                </g>
                <path d="M65.5574,54.7459 C66.0384,55.6099 66.3854,56.4059 66.8834,57.0919 C67.9804,58.6039 68.0634,60.0389 66.9124,61.5729 C66.3844,62.2759 66.0364,63.1129 65.5544,63.9819 C66.6064,64.4739 67.5604,65.0009 68.5714,65.3719 C69.9664,65.8839 70.5684,66.8369 70.6344,68.2859 C70.6834,69.3469 70.8874,70.3999 71.0264,71.4849 C72.3884,71.2259 73.5784,71.0329 74.7514,70.7659 C75.7794,70.5329 76.5744,70.8449 77.2584,71.5989 C78.0924,72.5169 78.9444,73.4179 79.8284,74.3699 C80.7684,73.3499 81.5564,72.3049 82.5404,71.4999 C83.0984,71.0429 83.9894,70.7529 84.7094,70.7889 C85.9984,70.8529 87.2734,71.2219 88.6294,71.4769 C88.7944,70.1679 88.9824,68.9779 89.0824,67.7809 C89.1744,66.6919 89.6804,65.9839 90.6844,65.5569 C91.8194,65.0729 92.9264,64.5229 94.0904,63.9809 C93.4454,62.8229 92.8794,61.7589 92.2664,60.7229 C91.7144,59.7899 91.7184,58.9049 92.2714,57.9719 C92.8944,56.9199 93.4624,55.8359 94.0884,54.7039 C92.8394,54.0459 91.7394,53.4149 90.5934,52.8789 C89.6404,52.4329 89.1834,51.7389 89.0854,50.7109 C88.9684,49.4809 88.7814,48.2589 88.6194,46.9959 C87.3094,47.2429 86.1134,47.4089 84.9494,47.7029 C83.8624,47.9779 83.0624,47.6559 82.3524,46.8499 C81.5444,45.9329 80.6964,45.0509 79.8254,44.1089 C78.8834,45.1299 78.0364,46.0419 77.1984,46.9609 C76.5394,47.6819 75.7824,47.9719 74.7884,47.7349 C73.5874,47.4489 72.3634,47.2609 71.0084,47.0029 C70.8664,48.1949 70.6934,49.2979 70.6144,50.4089 C70.5254,51.6559 70.0004,52.5009 68.8124,53.0149 C67.7274,53.4849 66.7134,54.1219 65.5574,54.7459 M69.7334,42.6689 C70.9984,42.9109 72.4824,43.2459 73.9844,43.4469 C74.4204,43.5049 75.0274,43.3039 75.3504,43.0009 C76.2864,42.1239 77.1084,41.1259 77.9944,40.1939 C79.2794,38.8429 80.3804,38.8569 81.6754,40.2279 C82.4254,41.0209 83.2384,41.7709 83.8814,42.6439 C84.5434,43.5419 85.2904,43.6599 86.2864,43.3989 C87.3764,43.1139 88.4914,42.9089 89.6054,42.7289 C91.3674,42.4459 92.1734,43.0649 92.3984,44.8189 C92.5614,46.0939 92.6374,47.3849 92.8914,48.6409 C92.9874,49.1149 93.3804,49.6759 93.7994,49.9109 C94.9514,50.5539 96.1954,51.0289 97.3884,51.6009 C98.8874,52.3199 99.2924,53.4749 98.5274,54.9599 C97.8844,56.2049 97.1184,57.3879 96.5164,58.6509 C96.3284,59.0479 96.3404,59.6889 96.5314,60.0909 C97.1134,61.3199 97.8474,62.4749 98.4824,63.6809 C99.2314,65.1019 98.8984,66.1319 97.4534,66.8439 C96.2654,67.4279 95.0624,67.9819 93.8434,68.4959 C93.2004,68.7659 92.8754,69.1279 92.8294,69.8689 C92.7464,71.1879 92.5534,72.5019 92.3784,73.8139 C92.1704,75.3829 91.2834,76.0339 89.6924,75.7639 C88.3494,75.5369 87.0224,75.1989 85.6734,75.0319 C85.2304,74.9769 84.6204,75.1749 84.2944,75.4789 C83.3574,76.3549 82.5314,77.3489 81.6514,78.2879 C80.3694,79.6549 79.2974,79.6559 77.9894,78.2789 C77.1294,77.3739 76.2574,76.4789 75.4614,75.5209 C74.9954,74.9609 74.5204,74.8479 73.8404,75.0029 C72.5134,75.3069 71.1734,75.5589 69.8314,75.7919 C68.4534,76.0309 67.5394,75.4209 67.3084,74.0389 C67.0774,72.6579 66.9324,71.2599 66.7974,69.8649 C66.7314,69.1709 66.4514,68.7529 65.7824,68.4859 C64.6264,68.0229 63.5034,67.4789 62.3774,66.9489 C60.6944,66.1559 60.3624,65.1179 61.2634,63.4579 C61.8954,62.2949 62.5934,61.1659 63.1724,59.9779 C63.3394,59.6359 63.3394,59.0729 63.1724,58.7309 C62.5724,57.5099 61.8524,56.3489 61.2054,55.1489 C60.3164,53.5009 60.6994,52.3369 62.3864,51.5369 C63.5114,51.0029 64.6314,50.4529 65.7874,49.9929 C66.4624,49.7249 66.7304,49.2989 66.7974,48.6119 C66.9354,47.2169 67.0784,45.8199 67.3074,44.4369 C67.5184,43.1619 68.2634,42.6109 69.7334,42.6689" id="Fill-4" fill="#568AE9"></path>
                <mask id="mask-4" fill="white">
                    <use xlink:href="#path-3"></use>
                </mask>
                <g id="Clip-7"></g>
                <polygon id="Fill-6" fill="#568AE9" mask="url(#mask-4)" points="23.976 29.096 95.705 29.096 95.705 25.267 23.976 25.267"></polygon>
                <polygon id="Fill-8" fill="#568AE9" mask="url(#mask-4)" points="24.01 37.077 95.723 37.077 95.723 33.205 24.01 33.205"></polygon>
                <polygon id="Fill-9" fill="#568AE9" mask="url(#mask-4)" points="43.961 16.914 75.721 16.914 75.721 13.072 43.961 13.072"></polygon>
                <polygon id="Fill-10" fill="#568AE9" mask="url(#mask-4)" points="25.979 63.237 51.823 63.237 51.823 59.42 25.979 59.42"></polygon>
                <path d="M73.865,59.3255 C73.85,62.6095 76.457,65.2685 79.754,65.3375 C83.014,65.4045 85.783,62.6335 85.817,59.3445 C85.847,56.3425 82.875,53.1775 79.89,53.1285 C76.872,53.0795 73.683,56.3615 73.865,59.3255 M69.876,59.3325 C69.89,53.6695 74.419,49.0195 79.884,49.1695 C85.831,49.3335 89.613,53.6775 89.764,59.3385 C89.911,64.7735 85.243,69.3525 79.823,69.3355 C74.354,69.3185 69.862,64.8015 69.876,59.3325" id="Fill-11" fill="#568AE9" mask="url(#mask-4)"></path>
            </g>
        </g>
    </g>
</svg>