<?xml version="1.0" encoding="UTF-8"?>
<svg width="113px" height="87px" viewBox="0 0 113 87" version="1.1" xmlns="http://www.w3.org/2000/svg" xmlns:xlink="http://www.w3.org/1999/xlink">
    <!-- Generator: Sketch 52.1 (67048) - http://www.bohemiancoding.com/sketch -->
    <title>online-course (1)</title>
    <desc>Created with Sketch.</desc>
    <g id="Page-1" stroke="none" stroke-width="1" fill="none" fill-rule="evenodd">
        <g id="PAGOS-" transform="translate(-421.000000, -295.000000)" fill="#568AE9">
            <g id="online-course-(1)" transform="translate(421.000000, 295.000000)">
                <path d="M103.887097,4.82947016e-15 L23.6935484,4.82947016e-15 C19.3061211,0.00612751677 15.5440051,3.11616038 14.736248,7.40474219 C11.0360535,8.09657971 8.14161074,10.9750133 7.4459254,14.6547422 C3.13349164,15.4580316 0.00616159639,19.1993394 0,23.5625 L0,77.9375 C0.00564986849,82.9402514 4.08232786,86.9943814 9.11290323,87 L89.3064516,87 C93.6938789,86.9938725 97.4559949,83.8838396 98.263752,79.5952578 C101.963947,78.9034203 104.858389,76.0249867 105.554075,72.3452578 C109.866508,71.5419684 112.993838,67.8006606 113,63.4375 L113,9.0625 C112.99435,4.05974861 108.917672,0.00561861921 103.887097,4.82947016e-15 Z M3.64516129,23.5625 C3.64855121,20.5608492 6.09455801,18.1283712 9.11290323,18.125 L89.3064516,18.125 C92.3247968,18.1283712 94.7708036,20.5608492 94.7741935,23.5625 L94.7741935,25.375 L3.64516129,25.375 L3.64516129,23.5625 Z M94.7741935,77.9375 C94.7708036,80.9391508 92.3247968,83.3716288 89.3064516,83.375 L9.11290323,83.375 C6.09455801,83.3716288 3.64855121,80.9391508 3.64516129,77.9375 L3.64516129,29 L94.7741935,29 L94.7741935,77.9375 Z M102.064516,70.6875 C102.061599,72.990717 100.602064,75.0430849 98.4193548,75.81325 L98.4193548,23.5625 C98.413705,18.5597486 94.337027,14.5056186 89.3064516,14.5 L11.2489677,14.5 C12.0234163,12.3293635 14.0871989,10.8779011 16.4032258,10.875 L96.5967742,10.875 C99.6151194,10.8783712 102.061126,13.3108492 102.064516,16.3125 L102.064516,70.6875 Z M109.354839,63.4375 C109.351921,65.740717 107.892386,67.7930849 105.709677,68.56325 L105.709677,16.3125 C105.704028,11.3097486 101.62735,7.25561862 96.5967742,7.25 L18.5392903,7.25 C19.3137389,5.07936354 21.3775215,3.6279011 23.6935484,3.625 L103.887097,3.625 C106.905442,3.62837117 109.351449,6.06084917 109.354839,9.0625 L109.354839,63.4375 Z" id="Shape" fill-rule="nonzero"></path>
                <circle id="Oval" cx="9" cy="22" r="2"></circle>
                <circle id="Oval" cx="17" cy="22" r="2"></circle>
                <circle id="Oval" cx="24" cy="22" r="2"></circle>
                <path d="M29.8333333,66 L70.1666667,66 C71.1791887,66 72,65.2040618 72,64.2222222 L72,35.7777778 C72,34.7959382 71.1791887,34 70.1666667,34 L29.8333333,34 C28.8208113,34 28,34.7959382 28,35.7777778 L28,64.2222222 C28,65.2040618 28.8208113,66 29.8333333,66 Z M31.6666667,37.5555556 L68.3333333,37.5555556 L68.3333333,62.4444444 L31.6666667,62.4444444 L31.6666667,37.5555556 Z" id="Shape" fill-rule="nonzero"></path>
                <path d="M44.9690594,54.7617634 C45.567023,55.093122 46.2989536,55.07788 46.8823609,54.72192 L56.1002431,49.0969717 C56.6593982,48.7557147 57,48.1512549 57,47.5001895 C57,46.8491241 56.6593982,46.2446643 56.1002431,45.9034073 L46.8823609,40.278459 C46.2989412,39.9221839 45.5668025,39.9067525 44.9686429,40.2381234 C44.3704833,40.5694943 43.9999058,41.195813 44,41.8752412 L44,53.1251378 C44.0001699,53.8044766 44.3708943,54.4305857 44.9690594,54.7617634 Z M47.7816953,45.2305229 L51.5009926,47.5001895 L47.7816953,49.7698561 L47.7816953,45.2305229 Z" id="Shape" fill-rule="nonzero"></path>
                <path d="M62.1875,56.75 L58.5625,56.75 C58.5625,55.7835017 57.7510161,55 56.75,55 C55.7489839,55 54.9375,55.7835017 54.9375,56.75 L36.8125,56.75 C35.8114839,56.75 35,57.5335017 35,58.5 C35,59.4664983 35.8114839,60.25 36.8125,60.25 L54.9375,60.25 C54.9375,61.2164983 55.7489839,62 56.75,62 C57.7510161,62 58.5625,61.2164983 58.5625,60.25 L62.1875,60.25 C63.1885161,60.25 64,59.4664983 64,58.5 C64,57.5335017 63.1885161,56.75 62.1875,56.75 Z" id="Path"></path>
                <path d="M29.8333333,72 L70.1666667,72 C71.1791887,72 72,71.1045695 72,70 C72,68.8954305 71.1791887,68 70.1666667,68 L29.8333333,68 C28.8208113,68 28,68.8954305 28,70 C28,71.1045695 28.8208113,72 29.8333333,72 Z" id="Path"></path>
                <path d="M29.8125,78 L55.1875,78 C56.1885161,78 57,77.1045695 57,76 C57,74.8954305 56.1885161,74 55.1875,74 L29.8125,74 C28.8114839,74 28,74.8954305 28,76 C28,77.1045695 28.8114839,78 29.8125,78 Z" id="Path"></path>
                <path d="M62,74 L60,74 C58.8954305,74 58,74.8954305 58,76 C58,77.1045695 58.8954305,78 60,78 L62,78 C63.1045695,78 64,77.1045695 64,76 C64,74.8954305 63.1045695,74 62,74 Z" id="Path"></path>
            </g>
        </g>
    </g>
</svg>