<?xml version="1.0" encoding="UTF-8"?>
<svg width="33px" height="39px" viewBox="0 0 33 39" version="1.1" xmlns="http://www.w3.org/2000/svg" xmlns:xlink="http://www.w3.org/1999/xlink">
    <!-- Generator: Sketch 52.1 (67048) - http://www.bohemiancoding.com/sketch -->
    <title>file</title>
    <desc>Created with Sketch.</desc>
    <g id="Page-1" stroke="none" stroke-width="1" fill="none" fill-rule="evenodd">
        <g id="ACCEDER-AL-EXAMEN" transform="translate(-662.000000, -492.000000)" fill="#227A5D">
            <g id="file" transform="translate(662.000000, 492.000000)">
                <path d="M32.740727,31.9920352 C32.8763844,31.8197344 33.0040526,31.5793359 32.9999015,31.2693926 L32.9999015,5.85815039 C32.9999015,5.22714258 32.4738768,4.71557227 31.82504,4.71557227 L28.0493484,4.71557227 L28.0493484,1.14257812 C28.0493484,0.511570312 27.5233237,0 26.8744869,0 L1.1748615,0 C0.526024656,0 0,0.511570312 0,1.14257812 L0,33.1418496 C0,33.7728574 0.526024656,34.2844277 1.1748615,34.2844277 L4.95055307,34.2844277 L4.95055307,37.8574219 C4.95055307,38.4884297 5.47657773,39 6.12541457,39 L24.7318528,39 C24.9680783,38.9992383 25.3136442,38.9108789 25.5438388,38.6841152 L32.6360077,32.1037793 C32.6691388,32.0696543 32.6693738,32.0740723 32.740727,31.9920352 Z M2.349723,31.9993477 L2.349723,2.28515625 L25.6997037,2.28515625 L25.6997037,4.71557227 L6.12533625,4.71557227 C5.4764994,4.71557227 4.95047475,5.22714258 4.95047475,5.85815039 L4.95047475,31.9993477 L2.349723,31.9993477 Z M7.30019775,7.00072852 L30.6501785,7.00072852 L30.6501785,30.1345078 L24.732871,30.1345078 C24.0840342,30.1345078 23.5580095,30.6460781 23.5580095,31.2770859 L23.5580095,36.7148437 L7.30019775,36.7148437 L7.30019775,7.00072852 Z M25.9077325,35.188207 L25.9077325,32.4196641 L28.8916458,32.4196641 L25.9077325,35.188207 Z" id="Shape" fill-rule="nonzero"></path>
                <path d="M10.202694,16 L26.797306,16 C27.4615138,16 28,15.5522667 28,15 C28,14.4477333 27.4615138,14 26.797306,14 L10.202694,14 C9.53848621,14 9,14.4477333 9,15 C9,15.5522667 9.53848621,16 10.202694,16 Z" id="Path"></path>
                <path d="M10.202694,21 L26.797306,21 C27.4615138,21 28,20.5522667 28,20 C28,19.4477333 27.4615138,19 26.797306,19 L10.202694,19 C9.53848621,19 9,19.4477333 9,20 C9,20.5522667 9.53848621,21 10.202694,21 Z" id="Path"></path>
                <path d="M10.202694,25 L26.797306,25 C27.4615138,25 28,24.5522667 28,24 C28,23.4477333 27.4615138,23 26.797306,23 L10.202694,23 C9.53848621,23 9,23.4477333 9,24 C9,24.5522667 9.53848621,25 10.202694,25 Z" id="Path"></path>
                <path d="M20.8236755,27 L11.1763245,27 C10.5266797,27 10,27.4477333 10,28 C10,28.5522667 10.5266797,29 11.1763245,29 L20.8236755,29 C21.4733203,29 22,28.5522667 22,28 C22,27.4477333 21.4733203,27 20.8236755,27 Z" id="Path"></path>
            </g>
        </g>
    </g>
</svg>