<?xml version="1.0" encoding="UTF-8"?>
<svg width="18px" height="18px" viewBox="0 0 18 18" version="1.1" xmlns="http://www.w3.org/2000/svg" xmlns:xlink="http://www.w3.org/1999/xlink">
    <!-- Generator: Sketch 52.1 (67048) - http://www.bohemiancoding.com/sketch -->
    <title>clock</title>
    <desc>Created with Sketch.</desc>
    <g id="Page-1" stroke="none" stroke-width="1" fill="none" fill-rule="evenodd">
        <g id="MÓDULOS" transform="translate(-900.000000, -1064.000000)" fill="#227A5D">
            <path d="M908.999979,1064.53129 C913.816373,1064.53129 917.718708,1068.43362 917.718708,1073.25002 C917.718708,1078.06641 913.816373,1081.96875 908.999979,1081.96875 C904.183584,1081.96875 900.281249,1078.06641 900.281249,1073.25002 C900.281249,1068.43362 904.183584,1064.53129 908.999979,1064.53129 Z M912.251581,1075.53517 C912.328759,1075.43887 912.375554,1075.31651 912.375554,1075.18361 C912.375554,1075.00587 912.292917,1074.84725 912.164033,1074.74415 L910.124976,1073.25002 L910.124976,1068.18753 C910.124976,1067.87706 909.872943,1067.62503 909.562477,1067.62503 L908.43748,1067.62503 C908.127014,1067.62503 907.874981,1067.87706 907.874981,1068.18753 L907.874981,1073.65606 C907.874981,1074.10022 908.080356,1074.49621 908.402324,1074.75401 L910.757787,1076.50196 C910.85402,1076.57897 910.976243,1076.62563 911.108971,1076.62563 C911.286709,1076.62563 911.445323,1076.54299 911.548457,1076.41407 L912.251581,1075.53517 Z" id="clock"></path>
        </g>
    </g>
</svg>