<?xml version="1.0" encoding="UTF-8"?>
<svg width="16px" height="18px" viewBox="0 0 16 18" version="1.1" xmlns="http://www.w3.org/2000/svg" xmlns:xlink="http://www.w3.org/1999/xlink">
    <!-- Generator: Sketch 52.1 (67048) - http://www.bohemiancoding.com/sketch -->
    <title>Group 10</title>
    <desc>Created with Sketch.</desc>
    <defs>
        <polygon id="path-1" points="0 0.0352 15.9074 0.0352 15.9074 18 0 18"></polygon>
    </defs>
    <g id="Page-1" stroke="none" stroke-width="1" fill="none" fill-rule="evenodd">
        <g id="CURSO_1" transform="translate(-1057.000000, -1169.000000)">
            <g id="Group-10" transform="translate(1057.000000, 1168.000000)">
                <g id="Group-3" transform="translate(0.000000, 0.965000)">
                    <mask id="mask-2" fill="white">
                        <use xlink:href="#path-1"></use>
                    </mask>
                    <g id="Clip-2"></g>
                    <path d="M13.7574,3.3882 C13.2674,2.9292 12.8124,2.5032 12.3394,2.0602 L12.3394,3.3882 L13.7574,3.3882 Z M9.8934,6.1592 C9.4034,5.7012 8.9464,5.2742 8.4704,4.8272 L8.4704,6.1592 L9.8934,6.1592 Z M14.6794,14.0032 L14.6794,4.6042 L14.4814,4.6042 C13.5864,4.6042 12.6924,4.6052 11.7974,4.6042 C11.3404,4.6032 11.1114,4.3692 11.1104,3.9092 C11.1094,3.0912 11.1104,2.2732 11.1104,1.4542 L11.1104,1.2612 L5.0924,1.2612 L5.0924,2.8072 C5.9884,2.8072 6.8714,2.8102 7.7544,2.8052 C7.9854,2.8032 8.1704,2.8772 8.3374,3.0342 C9.4604,4.0932 10.5844,5.1512 11.7174,6.1992 C11.9464,6.4112 12.0444,6.6422 12.0424,6.9532 C12.0354,9.2272 12.0384,11.5012 12.0384,13.7752 L12.0384,14.0032 L14.6794,14.0032 Z M10.8134,16.7782 L10.8134,7.3762 L10.6064,7.3762 C9.7234,7.3762 8.8404,7.3772 7.9574,7.3762 C7.4744,7.3752 7.2474,7.1512 7.2474,6.6702 C7.2464,5.8572 7.2474,5.0452 7.2474,4.2322 L7.2474,4.0372 L1.2304,4.0372 L1.2304,16.7782 L10.8134,16.7782 Z M4.3394,0.0352 L11.8484,0.0352 C11.9594,0.1062 12.0864,0.1612 12.1814,0.2502 C13.3364,1.3272 14.4854,2.4102 15.6394,3.4872 C15.8244,3.6592 15.9074,3.8572 15.9074,4.1062 C15.9054,7.5802 15.9064,11.0542 15.9054,14.5272 C15.9044,14.9932 15.6664,15.2272 15.2014,15.2282 C14.2134,15.2282 13.2254,15.2282 12.2364,15.2282 C12.1754,15.2282 12.1134,15.2332 12.0384,15.2372 L12.0384,15.4432 C12.0384,16.0632 12.0404,16.6832 12.0374,17.3032 C12.0354,17.7712 11.8034,17.9992 11.3334,18.0002 C7.7894,18.0002 4.2454,18.0002 0.7014,17.9992 C0.2404,17.9992 0.0004,17.7622 0.0004,17.2962 C-0.0006,12.7002 -0.0006,8.1032 0.0004,3.5072 C0.0004,3.0422 0.2414,2.8072 0.7054,2.8072 C1.6944,2.8062 2.6824,2.8072 3.6704,2.8062 C3.7324,2.8062 3.7934,2.8012 3.8674,2.7982 L3.8674,2.5902 C3.8674,1.9932 3.8784,1.3972 3.8624,0.8012 C3.8534,0.4282 3.9844,0.1682 4.3394,0.0352 Z" id="Fill-1" fill="#227A5D" mask="url(#mask-2)"></path>
                </g>
                <path d="M6.0123,15.6671 C5.0653,15.6671 4.1173,15.6691 3.1703,15.6661 C2.7623,15.6641 2.4913,15.3591 2.5433,14.9731 C2.5773,14.7151 2.7753,14.5091 3.0323,14.4691 C3.1173,14.4561 3.2063,14.4531 3.2933,14.4531 C5.1123,14.4521 6.9303,14.4511 8.7493,14.4541 C8.8703,14.4541 8.9973,14.4611 9.1123,14.4971 C9.3883,14.5851 9.5433,14.8681 9.4983,15.1661 C9.4563,15.4401 9.2183,15.6571 8.9243,15.6641 C8.5213,15.6731 8.1173,15.6671 7.7133,15.6671 C7.1473,15.6671 6.5793,15.6671 6.0123,15.6671" id="Fill-4" fill="#227A5D"></path>
                <path d="M6.0191,13.2804 C5.0721,13.2804 4.1241,13.2824 3.1771,13.2794 C2.7651,13.2774 2.4951,12.9784 2.5421,12.5924 C2.5751,12.3324 2.7641,12.1284 3.0251,12.0834 C3.1111,12.0684 3.2001,12.0644 3.2871,12.0634 C5.1111,12.0624 6.9361,12.0634 8.7601,12.0634 C8.8351,12.0634 8.9131,12.0674 8.9871,12.0784 C9.3081,12.1274 9.5181,12.3814 9.5041,12.7014 C9.4931,13.0144 9.2521,13.2564 8.9311,13.2784 C8.8731,13.2814 8.8141,13.2804 8.7551,13.2804 L6.0191,13.2804 Z" id="Fill-6" fill="#227A5D"></path>
                <path d="M5.0025,10.8932 C4.3835,10.8932 3.7645,10.8972 3.1455,10.8912 C2.8355,10.8882 2.5955,10.6832 2.5465,10.4012 C2.4945,10.1042 2.6445,9.8262 2.9205,9.7252 C3.0065,9.6942 3.1025,9.6782 3.1935,9.6782 C4.4035,9.6752 5.6125,9.6732 6.8215,9.6772 C7.2835,9.6792 7.5755,10.0392 7.4625,10.4482 C7.3875,10.7212 7.1565,10.8912 6.8435,10.8932 C6.2305,10.8952 5.6165,10.8932 5.0025,10.8932" id="Fill-8" fill="#227A5D"></path>
            </g>
        </g>
    </g>
</svg>