<svg version="1.0" xmlns="http://www.w3.org/2000/svg"
 width="27" height="27" viewBox="0 0 55 55"
 preserveAspectRatio="xMidYMid meet">

<g transform="translate(0.000000,52.000000) scale(0.100000,-0.100000)"
fill="#227A5D" stroke="none">
<path d="M217 509 c-89 -20 -151 -71 -188 -153 -27 -63 -27 -128 1 -193 26
-62 70 -105 134 -134 125 -55 271 6 326 134 55 126 -4 271 -130 325 -59 26
-97 31 -143 21z m138 -56 c75 -38 119 -109 119 -193 0 -121 -92 -213 -214
-213 -122 0 -214 92 -214 213 0 160 167 264 309 193z"/>
<path d="M247 424 c-4 -4 -7 -38 -7 -75 l0 -68 -37 -3 c-26 -2 -38 -8 -38 -18
0 -12 13 -15 55 -15 l55 0 0 89 c0 83 -8 109 -28 90z"/>
</g>
</svg>
