<?xml version="1.0" encoding="UTF-8"?>
<svg width="39px" height="39px" viewBox="0 0 39 39" version="1.1" xmlns="http://www.w3.org/2000/svg" xmlns:xlink="http://www.w3.org/1999/xlink">
    <!-- Generator: Sketch 52.1 (67048) - http://www.bohemiancoding.com/sketch -->
    <title>times-circle copy</title>
    <desc>Created with Sketch.</desc>
    <g id="Page-1" stroke="none" stroke-width="1" fill="none" fill-rule="evenodd">
        <g id="WEBINAR_PAGAR-Copy" transform="translate(-1070.000000, -461.000000)" fill="#204892">
            <g id="Group-21" transform="translate(551.000000, 443.000000)">
                <path d="M538.499954,18.4844549 C548.935476,18.4844549 557.390533,26.9395129 557.390533,37.3750349 C557.390533,47.8105569 548.935476,56.2656148 538.499954,56.2656148 C528.064432,56.2656148 519.609374,47.8105569 519.609374,37.3750349 C519.609374,26.9395129 528.064432,18.4844549 538.499954,18.4844549 Z M547.762402,42.3337824 L542.765568,37.3750349 L547.770063,32.4238748 C548.128085,32.065853 548.128085,31.4869778 547.770063,31.128956 L544.75362,28.1125867 C544.395672,27.7545649 543.816723,27.7545649 543.458701,28.1125867 L538.499954,33.10942 L533.548793,28.1049249 C533.190772,27.7469031 532.611896,27.7469031 532.253875,28.1049249 L529.237505,31.1213686 C528.879484,31.479316 528.879484,32.0582655 529.237505,32.4162874 L534.234339,37.3750349 L529.237505,42.3261949 C528.879484,42.6842168 528.879484,43.2630919 529.237505,43.6211137 L532.246287,46.637483 C532.604235,46.9955049 533.183184,46.9955049 533.541206,46.637483 L538.499954,41.6406497 L543.451114,46.637483 C543.809135,46.9955049 544.388011,46.9955049 544.746032,46.637483 L547.762402,43.6287011 C548.120424,43.2707537 548.120424,42.6918042 547.762402,42.3337824 Z" id="times-circle-copy"></path>
            </g>
        </g>
    </g>
</svg>