<?xml version="1.0" encoding="UTF-8"?>
<svg width="18px" height="18px" viewBox="0 0 18 18" version="1.1" xmlns="http://www.w3.org/2000/svg" xmlns:xlink="http://www.w3.org/1999/xlink">
    <!-- Generator: Sketch 52.1 (67048) - http://www.bohemiancoding.com/sketch -->
    <title>times copy</title>
    <desc>Created with Sketch.</desc>
    <g id="Page-1" stroke="none" stroke-width="1" fill="none" fill-rule="evenodd">
        <g id="PAGOS-FINALIZAR" transform="translate(-1272.000000, -173.000000)" fill="#568AE9">
            <g id="Group-47" transform="translate(508.000000, 147.000000)">
                <path d="M775.851521,34.6250224 L780.737755,39.5112564 C781.337376,40.1113546 781.337376,41.0834802 780.737755,41.6831015 L779.651809,42.7690478 C779.052187,43.3686691 778.079537,43.3686691 777.479964,42.7690478 L772.59373,37.8828137 L767.707495,42.7690478 C767.107922,43.3686691 766.135272,43.3686691 765.53565,42.7690478 L764.449704,41.6831015 C763.850083,41.0830033 763.850083,40.11083 764.449704,39.5112564 L769.335938,34.6250224 L764.449704,29.7387883 C763.850083,29.1386901 763.850083,28.1665645 764.449704,27.5669432 L765.53565,26.4809969 C766.135749,25.8813756 767.107922,25.8813756 767.707495,26.4809969 L772.59373,31.367231 L777.479964,26.4809969 C778.080062,25.8813756 779.052187,25.8813756 779.651809,26.4809969 L780.737755,27.5669432 C781.337376,28.1670414 781.337376,29.1392147 780.737755,29.7387883 L775.851521,34.6250224 Z" id="times-copy"></path>
            </g>
        </g>
    </g>
</svg>