<?xml version="1.0" encoding="UTF-8"?>
<svg width="18px" height="18px" viewBox="0 0 18 18" version="1.1" xmlns="http://www.w3.org/2000/svg" xmlns:xlink="http://www.w3.org/1999/xlink">
    <!-- Generator: Sketch 52.1 (67048) - http://www.bohemiancoding.com/sketch -->
    <title>times</title>
    <desc>Created with Sketch.</desc>
    <g id="Page-1" stroke="none" stroke-width="1" fill="none" fill-rule="evenodd">
        <g id="CERTIFICADOS-PAGO-TARJETA" transform="translate(-1070.000000, -183.000000)" fill="#FFFFFF">
            <path d="M1081.85152,191.625022 L1086.73775,196.511256 C1087.33738,197.111355 1087.33738,198.08348 1086.73775,198.683101 L1085.65181,199.769048 C1085.05219,200.368669 1084.07954,200.368669 1083.47996,199.769048 L1078.59373,194.882814 L1073.7075,199.769048 C1073.10792,200.368669 1072.13527,200.368669 1071.53565,199.769048 L1070.4497,198.683101 C1069.85008,198.083003 1069.85008,197.11083 1070.4497,196.511256 L1075.33594,191.625022 L1070.4497,186.738788 C1069.85008,186.13869 1069.85008,185.166565 1070.4497,184.566943 L1071.53565,183.480997 C1072.13575,182.881376 1073.10792,182.881376 1073.7075,183.480997 L1078.59373,188.367231 L1083.47996,183.480997 C1084.08006,182.881376 1085.05219,182.881376 1085.65181,183.480997 L1086.73775,184.566943 C1087.33738,185.167041 1087.33738,186.139215 1086.73775,186.738788 L1081.85152,191.625022 Z" id="times"></path>
        </g>
    </g>
</svg>