<svg width="172" height="172" viewBox="0 0 172 172" fill="none" xmlns="http://www.w3.org/2000/svg">
<g id="megafono">
<path id="Shape" fill-rule="evenodd" clip-rule="evenodd" d="M96.075 67.3483V79.5546C106.876 81.8799 115 91.5303 115 103.052C115 114.574 106.876 124.224 96.075 126.55V140.989C96.075 144.944 92.3139 147.818 88.4973 146.777L49.846 136.243V154.181L52.7223 164.37C53.8032 168.199 50.9264 172 46.948 172H26.1341C22.8204 172 20.1341 169.314 20.1341 166V128.146L18.5693 127.719C7.63587 124.739 0 114.719 0 103.352C0 91.7247 7.85481 81.6475 19.1017 78.8458L88.6246 61.5263C92.4102 60.5832 96.075 63.447 96.075 67.3483ZM67.2385 77.2529L30.1927 86.4817V120.429L67.2385 130.525V77.2529ZM10.0587 103.352C10.0587 96.8628 14.1358 91.1801 20.1341 89.0613V117.642C14.1492 115.52 10.0587 109.798 10.0587 103.352ZM30.1927 161.908H41.5728L39.7874 155.583V133.502L30.1927 130.887V161.908ZM86.0163 135.643L77.2971 133.267V74.747L86.0163 72.5747V79.017V127.087V135.643ZM96.075 90.0544V116.05C101.259 114.024 104.941 108.962 104.941 103.052C104.941 97.1433 101.259 92.0807 96.075 90.0544Z" fill="#204892"/>
<path id="Shape_2" fill-rule="evenodd" clip-rule="evenodd" d="M98.9881 0H145.012C159.893 0 172 12.1201 172 27.0175C172 41.9148 159.893 54.035 145.012 54.035H138.641L120.088 69.0829C117.473 71.2036 113.568 69.3428 113.568 65.9763V54.035H98.9881C84.1066 54.035 72 41.9148 72 27.0175C72 12.1201 84.1066 0 98.9881 0ZM135.075 43.957H145.012C154.342 43.957 161.933 36.3577 161.933 27.0175C161.933 17.6773 154.342 10.0783 145.012 10.0783H98.9881C89.6577 10.0783 82.0673 17.6776 82.0673 27.0178C82.0673 36.358 89.6577 43.957 98.9881 43.957H123.636V53.2351L135.075 43.957Z" fill="#204892"/>
<path id="Path" fill-rule="evenodd" clip-rule="evenodd" d="M104 23C101.387 23 98.8833 25.2997 99.0042 28C99.1254 30.709 101.199 33 104 33C106.613 33 109.117 30.7003 108.996 28C108.875 25.291 106.801 23 104 23Z" fill="#204892"/>
<path id="Path_2" fill-rule="evenodd" clip-rule="evenodd" d="M139 23C136.387 23 133.883 25.2997 134.004 28C134.125 30.709 136.199 33 139 33C141.613 33 144.117 30.7003 143.996 28C143.875 25.291 141.801 23 139 23Z" fill="#204892"/>
<path id="Path_3" fill-rule="evenodd" clip-rule="evenodd" d="M122 23C119.387 23 116.883 25.2997 117.004 28C117.125 30.709 119.199 33 122 33C124.613 33 127.117 30.7003 126.996 28C126.875 25.291 124.801 23 122 23Z" fill="#204892"/>
</g>
</svg>
