<?xml version="1.0" encoding="UTF-8"?>
<svg width="391px" height="684px" viewBox="0 0 391 684" version="1.1" xmlns="http://www.w3.org/2000/svg" xmlns:xlink="http://www.w3.org/1999/xlink">
    <!-- Generator: Sketch 52.1 (67048) - http://www.bohemiancoding.com/sketch -->
    <title>Group 11</title>
    <desc>Created with Sketch.</desc>
    <g id="Page-1" stroke="none" stroke-width="1" fill="none" fill-rule="evenodd">
        <g id="MENSAJE-INCLUSIVO" transform="translate(-915.000000, -252.000000)">
            <g id="Group-11" transform="translate(917.000000, 252.000000)">
                <circle id="Oval-Copy-19" stroke="#7BBBEF" stroke-width="3" transform="translate(368.500000, 567.500000) scale(-1, -1) translate(-368.500000, -567.500000) " cx="368.5" cy="567.5" r="6.5"></circle>
                <circle id="Oval-Copy-39" stroke="#7BBBEF" stroke-width="3" transform="translate(380.500000, 218.500000) scale(-1, -1) translate(-380.500000, -218.500000) " cx="380.5" cy="218.5" r="6.5"></circle>
                <circle id="Oval-Copy-42" stroke="#7BBBEF" stroke-width="3" transform="translate(6.500000, 675.500000) scale(-1, -1) translate(-6.500000, -675.500000) " cx="6.5" cy="675.5" r="6.5"></circle>
                <path d="M215.874957,669.687525 C216.63421,669.687525 217.249954,670.303269 217.249954,671.062521 L217.249954,672.437518 C217.249954,673.196771 216.63421,673.812515 215.874957,673.812515 L209.687472,673.812515 L209.687472,680 C209.687472,680.759253 209.071728,681.374997 208.312475,681.374997 L206.937479,681.374997 C206.178226,681.374997 205.562482,680.759253 205.562482,680 L205.562482,673.812515 L199.374997,673.812515 C198.615744,673.812515 198,673.196771 198,672.437518 L198,671.062521 C198,670.303269 198.615744,669.687525 199.374997,669.687525 L205.562482,669.687525 L205.562482,663.500039 C205.562482,662.740787 206.178226,662.125043 206.937479,662.125043 L208.312475,662.125043 C209.071728,662.125043 209.687472,662.740787 209.687472,663.500039 L209.687472,669.687525 L215.874957,669.687525 Z" id="plus-copy-3" fill="#7DDDDD" transform="translate(207.624977, 671.750020) scale(-1, -1) translate(-207.624977, -671.750020) "></path>
                <path d="M218.874957,7.68752459 C219.63421,7.68752459 220.249954,8.30326866 220.249954,9.06252131 L220.249954,10.437518 C220.249954,11.1967707 219.63421,11.8125148 218.874957,11.8125148 L212.687472,11.8125148 L212.687472,18 C212.687472,18.7592526 212.071728,19.3749967 211.312475,19.3749967 L209.937479,19.3749967 C209.178226,19.3749967 208.562482,18.7592526 208.562482,18 L208.562482,11.8125148 L202.374997,11.8125148 C201.615744,11.8125148 201,11.1967707 201,10.437518 L201,9.06252131 C201,8.30326866 201.615744,7.68752459 202.374997,7.68752459 L208.562482,7.68752459 L208.562482,1.50003934 C208.562482,0.740786694 209.178226,0.125042617 209.937479,0.125042617 L211.312475,0.125042617 C212.071728,0.125042617 212.687472,0.740786694 212.687472,1.50003934 L212.687472,7.68752459 L218.874957,7.68752459 Z" id="plus-copy-5" fill="#7DDDDD" transform="translate(210.624977, 9.750020) scale(-1, -1) translate(-210.624977, -9.750020) "></path>
                <path d="M330.874957,326.687525 C331.63421,326.687525 332.249954,327.303269 332.249954,328.062521 L332.249954,329.437518 C332.249954,330.196771 331.63421,330.812515 330.874957,330.812515 L324.687472,330.812515 L324.687472,337 C324.687472,337.759253 324.071728,338.374997 323.312475,338.374997 L321.937479,338.374997 C321.178226,338.374997 320.562482,337.759253 320.562482,337 L320.562482,330.812515 L314.374997,330.812515 C313.615744,330.812515 313,330.196771 313,329.437518 L313,328.062521 C313,327.303269 313.615744,326.687525 314.374997,326.687525 L320.562482,326.687525 L320.562482,320.500039 C320.562482,319.740787 321.178226,319.125043 321.937479,319.125043 L323.312475,319.125043 C324.071728,319.125043 324.687472,319.740787 324.687472,320.500039 L324.687472,326.687525 L330.874957,326.687525 Z" id="plus-copy-4" fill="#7DDDDD" transform="translate(322.624977, 328.750020) scale(-1, -1) translate(-322.624977, -328.750020) "></path>
                <circle id="Oval-Copy-20" fill="#7DDDDD" transform="translate(357.000000, 466.000000) scale(-1, -1) translate(-357.000000, -466.000000) " cx="357" cy="466" r="5"></circle>
                <circle id="Oval-Copy-52" fill="#7DDDDD" transform="translate(276.000000, 178.000000) scale(-1, -1) translate(-276.000000, -178.000000) " cx="276" cy="178" r="5"></circle>
                <circle id="Oval-Copy-38" fill="#7BBBEF" transform="translate(353.000000, 673.000000) scale(-1, -1) translate(-353.000000, -673.000000) " cx="353" cy="673" r="5"></circle>
                <circle id="Oval-Copy-45" fill="#7BBBEF" transform="translate(118.000000, 612.000000) scale(-1, -1) translate(-118.000000, -612.000000) " cx="118" cy="612" r="5"></circle>
                <g id="Group-4" transform="translate(267.500000, 584.500000) scale(-1, -1) translate(-267.500000, -584.500000) translate(255.000000, 574.000000)">
                    <path d="M3.62254056,5.74296066 L13.8449095,5.89853835 C14.3852827,5.90676247 14.821352,6.34283181 14.8295761,6.88320498 L14.9851538,17.1055739 C14.9935582,17.6577947 14.552708,18.1122713 14.0004872,18.1206757 C13.9903427,18.1208301 13.9801965,18.1208301 13.970052,18.1206757 L3.74768309,17.965098 C3.20730993,17.9568739 2.77124058,17.5208045 2.76301646,16.9804314 L2.60743878,6.75806245 C2.59903434,6.20584165 3.03988461,5.7513651 3.59210541,5.74296066 C3.60224987,5.74280627 3.6123961,5.74280627 3.62254056,5.74296066 Z" id="Rectangle-Copy-10" fill="#7BBBEF" transform="translate(8.796296, 11.931818) rotate(45.000000) translate(-8.796296, -11.931818) "></path>
                    <path d="M11.5225165,4.38699458 L11.6628695,13.609016 L20.8848909,13.7493691 L20.7445379,4.52734763 L11.5225165,4.38699458 Z" id="Rectangle-Copy" stroke="#4275D2" stroke-width="3" transform="translate(16.203704, 9.068182) rotate(45.000000) translate(-16.203704, -9.068182) "></path>
                </g>
                <g id="Group-4" transform="translate(341.500000, 73.500000) scale(-1, -1) translate(-341.500000, -73.500000) translate(329.000000, 63.000000)">
                    <path d="M3.62254056,5.74296066 L13.8449095,5.89853835 C14.3852827,5.90676247 14.821352,6.34283181 14.8295761,6.88320498 L14.9851538,17.1055739 C14.9935582,17.6577947 14.552708,18.1122713 14.0004872,18.1206757 C13.9903427,18.1208301 13.9801965,18.1208301 13.970052,18.1206757 L3.74768309,17.965098 C3.20730993,17.9568739 2.77124058,17.5208045 2.76301646,16.9804314 L2.60743878,6.75806245 C2.59903434,6.20584165 3.03988461,5.7513651 3.59210541,5.74296066 C3.60224987,5.74280627 3.6123961,5.74280627 3.62254056,5.74296066 Z" id="Rectangle-Copy-10" fill="#7BBBEF" transform="translate(8.796296, 11.931818) rotate(45.000000) translate(-8.796296, -11.931818) "></path>
                    <path d="M11.5225165,4.38699458 L11.6628695,13.609016 L20.8848909,13.7493691 L20.7445379,4.52734763 L11.5225165,4.38699458 Z" id="Rectangle-Copy" stroke="#4275D2" stroke-width="3" transform="translate(16.203704, 9.068182) rotate(45.000000) translate(-16.203704, -9.068182) "></path>
                </g>
            </g>
        </g>
    </g>
</svg>