<?xml version="1.0" encoding="UTF-8"?>
<svg width="255px" height="706px" viewBox="0 0 255 706" version="1.1" xmlns="http://www.w3.org/2000/svg" xmlns:xlink="http://www.w3.org/1999/xlink">
    <!-- Generator: Sketch 52.1 (67048) - http://www.bohemiancoding.com/sketch -->
    <title>Group 12</title>
    <desc>Created with Sketch.</desc>
    <g id="Page-1" stroke="none" stroke-width="1" fill="none" fill-rule="evenodd">
        <g id="MENSAJE-INCLUSIVO" transform="translate(-361.000000, -220.000000)">
            <g id="Group-12" transform="translate(361.000000, 220.000000)">
                <circle id="Oval-Copy-19" stroke="#7BBBEF" stroke-width="3" cx="45.5" cy="187.5" r="6.5"></circle>
                <circle id="Oval-Copy-39" stroke="#7BBBEF" stroke-width="3" cx="15.5" cy="541.5" r="6.5"></circle>
                <circle id="Oval-Copy-42" stroke="#7BBBEF" stroke-width="3" cx="237.5" cy="23.5" r="6.5"></circle>
                <path d="M137.874957,92.6875246 C138.63421,92.6875246 139.249954,93.3032687 139.249954,94.0625213 L139.249954,95.437518 C139.249954,96.1967707 138.63421,96.8125148 137.874957,96.8125148 L131.687472,96.8125148 L131.687472,103 C131.687472,103.759253 131.071728,104.374997 130.312475,104.374997 L128.937479,104.374997 C128.178226,104.374997 127.562482,103.759253 127.562482,103 L127.562482,96.8125148 L121.374997,96.8125148 C120.615744,96.8125148 120,96.1967707 120,95.437518 L120,94.0625213 C120,93.3032687 120.615744,92.6875246 121.374997,92.6875246 L127.562482,92.6875246 L127.562482,86.5000393 C127.562482,85.7407867 128.178226,85.1250426 128.937479,85.1250426 L130.312475,85.1250426 C131.071728,85.1250426 131.687472,85.7407867 131.687472,86.5000393 L131.687472,92.6875246 L137.874957,92.6875246 Z" id="plus-copy-3" fill="#7DDDDD"></path>
                <path d="M63.8749574,425.687525 C64.63421,425.687525 65.2499541,426.303269 65.2499541,427.062521 L65.2499541,428.437518 C65.2499541,429.196771 64.63421,429.812515 63.8749574,429.812515 L57.6874721,429.812515 L57.6874721,436 C57.6874721,436.759253 57.0717281,437.374997 56.3124754,437.374997 L54.9374787,437.374997 C54.178226,437.374997 53.562482,436.759253 53.562482,436 L53.562482,429.812515 L47.3749967,429.812515 C46.6157441,429.812515 46,429.196771 46,428.437518 L46,427.062521 C46,426.303269 46.6157441,425.687525 47.3749967,425.687525 L53.562482,425.687525 L53.562482,419.500039 C53.562482,418.740787 54.178226,418.125043 54.9374787,418.125043 L56.3124754,418.125043 C57.0717281,418.125043 57.6874721,418.740787 57.6874721,419.500039 L57.6874721,425.687525 L63.8749574,425.687525 Z" id="plus-copy-4" fill="#7DDDDD"></path>
                <circle id="Oval-Copy-20" fill="#7DDDDD" cx="18" cy="328" r="5"></circle>
                <circle id="Oval-Copy-51" fill="#7DDDDD" cx="127" cy="611" r="5"></circle>
                <circle id="Oval-Copy-38" fill="#7BBBEF" cx="5" cy="58" r="5"></circle>
                <circle id="Oval-Copy-45" fill="#7BBBEF" cx="250" cy="158" r="5"></circle>
                <g id="Group-4" transform="translate(100.000000, 0.000000)">
                    <path d="M3.62254056,5.74296066 L13.8449095,5.89853835 C14.3852827,5.90676247 14.821352,6.34283181 14.8295761,6.88320498 L14.9851538,17.1055739 C14.9935582,17.6577947 14.552708,18.1122713 14.0004872,18.1206757 C13.9903427,18.1208301 13.9801965,18.1208301 13.970052,18.1206757 L3.74768309,17.965098 C3.20730993,17.9568739 2.77124058,17.5208045 2.76301646,16.9804314 L2.60743878,6.75806245 C2.59903434,6.20584165 3.03988461,5.7513651 3.59210541,5.74296066 C3.60224987,5.74280627 3.6123961,5.74280627 3.62254056,5.74296066 Z" id="Rectangle-Copy-10" fill="#7BBBEF" transform="translate(8.796296, 11.931818) rotate(45.000000) translate(-8.796296, -11.931818) "></path>
                    <path d="M11.5225165,4.38699458 L11.6628695,13.609016 L20.8848909,13.7493691 L20.7445379,4.52734763 L11.5225165,4.38699458 Z" id="Rectangle-Copy" stroke="#4275D2" stroke-width="3" transform="translate(16.203704, 9.068182) rotate(45.000000) translate(-16.203704, -9.068182) "></path>
                </g>
                <g id="Group-4" transform="translate(124.000000, 220.000000)">
                    <path d="M3.62254056,5.74296066 L13.8449095,5.89853835 C14.3852827,5.90676247 14.821352,6.34283181 14.8295761,6.88320498 L14.9851538,17.1055739 C14.9935582,17.6577947 14.552708,18.1122713 14.0004872,18.1206757 C13.9903427,18.1208301 13.9801965,18.1208301 13.970052,18.1206757 L3.74768309,17.965098 C3.20730993,17.9568739 2.77124058,17.5208045 2.76301646,16.9804314 L2.60743878,6.75806245 C2.59903434,6.20584165 3.03988461,5.7513651 3.59210541,5.74296066 C3.60224987,5.74280627 3.6123961,5.74280627 3.62254056,5.74296066 Z" id="Rectangle-Copy-10" fill="#7BBBEF" transform="translate(8.796296, 11.931818) rotate(45.000000) translate(-8.796296, -11.931818) "></path>
                    <path d="M11.5225165,4.38699458 L11.6628695,13.609016 L20.8848909,13.7493691 L20.7445379,4.52734763 L11.5225165,4.38699458 Z" id="Rectangle-Copy" stroke="#4275D2" stroke-width="3" transform="translate(16.203704, 9.068182) rotate(45.000000) translate(-16.203704, -9.068182) "></path>
                </g>
                <g id="Group-4" transform="translate(21.000000, 685.000000)">
                    <path d="M3.62254056,5.74296066 L13.8449095,5.89853835 C14.3852827,5.90676247 14.821352,6.34283181 14.8295761,6.88320498 L14.9851538,17.1055739 C14.9935582,17.6577947 14.552708,18.1122713 14.0004872,18.1206757 C13.9903427,18.1208301 13.9801965,18.1208301 13.970052,18.1206757 L3.74768309,17.965098 C3.20730993,17.9568739 2.77124058,17.5208045 2.76301646,16.9804314 L2.60743878,6.75806245 C2.59903434,6.20584165 3.03988461,5.7513651 3.59210541,5.74296066 C3.60224987,5.74280627 3.6123961,5.74280627 3.62254056,5.74296066 Z" id="Rectangle-Copy-10" fill="#7BBBEF" transform="translate(8.796296, 11.931818) rotate(45.000000) translate(-8.796296, -11.931818) "></path>
                    <path d="M11.5225165,4.38699458 L11.6628695,13.609016 L20.8848909,13.7493691 L20.7445379,4.52734763 L11.5225165,4.38699458 Z" id="Rectangle-Copy" stroke="#4275D2" stroke-width="3" transform="translate(16.203704, 9.068182) rotate(45.000000) translate(-16.203704, -9.068182) "></path>
                </g>
            </g>
        </g>
    </g>
</svg>