<?xml version="1.0" encoding="UTF-8"?>
<svg width="194px" height="134px" viewBox="0 0 194 134" version="1.1" xmlns="http://www.w3.org/2000/svg" xmlns:xlink="http://www.w3.org/1999/xlink">
    <!-- Generator: Sketch 52.1 (67048) - http://www.bohemiancoding.com/sketch -->
    <title>Group</title>
    <desc>Created with Sketch.</desc>
    <g id="Page-1" stroke="none" stroke-width="1" fill="none" fill-rule="evenodd">
        <g id="WEBINAR_PAGAR-Copy" transform="translate(-922.000000, -661.000000)">
            <g id="Group-21" transform="translate(551.000000, 443.000000)">
                <g id="Group" transform="translate(371.000000, 218.000000)">
                    <circle id="Oval-Copy-39" stroke="#7BBBEF" stroke-width="3" cx="186" cy="117" r="6"></circle>
                    <path d="M174.874957,7.68752459 C175.63421,7.68752459 176.249954,8.30326866 176.249954,9.06252131 L176.249954,10.437518 C176.249954,11.1967707 175.63421,11.8125148 174.874957,11.8125148 L168.687472,11.8125148 L168.687472,18 C168.687472,18.7592526 168.071728,19.3749967 167.312475,19.3749967 L165.937479,19.3749967 C165.178226,19.3749967 164.562482,18.7592526 164.562482,18 L164.562482,11.8125148 L158.374997,11.8125148 C157.615744,11.8125148 157,11.1967707 157,10.437518 L157,9.06252131 C157,8.30326866 157.615744,7.68752459 158.374997,7.68752459 L164.562482,7.68752459 L164.562482,1.50003934 C164.562482,0.740786694 165.178226,0.125042617 165.937479,0.125042617 L167.312475,0.125042617 C168.071728,0.125042617 168.687472,0.740786694 168.687472,1.50003934 L168.687472,7.68752459 L174.874957,7.68752459 Z" id="plus-copy-4" fill="#7DDDDD"></path>
                    <circle id="Oval-Copy-45" fill="#7BBBEF" cx="4.5" cy="129.5" r="4.5"></circle>
                    <g id="Group-4" transform="translate(95.000000, 82.000000)">
                        <path d="M3.4927663,5.18878253 L12.6432981,5.25164192 C13.1902123,5.25539894 13.6326482,5.69783488 13.6364052,6.24474901 L13.6992646,15.3952808 C13.7030584,15.9475526 13.2584292,16.3983327 12.7061575,16.4021266 C12.701578,16.402158 12.6969984,16.402158 12.6924189,16.4021266 L3.54188706,16.3392672 C2.99497293,16.3355102 2.55253699,15.8930742 2.54877997,15.3461601 L2.48592058,6.19562825 C2.48212676,5.64335653 2.92675595,5.19257635 3.47902766,5.18878253 C3.48360716,5.18875107 3.48818681,5.18875107 3.4927663,5.18878253 Z" id="Rectangle-Copy-10" fill="#7BBBEF" transform="translate(8.092593, 10.795455) rotate(45.000000) translate(-8.092593, -10.795455) "></path>
                        <path d="M10.8041822,4.10132022 L10.8601716,12.2517813 L19.0106326,12.3077707 L18.9546432,4.15730965 L10.8041822,4.10132022 Z" id="Rectangle-Copy" stroke="#4275D2" stroke-width="3" transform="translate(14.907407, 8.204545) rotate(45.000000) translate(-14.907407, -8.204545) "></path>
                    </g>
                </g>
            </g>
        </g>
    </g>
</svg>