<?xml version="1.0" encoding="UTF-8"?>
<svg width="167px" height="224px" viewBox="0 0 167 224" version="1.1" xmlns="http://www.w3.org/2000/svg" xmlns:xlink="http://www.w3.org/1999/xlink">
    <!-- Generator: Sketch 52.1 (67048) - http://www.bohemiancoding.com/sketch -->
    <title>Group 2</title>
    <desc>Created with Sketch.</desc>
    <g id="Page-1" stroke="none" stroke-width="1" fill="none" fill-rule="evenodd">
        <g id="WEBINAR_PAGAR-Copy" transform="translate(-564.000000, -457.000000)">
            <g id="Group-21" transform="translate(551.000000, 443.000000)">
                <g id="Group-2" transform="translate(13.000000, 14.000000)">
                    <circle id="Oval-Copy-19" stroke="#7BBBEF" stroke-width="3" cx="23" cy="143" r="6"></circle>
                    <circle id="Oval-Copy-42" stroke="#7BBBEF" stroke-width="3" cx="159" cy="53" r="6"></circle>
                    <path d="M61.8749574,67.6875246 C62.63421,67.6875246 63.2499541,68.3032687 63.2499541,69.0625213 L63.2499541,70.437518 C63.2499541,71.1967707 62.63421,71.8125148 61.8749574,71.8125148 L55.6874721,71.8125148 L55.6874721,78 C55.6874721,78.7592526 55.0717281,79.3749967 54.3124754,79.3749967 L52.9374787,79.3749967 C52.178226,79.3749967 51.562482,78.7592526 51.562482,78 L51.562482,71.8125148 L45.3749967,71.8125148 C44.6157441,71.8125148 44,71.1967707 44,70.437518 L44,69.0625213 C44,68.3032687 44.6157441,67.6875246 45.3749967,67.6875246 L51.562482,67.6875246 L51.562482,61.5000393 C51.562482,60.7407867 52.178226,60.1250426 52.9374787,60.1250426 L54.3124754,60.1250426 C55.0717281,60.1250426 55.6874721,60.7407867 55.6874721,61.5000393 L55.6874721,67.6875246 L61.8749574,67.6875246 Z" id="plus-copy-3" fill="#7DDDDD"></path>
                    <circle id="Oval-Copy-38" fill="#7BBBEF" cx="4.5" cy="16.5" r="4.5"></circle>
                    <g id="Group-4" transform="translate(80.000000, 0.000000)">
                        <path d="M3.4927663,5.18878253 L12.6432981,5.25164192 C13.1902123,5.25539894 13.6326482,5.69783488 13.6364052,6.24474901 L13.6992646,15.3952808 C13.7030584,15.9475526 13.2584292,16.3983327 12.7061575,16.4021266 C12.701578,16.402158 12.6969984,16.402158 12.6924189,16.4021266 L3.54188706,16.3392672 C2.99497293,16.3355102 2.55253699,15.8930742 2.54877997,15.3461601 L2.48592058,6.19562825 C2.48212676,5.64335653 2.92675595,5.19257635 3.47902766,5.18878253 C3.48360716,5.18875107 3.48818681,5.18875107 3.4927663,5.18878253 Z" id="Rectangle-Copy-10" fill="#7BBBEF" transform="translate(8.092593, 10.795455) rotate(45.000000) translate(-8.092593, -10.795455) "></path>
                        <path d="M10.8041822,4.10132022 L10.8601716,12.2517813 L19.0106326,12.3077707 L18.9546432,4.15730965 L10.8041822,4.10132022 Z" id="Rectangle-Copy" stroke="#4275D2" stroke-width="3" transform="translate(14.907407, 8.204545) rotate(45.000000) translate(-14.907407, -8.204545) "></path>
                    </g>
                    <circle id="Oval-Copy-20" fill="#7DDDDD" cx="11.5" cy="219.5" r="4.5"></circle>
                </g>
            </g>
        </g>
    </g>
</svg>