<svg width="148" height="148" viewBox="0 0 148 148" fill="none" xmlns="http://www.w3.org/2000/svg">
<path fill-rule="evenodd" clip-rule="evenodd" d="M148 57.2332V76.3871H143.226V57.2332C143.226 54.0465 141.176 51.2888 138.124 50.375L122.751 45.7628C121.362 47.5671 118.674 50.129 114.581 50.129C110.487 50.129 107.799 47.5671 106.41 45.7651L96.0853 48.8644C100.083 51.1081 102.645 55.352 102.645 60.0667V62.3291C105.681 59.2263 109.907 57.2927 114.581 57.2927C123.795 57.2927 131.29 64.7885 131.29 74.0023V81.1636C131.29 86.826 128.452 91.8321 124.129 94.8556V98.4817L139.495 103.092C144.581 104.617 148 109.212 148 114.524V136.065H119.355C118.04 136.065 116.968 137.137 116.968 138.452V148H31.0323V138.452C31.0323 137.137 29.9599 136.065 28.6452 136.065H0V114.524C0 109.212 3.41863 104.617 8.5052 103.089L23.871 98.4794V94.8533C19.5479 91.8321 16.7097 86.826 16.7097 81.1613V74C16.7097 64.7861 24.2055 57.2903 33.4194 57.2903C38.2099 57.2903 42.526 59.3289 45.574 62.568C46.2022 57.3638 48.2723 52.607 51.3797 48.6989L41.59 45.7628C40.2007 47.5671 37.5129 50.129 33.4194 50.129C29.3259 50.129 26.638 47.5671 25.2487 45.7628L9.87824 50.375C6.82444 51.2888 4.77419 54.0465 4.77419 57.2332V76.3871H0V57.2332C0 51.9217 3.41863 47.327 8.5052 45.7989L23.871 41.1891V37.563C19.5479 34.5418 16.7097 29.5357 16.7097 23.871V16.7097C16.7097 7.49581 24.2055 0 33.4194 0C42.6332 0 50.129 7.49581 50.129 16.7097V23.8733C50.129 29.5357 47.2909 34.5418 42.9677 37.5653V41.1914L55.1084 44.835C59.949 40.7019 66.2128 38.1936 73.0594 38.1936C79.9339 38.1936 86.4087 40.7077 91.4906 45.2523L105.032 41.1891V37.563C100.709 34.5418 97.871 29.5357 97.871 23.871V16.7097C97.871 7.49581 105.367 0 114.581 0C123.795 0 131.29 7.49581 131.29 16.7097V23.8733C131.29 29.5357 128.452 34.5418 124.129 37.5653V41.1914L139.495 45.8013C144.581 47.327 148 51.9217 148 57.2332ZM45.3548 16.7097C45.3548 10.1288 40.0002 4.77419 33.4194 4.77419C26.8385 4.77419 21.4839 10.1288 21.4839 16.7097H22.8826C24.399 16.7097 25.8862 16.0943 26.9574 15.0219L28.6452 13.3342L30.3329 15.0219C31.4041 16.0943 32.8913 16.7097 34.4078 16.7097H45.3548ZM21.4839 23.871V21.4839H22.8826C24.9619 21.4839 26.9481 20.8871 28.6452 19.7728C30.3422 20.8871 32.3284 21.4839 34.4078 21.4839H45.3548V23.871C45.3548 30.4518 40.0002 35.8064 33.4194 35.8064C26.8385 35.8064 21.4839 30.4518 21.4839 23.871ZM28.6452 42.3115C29.2373 43.223 30.8819 45.3548 33.4194 45.3548C35.9568 45.3548 37.6014 43.2253 38.1936 42.3092V39.8766C36.6806 40.33 35.078 40.5806 33.4194 40.5806C31.7607 40.5806 30.1581 40.33 28.6452 39.879V42.3115ZM99.0354 87.2526C100.251 90.3402 102.349 92.9802 105.032 94.8556V98.4817L89.6688 103.092C89.163 103.242 88.6711 103.438 88.1909 103.655L85.9355 103.135V98.4316C88.4869 96.3814 90.4975 93.6889 91.7319 90.6024C94.4815 90.3612 97.0597 89.1909 99.0354 87.2526ZM81.1613 101.239C78.949 102.139 76.5328 102.645 74 102.645C71.4672 102.645 69.051 102.139 66.8387 101.239V103.839L74 109.21L81.1613 103.839V101.239ZM63.9073 107.608L69.727 111.974L63.7406 115.567L62.2265 107.997L63.9073 107.608ZM78.4945 143.226L76.6377 126.516H71.3623L69.5055 143.226H78.4945ZM77.0526 121.742H70.945L69.5743 117.631L74 114.977L78.4234 117.631L77.0526 121.742ZM84.0927 107.608L78.273 111.974L84.2594 115.564L85.7735 107.995L84.0927 107.608ZM96.0095 83.5915C95.1832 84.4983 94.133 85.1336 92.9942 85.5205C93.0606 84.8713 93.0968 84.2139 93.0968 83.5484V72.1258C95.6657 73.1002 97.5772 75.3602 97.8348 78.0609C98.0306 80.1158 97.3838 82.0774 96.0095 83.5915ZM74 97.871C81.8991 97.871 88.3226 91.4475 88.3226 83.5484V71.6129H84.4599L82.5716 67.8341C78.0457 70.3145 72.9836 71.6129 67.7817 71.6129H59.6774V83.5484C59.6774 91.4475 66.1009 97.871 74 97.871ZM55.0058 85.5205C53.867 85.1336 52.8168 84.4983 51.9905 83.5915C50.6162 82.0798 49.9693 80.1158 50.1652 78.0632C50.4228 75.3626 52.3343 73.1002 54.9032 72.1281V83.5484C54.9032 84.2139 54.9394 84.8713 55.0058 85.5205ZM62.0645 98.4316C59.5107 96.3814 57.5001 93.6889 56.2681 90.6024C53.5185 90.3612 50.9403 89.1909 48.9646 87.2526C47.7489 90.3402 45.6486 92.9802 42.9677 94.8556V98.4817L58.3335 103.092C58.837 103.244 59.3266 103.438 59.8091 103.655L62.0645 103.135V98.4316ZM33.4194 62.0645C40.0002 62.0645 45.3548 67.4192 45.3548 74H43.9562C42.4397 74 40.9525 73.3846 39.8813 72.3122L38.1936 70.6245L36.5058 72.3122C35.4346 73.3846 33.9474 74 32.4309 74H21.4839C21.4839 67.4192 26.8385 62.0645 33.4194 62.0645ZM21.4839 78.7742V81.1613C21.4839 87.7421 26.8385 93.0968 33.4194 93.0968C40.0002 93.0968 45.3548 87.7421 45.3548 81.1613V78.7742H43.9562C41.8768 78.7742 39.8906 78.1774 38.1936 77.0631C36.4965 78.1774 34.5103 78.7742 32.4309 78.7742H21.4839ZM33.4194 97.871C35.078 97.871 36.6806 97.6204 38.1936 97.167V99.5995C37.6014 100.516 35.9568 102.645 33.4194 102.645C30.8819 102.645 29.2373 100.513 28.6452 99.6018V97.1693C30.1581 97.6204 31.7607 97.871 33.4194 97.871ZM19.0968 131.29H28.6452C32.593 131.29 35.8065 134.504 35.8065 138.452V143.226H47.7419V124.129H52.5161V143.226H64.7022L66.7933 124.387L65.3806 120.147L60.3861 123.143L57.5724 109.069L45.0588 111.957C39.6121 113.216 35.8065 117.997 35.8065 123.587V126.516H31.0323V123.587C31.0323 115.763 36.3578 109.066 43.9841 107.305L50.6419 105.77L41.59 103.053C40.2007 104.857 37.5129 107.419 33.4194 107.419C29.3259 107.419 26.638 104.857 25.2487 103.053L9.87824 107.665C6.82444 108.579 4.77419 111.337 4.77419 114.524V131.29H14.3226V114.581H19.0968V131.29ZM138.122 107.665C141.176 108.579 143.226 111.337 143.226 114.524V131.29H133.677V114.581H128.903V131.29H119.355C115.407 131.29 112.194 134.504 112.194 138.452V143.226H100.258V124.129H95.4839V143.226H83.2978L81.2044 124.387L82.6171 120.147L87.6116 123.143L90.4253 109.069L102.941 111.957C108.388 113.216 112.194 117.997 112.194 123.587V126.516H116.968V123.587C116.968 115.763 111.642 109.066 104.016 107.305L97.3581 105.77L106.41 103.053C107.799 104.857 110.487 107.419 114.581 107.419C118.674 107.419 121.362 104.857 122.751 103.053L138.122 107.665ZM114.581 102.645C117.118 102.645 118.763 100.516 119.355 99.6018V97.167C117.842 97.6204 116.239 97.871 114.581 97.871C112.922 97.871 111.319 97.6204 109.806 97.167V99.6018C110.392 100.506 112.039 102.645 114.581 102.645ZM114.581 93.0968C108 93.0968 102.645 87.7421 102.645 81.1613V78.7742H104.044C106.123 78.7742 108.109 78.1774 109.806 77.0631C111.504 78.1774 113.49 78.7742 115.569 78.7742H126.516V81.1613C126.516 87.7421 121.161 93.0968 114.581 93.0968ZM126.516 74C126.516 67.4192 121.161 62.0645 114.581 62.0645C108 62.0645 102.645 67.4192 102.645 74H104.044C105.56 74 107.048 73.3846 108.119 72.3122L109.806 70.6245L111.494 72.3122C112.565 73.3846 114.053 74 115.569 74H126.516ZM97.871 69.4286C95.7589 67.8295 93.1352 66.8387 90.2994 66.8387H87.4111L84.475 60.9665L82.2255 62.4655C77.9315 65.3281 72.9382 66.8387 67.7817 66.8387H57.7006C54.8648 66.8387 52.2411 67.8295 50.129 69.4286V65.8981C50.129 53.2563 60.4176 42.9677 73.0594 42.9677C79.1845 42.9677 84.9447 45.3525 89.2749 49.6826L91.8076 52.2154L92.3427 52.3949C95.6482 53.4975 97.871 56.5793 97.871 60.0644V69.4286ZM126.516 16.7097C126.516 10.1288 121.161 4.77419 114.581 4.77419C108 4.77419 102.645 10.1288 102.645 16.7097H113.592C115.109 16.7097 116.596 16.0943 117.667 15.0219L119.355 13.3342L121.043 15.0219C122.114 16.0943 123.601 16.7097 125.117 16.7097H126.516ZM102.645 23.871V21.4839H113.592C115.672 21.4839 117.658 20.8871 119.355 19.7728C121.052 20.8871 123.038 21.4839 125.117 21.4839H126.516V23.871C126.516 30.4518 121.161 35.8064 114.581 35.8064C108 35.8064 102.645 30.4518 102.645 23.871ZM109.806 42.3115C110.392 43.216 112.039 45.3548 114.581 45.3548C117.118 45.3548 118.763 43.2253 119.355 42.3092V39.8766C117.842 40.33 116.239 40.5806 114.581 40.5806C112.922 40.5806 111.319 40.33 109.806 39.8766V42.3115Z" fill="white"/>
</svg>
