<svg width="177" height="59" viewBox="0 0 177 59" fill="none" xmlns="http://www.w3.org/2000/svg">
<path fill-rule="evenodd" clip-rule="evenodd" d="M129.221 20.2501C127.726 20.2501 126.515 19.0179 126.515 17.4982C126.515 15.9786 127.726 14.7464 129.221 14.7464C130.715 14.7464 131.927 15.9786 131.927 17.4982C131.927 19.0179 130.715 20.2501 129.221 20.2501ZM129.272 14.1331H120.412C118.592 14.1331 117.103 15.6475 117.103 17.4982C117.103 19.3489 118.592 20.8631 120.412 20.8631H129.272C131.093 20.8631 132.582 19.3489 132.582 17.4982C132.582 15.6475 131.093 14.1331 129.272 14.1331Z" fill="white"/>
<path fill-rule="evenodd" clip-rule="evenodd" d="M79.7721 34.7901C80.8159 35.7715 81.7629 36.6613 82.7002 37.5425C80.7992 40.7821 74.5949 42.5457 69.4337 41.3512C64.2708 40.1564 60.3609 35.8492 59.9559 30.911C59.4451 24.6894 62.2939 19.8912 67.7525 17.7777C73.0461 15.7279 79.556 17.0729 82.7795 20.9775C81.8198 21.8674 80.8506 22.7656 79.8014 23.7379C77.5703 21.5654 74.9638 20.5632 71.8748 20.9819C69.7219 21.2738 67.8938 22.1767 66.4859 23.825C63.81 26.9591 63.8845 31.9061 66.6581 34.954C68.4216 36.8922 70.7027 37.7328 73.2871 37.705C75.8302 37.6779 78.0117 36.6895 79.7721 34.7901Z" fill="white"/>
<path fill-rule="evenodd" clip-rule="evenodd" d="M88.6559 30.1355C91.8006 30.1355 94.8706 30.1372 97.9403 30.1319C98.16 30.1315 98.3797 30.0809 98.5921 30.0546C98.6744 27.9765 96.6802 26.011 94.3496 25.8262C91.3309 25.5868 89.0563 27.2446 88.6559 30.1355ZM99.5052 35.3726C100.257 36.234 101.019 37.107 101.799 38.0011C99.4722 40.6176 96.5088 41.2556 93.2868 41.0018C89.5633 40.7085 86.499 39.1771 85.0078 35.5857C83.5659 32.1131 83.8396 28.6684 86.2116 25.6237C88.7376 22.3809 93.7365 21.3044 97.698 23.0165C101.444 24.6358 103.48 28.5186 102.859 33.0421H88.7139C89.4303 37.4357 94.5569 38.5095 99.5052 35.3726Z" fill="white"/>
<path fill-rule="evenodd" clip-rule="evenodd" d="M164.511 30.0931C164.657 27.9484 162.538 25.9356 160.071 25.8143C157.097 25.6676 154.728 27.5098 154.628 30.0931H164.511ZM168.77 33.0735H154.591C154.89 34.8803 155.908 36.0531 157.421 36.6881C160.255 37.8773 162.912 37.453 165.384 35.3272C166.159 36.2095 166.921 37.0764 167.722 37.9889C166.223 39.8081 164.271 40.6973 162.019 40.9416C158.029 41.3749 154.405 40.6293 151.841 37.2403C149.608 34.287 149.513 29.6622 151.473 26.5149C153.426 23.3776 157.289 21.7101 161.14 22.3414C166.446 23.2113 169.683 27.6864 168.77 33.0735Z" fill="white"/>
<path fill-rule="evenodd" clip-rule="evenodd" d="M123.833 26.5704C122.679 27.2285 121.588 27.8514 120.403 28.5278C119.101 26.7672 117.401 25.8388 115.149 26.0323C113.732 26.1539 112.542 26.7003 111.588 27.7138C109.552 29.8779 109.653 33.7369 111.783 35.7611C114.151 38.0119 117.325 37.6693 120.478 34.7669C121.546 35.3752 122.638 35.9967 123.721 36.6136C122.637 39.6114 118.583 41.4843 114.377 40.9678C109.5 40.3689 106.055 37.1241 105.704 32.7989C105.303 27.8457 107.761 24.0812 112.272 22.74C117.057 21.3174 121.701 22.8068 123.833 26.5704Z" fill="white"/>
<path fill-rule="evenodd" clip-rule="evenodd" d="M146.835 37.3186C147.25 38.3761 147.637 39.3612 148.061 40.4399C145.673 41.9634 143.201 42.0856 140.689 41.0601C138.455 40.148 137.619 38.2381 137.582 35.9285C137.539 33.2546 137.558 30.5797 137.545 27.9054C137.543 27.4957 137.509 27.0863 137.485 26.5847H134.601V23.1058C135.508 23.0627 136.428 23.0189 137.518 22.9674V18.8441H141.841V22.9933H146.721V26.52H141.891V28.0502C141.891 30.1137 141.89 32.1769 141.891 34.24C141.893 37.8643 143.421 38.8619 146.835 37.3186Z" fill="white"/>
<mask id="mask0" mask-type="alpha" maskUnits="userSpaceOnUse" x="0" y="0" width="177" height="59">
<path fill-rule="evenodd" clip-rule="evenodd" d="M0 58.5513H177V0H0V58.5513Z" fill="white"/>
</mask>
<g mask="url(#mask0)">
<path fill-rule="evenodd" clip-rule="evenodd" d="M172.962 41.0533H177V15.4791H172.962V41.0533Z" fill="white"/>
<path fill-rule="evenodd" clip-rule="evenodd" d="M127.198 41.0532H131.236V22.8821H127.198V41.0532Z" fill="white"/>
<path fill-rule="evenodd" clip-rule="evenodd" d="M32.5244 9.5003C32.5244 9.5003 39.1627 17.0115 42.0667 18.4086C45.8007 20.5049 50.2263 19.3869 51.056 18.269C49.1918 15.7002 43.2728 4.75272 35.9212 1.16566C31.2749 -1.10131 26.7971 0.373267 24.3983 1.91782C17.4502 6.39125 1.42217 21.281 0.408454 25.6132C-0.243267 28.3994 -1.50455 33.8606 9.49005 46.6541C20.7694 59.0487 29.482 62.007 38.0296 54.3576C47.0189 45.618 54.5133 37.4132 54.5133 37.4132C54.5133 37.4132 48.705 35.5965 43.3116 38.9503C37.9182 42.3041 30.5883 47.6138 30.5883 47.6138C30.5883 47.6138 17.1739 43.352 12.8852 27.8254C16.9664 20.5049 23.8118 13.9021 32.5244 9.5003Z" fill="#6BD0B2"/>
<path fill-rule="evenodd" clip-rule="evenodd" d="M13.3397 27.6034C15.2414 24.1992 17.7467 20.9516 20.7645 18.0118C21.1666 17.6198 21.578 17.2334 21.9984 16.8528C23.2595 15.7109 24.6001 14.6213 26.0152 13.5941C26.4868 13.2517 26.9667 12.9164 27.4546 12.588C27.6984 12.4237 27.9445 12.2614 28.1926 12.1011C29.6799 11.1386 31.2387 10.2432 32.8627 9.42427C32.8627 9.42427 32.8766 9.44003 32.9032 9.46988C32.9059 9.47289 32.9089 9.47658 32.9119 9.47994C32.9159 9.4843 32.9205 9.48933 32.9248 9.49436C32.9455 9.51716 32.9707 9.54567 33.001 9.5792C33.0043 9.58323 33.008 9.58725 33.0116 9.59161C33.0206 9.60134 33.0299 9.61173 33.0393 9.62213C33.0449 9.6285 33.0509 9.63487 33.0569 9.64158C33.3629 9.9823 34.0087 10.6953 34.8392 11.5759C35.0913 7.89972 36.1222 4.19266 37.0152 1.56479C36.8918 1.49537 36.7684 1.42796 36.6444 1.36223C36.6377 1.35888 36.6311 1.35485 36.6244 1.3515C36.4964 1.28409 36.368 1.2187 36.2393 1.15598C36.1641 1.11943 36.0893 1.08388 36.0142 1.04934C35.9895 1.03827 35.9653 1.02754 35.941 1.01647C35.8904 0.993334 35.8396 0.97053 35.789 0.948396C35.7601 0.935652 35.7311 0.923579 35.7022 0.911507C35.6563 0.89172 35.6104 0.87227 35.5645 0.853154C35.5333 0.84041 35.5023 0.828002 35.4714 0.815594C35.4275 0.79782 35.3836 0.780381 35.3397 0.763278C35.3084 0.751205 35.2768 0.739467 35.2452 0.727394C35.202 0.710962 35.1584 0.694864 35.1152 0.678767C35.0836 0.667365 35.052 0.655963 35.0201 0.644896C34.9775 0.629805 34.9343 0.614714 34.8914 0.599958C34.8598 0.589226 34.8279 0.57883 34.7963 0.568099C34.753 0.553678 34.7101 0.539928 34.6669 0.526179C34.636 0.516118 34.605 0.506393 34.5741 0.497002C34.5299 0.483253 34.486 0.470174 34.4424 0.457095C34.4121 0.448375 34.3822 0.439321 34.3523 0.430937C34.307 0.418193 34.2621 0.405449 34.2172 0.393376C34.1883 0.385328 34.1597 0.377615 34.1311 0.369901C34.0839 0.357493 34.0367 0.345755 33.9898 0.334018C33.9635 0.327311 33.9375 0.320603 33.9113 0.314232C33.8594 0.301488 33.8078 0.28975 33.7563 0.278013C33.7347 0.272982 33.7134 0.267952 33.6921 0.263257C33.6289 0.249507 33.5657 0.236093 33.5025 0.223014C33.4932 0.221337 33.4836 0.21899 33.4743 0.217313C33.3249 0.187466 33.1766 0.160637 33.0289 0.137497L33.0156 0.135485C32.9475 0.124754 32.8793 0.114693 32.8114 0.105303C32.7978 0.103291 32.7838 0.101614 32.7699 0.0996017C32.7117 0.0918884 32.6531 0.0841752 32.5949 0.077468C32.5776 0.0754558 32.5603 0.073779 32.543 0.0717669C32.4882 0.0653951 32.4333 0.0593586 32.3788 0.0543282C32.3601 0.052316 32.3418 0.0506393 32.3235 0.0489625C32.2697 0.0439321 32.2161 0.039237 32.1626 0.0348774C32.1443 0.0335359 32.1257 0.0321945 32.1074 0.0308531C32.0542 0.0268287 32.0006 0.0231398 31.9474 0.0201216C31.9294 0.0191155 31.9115 0.0181094 31.8935 0.0171033C31.8393 0.0140851 31.7854 0.0114022 31.7316 0.00939006C31.7149 0.00871934 31.6986 0.00804862 31.682 0.0073779C31.6261 0.00536575 31.5703 0.00402431 31.5144 0.00268287C31.5004 0.00234751 31.4865 0.00201216 31.4728 0.0016768C31.4133 0.000670719 31.3538 0.000335359 31.2946 0C31.2849 0 31.2749 0 31.265 0C31.1998 0 31.1343 0.000670719 31.0694 0.00201216C31.0657 0.00201216 31.0624 0.00201216 31.0588 0.00201216C30.4229 0.0140851 29.8076 0.0788094 29.2196 0.183777C15.3575 2.96659 4.13031 30.5995 8.27556 44.2597C8.80402 44.913 9.36475 45.5861 9.96472 46.2823C10.2211 46.5636 10.4759 46.8386 10.73 47.1103C9.89487 38.5868 13.3397 27.6034 13.3397 27.6034Z" fill="#227A5D"/>
<path fill-rule="evenodd" clip-rule="evenodd" d="M37.8862 53.7448C46.9536 45.1305 54.5133 37.0434 54.5133 37.0434C54.5133 37.0434 48.6545 35.2528 43.2141 38.5585C37.7738 41.8641 30.3801 47.0977 30.3801 47.0977C30.3801 47.0977 16.8489 42.8971 12.5229 27.5931C12.5229 27.5931 6.88344 34.5214 7.44195 44.2119C7.96132 44.839 8.51139 45.4847 9.09826 46.1518C20.4757 58.3686 29.2641 61.2844 37.8862 53.7448Z" fill="#4275D2"/>
<path fill-rule="evenodd" clip-rule="evenodd" d="M42.0026 18.3423C45.8016 20.4311 50.3038 19.3171 51.1483 18.2032C49.2513 15.6435 43.2297 4.73505 35.7502 1.16077C34.0415 0.344257 32.3555 0.0151581 30.7837 0C30.1206 1.95169 29.7125 5.33868 32.2943 9.46573C32.2943 9.46573 39.0478 16.9501 42.0026 18.3423Z" fill="#6EFD85"/>
<path fill-rule="evenodd" clip-rule="evenodd" d="M37.0152 14.1331C35.4904 9.61365 35.8557 4.64301 36.38 1.42911C36.1938 1.33225 36.007 1.23874 35.8192 1.15057C34.0889 0.341329 32.3818 0.0150292 30.7897 0C30.1186 1.93509 29.7054 5.29327 32.3194 9.38487C32.3194 9.38487 34.5466 11.8016 37.0152 14.1331Z" fill="#46D346"/>
<path fill-rule="evenodd" clip-rule="evenodd" d="M37.0166 43.4071C37.0159 43.4084 37.0149 43.4098 37.0139 43.4105C37.0149 43.4098 37.0159 43.4084 37.0166 43.4071Z" fill="#204892"/>
<path fill-rule="evenodd" clip-rule="evenodd" d="M30.9495 47.4592C30.9495 47.4592 30.9562 47.4498 30.9669 47.4343C30.9565 47.4491 30.9495 47.4592 30.9495 47.4592Z" fill="#204892"/>
<path fill-rule="evenodd" clip-rule="evenodd" d="M30.9505 47.4578C30.9558 47.4504 30.9605 47.4437 30.9659 47.4356C30.9605 47.4437 30.9558 47.4504 30.9505 47.4578Z" fill="#204892"/>
<path fill-rule="evenodd" clip-rule="evenodd" d="M30.9582 47.3195C30.4059 47.1421 17.1921 42.7511 12.9058 27.5931C12.9058 27.5931 10.7189 42.1356 25.1192 53.8403L30.9578 47.3195H30.9582Z" fill="#204892"/>
<path fill-rule="evenodd" clip-rule="evenodd" d="M43.3312 38.9966C37.9472 42.2725 30.6301 47.4591 30.6301 47.4591C30.6301 47.4591 30.6221 47.4568 30.6104 47.4528L24.9012 53.8404H26.3506C40.1771 39.9393 49.1086 39.0025 52.7079 39.4017C53.8597 38.1951 54.5133 37.4951 54.5133 37.4951C54.5133 37.4951 48.7152 35.7206 43.3312 38.9966Z" fill="#7BBBEF"/>
</g>
</svg>
