<svg width="263" height="87" viewBox="0 0 263 87" fill="none" xmlns="http://www.w3.org/2000/svg">
<path fill-rule="evenodd" clip-rule="evenodd" d="M192.006 30.0892C189.785 30.0892 187.985 28.2583 187.985 26.0003C187.985 23.7422 189.785 21.9113 192.006 21.9113C194.227 21.9113 196.027 23.7422 196.027 26.0003C196.027 28.2583 194.227 30.0892 192.006 30.0892ZM192.083 21H178.917C176.212 21 174 23.2503 174 26.0003C174 28.7502 176.212 31 178.917 31H192.083C194.787 31 197 28.7502 197 26.0003C197 23.2503 194.787 21 192.083 21Z" fill="white"/>
<path fill-rule="evenodd" clip-rule="evenodd" d="M118.531 51.6938C120.082 53.152 121.49 54.4742 122.882 55.7835C120.058 60.5972 110.839 63.2177 103.17 61.4428C95.4984 59.6674 89.6888 53.2675 89.087 45.9299C88.328 36.6854 92.561 29.556 100.672 26.4155C108.537 23.3697 118.21 25.3682 123 31.17C121.574 32.4922 120.134 33.8269 118.575 35.2716C115.26 32.0435 111.387 30.5545 106.797 31.1765C103.598 31.6102 100.882 32.9519 98.7898 35.4011C94.8137 40.0579 94.9244 47.4085 99.0456 51.9374C101.666 54.8173 105.055 56.0663 108.895 56.025C112.674 55.9847 115.916 54.516 118.531 51.6938Z" fill="white"/>
<path fill-rule="evenodd" clip-rule="evenodd" d="M131.732 44.7777C136.404 44.7777 140.966 44.7802 145.527 44.7722C145.854 44.7717 146.18 44.6965 146.496 44.6575C146.618 41.5697 143.655 38.6491 140.192 38.3745C135.706 38.0188 132.327 40.4822 131.732 44.7777ZM147.852 52.5593C148.97 53.8392 150.102 55.1365 151.261 56.4649C147.803 60.3527 143.4 61.3007 138.613 60.9237C133.08 60.4878 128.527 58.2124 126.311 52.8759C124.169 47.7161 124.575 42.5978 128.1 38.0737C131.853 33.2552 139.281 31.6557 145.167 34.1997C150.733 36.6057 153.758 42.3751 152.836 49.0964H131.818C132.882 55.6248 140.5 57.2204 147.852 52.5593Z" fill="white"/>
<path fill-rule="evenodd" clip-rule="evenodd" d="M244.443 44.7147C244.66 41.5279 241.511 38.5371 237.846 38.3569C233.427 38.139 229.907 40.8761 229.758 44.7147H244.443ZM250.772 49.1431H229.702C230.147 51.8278 231.66 53.5705 233.908 54.5139C238.119 56.2809 242.066 55.6505 245.741 52.4919C246.892 53.8028 248.023 55.0909 249.214 56.4468C246.986 59.1498 244.086 60.4711 240.74 60.8341C234.811 61.4779 229.426 60.3701 225.617 55.3345C222.299 50.9463 222.158 44.0744 225.07 39.3978C227.972 34.7362 233.712 32.2585 239.434 33.1965C247.319 34.4891 252.129 41.1386 250.772 49.1431Z" fill="white"/>
<path fill-rule="evenodd" clip-rule="evenodd" d="M184 39.4803C182.286 40.4582 180.664 41.3837 178.903 42.3888C176.969 39.7727 174.444 38.3933 171.096 38.6807C168.991 38.8615 167.223 39.6734 165.806 41.1793C162.78 44.3949 162.931 50.1288 166.095 53.1365C169.614 56.481 174.33 55.9719 179.016 51.6593C180.602 52.5631 182.224 53.4867 183.834 54.4033C182.224 58.8576 176.199 61.6406 169.951 60.8731C162.703 59.9831 157.585 55.1619 157.063 48.7351C156.467 41.3753 160.119 35.7817 166.822 33.7889C173.932 31.6751 180.832 33.8882 184 39.4803Z" fill="white"/>
<path fill-rule="evenodd" clip-rule="evenodd" d="M218.179 55.4508C218.796 57.0221 219.37 58.4859 220 60.0887C216.452 62.3524 212.778 62.534 209.047 61.0102C205.727 59.655 204.484 56.817 204.43 53.3852C204.366 49.4121 204.394 45.4376 204.374 41.464C204.371 40.8552 204.321 40.2469 204.286 39.5015H200V34.3323C201.348 34.2683 202.716 34.2032 204.334 34.1267V28H210.758V34.1652H218.009V39.4054H210.832V41.6791C210.832 44.7452 210.831 47.8108 210.832 50.8764C210.835 56.2617 213.105 57.744 218.179 55.4508Z" fill="white"/>
<mask id="mask0" mask-type="alpha" maskUnits="userSpaceOnUse" x="0" y="0" width="263" height="87">
<path fill-rule="evenodd" clip-rule="evenodd" d="M0 87H263V0H0V87Z" fill="white"/>
</mask>
<g mask="url(#mask0)">
<path fill-rule="evenodd" clip-rule="evenodd" d="M257 61H263V23H257V61Z" fill="white"/>
<path fill-rule="evenodd" clip-rule="evenodd" d="M189 61H195V34H189V61Z" fill="white"/>
<path fill-rule="evenodd" clip-rule="evenodd" d="M48.3273 14.1163C48.3273 14.1163 58.191 25.2769 62.5059 27.3529C68.0542 30.4677 74.63 28.8066 75.8628 27.1455C73.0929 23.3285 64.298 7.06194 53.3744 1.73202C46.4705 -1.63641 39.8172 0.554629 36.2529 2.84964C25.9288 9.4966 2.11316 31.621 0.606911 38.058C-0.361464 42.1979 -2.23558 50.3126 14.101 69.3222C30.8607 87.7391 43.8065 92.1347 56.5073 80.7687C69.8642 67.7827 81 55.5913 81 55.5913C81 55.5913 72.3696 52.8919 64.3557 57.8753C56.3417 62.8586 45.4505 70.7482 45.4505 70.7482C45.4505 70.7482 25.5182 64.4157 19.1457 41.345C25.21 30.4677 35.3814 20.6567 48.3273 14.1163Z" fill="#6BD0B2"/>
<path fill-rule="evenodd" clip-rule="evenodd" d="M19.8211 41.0153C22.6468 35.957 26.3694 31.1314 30.8535 26.7633C31.4509 26.1808 32.0622 25.6068 32.6868 25.0412C34.5607 23.3445 36.5527 21.7255 38.6554 20.1992C39.3561 19.6904 40.0692 19.1921 40.7941 18.7043C41.1564 18.4601 41.5221 18.2189 41.8907 17.9807C44.1006 16.5506 46.4168 15.2201 48.8298 14.0033C48.8298 14.0033 48.8506 14.0267 48.8901 14.0711C48.8941 14.0755 48.8985 14.081 48.903 14.086C48.9089 14.0925 48.9158 14.1 48.9222 14.1074C48.9529 14.1413 48.9904 14.1837 49.0354 14.2335C49.0403 14.2395 49.0458 14.2455 49.0512 14.2519C49.0645 14.2664 49.0784 14.2818 49.0922 14.2973C49.1006 14.3068 49.1095 14.3162 49.1184 14.3262C49.573 14.8325 50.5327 15.8919 51.7667 17.2004C52.1412 11.738 53.6732 6.22977 55 2.32508C54.8167 2.22193 54.6333 2.12177 54.449 2.0241C54.4391 2.01912 54.4292 2.01314 54.4194 2.00816C54.2291 1.908 54.0383 1.81083 53.8471 1.71765C53.7354 1.66333 53.6242 1.61051 53.5126 1.55919C53.476 1.54274 53.4399 1.5268 53.4038 1.51035C53.3287 1.47597 53.2531 1.44209 53.178 1.4092C53.135 1.39026 53.092 1.37232 53.049 1.35439C52.9808 1.32499 52.9126 1.29608 52.8444 1.26768C52.798 1.24875 52.752 1.23031 52.7061 1.21187C52.6408 1.18546 52.5756 1.15955 52.5104 1.13414C52.4639 1.1162 52.417 1.09876 52.37 1.08082C52.3058 1.0564 52.2411 1.03248 52.1768 1.00856C52.1299 0.991621 52.0829 0.974679 52.0355 0.958235C51.9722 0.935812 51.908 0.913388 51.8442 0.891463C51.7973 0.875517 51.7499 0.86007 51.7029 0.844124C51.6387 0.822697 51.5749 0.802267 51.5107 0.781836C51.4647 0.766887 51.4188 0.752436 51.3728 0.738484C51.3071 0.718054 51.2418 0.69862 51.1771 0.679186C51.1321 0.66623 51.0877 0.652776 51.0432 0.640318C50.976 0.621383 50.9093 0.602447 50.8426 0.584508C50.7996 0.572549 50.7571 0.561088 50.7146 0.549627C50.6444 0.53119 50.5742 0.51375 50.5046 0.496309C50.4655 0.486343 50.427 0.476377 50.3879 0.466909C50.3108 0.447974 50.2342 0.430533 50.1576 0.413093C50.1255 0.405618 50.0939 0.398143 50.0623 0.391167C49.9684 0.370737 49.8745 0.350805 49.7806 0.331371C49.7668 0.328879 49.7524 0.325391 49.7386 0.3229C49.5167 0.278551 49.2963 0.238687 49.0769 0.204304L49.0571 0.201314C48.9558 0.185368 48.8545 0.170419 48.7537 0.156467C48.7335 0.153477 48.7127 0.150986 48.6919 0.147996C48.6055 0.136535 48.5185 0.125074 48.432 0.115108C48.4063 0.112118 48.3806 0.109626 48.3549 0.106637C48.2734 0.0971689 48.1918 0.0881995 48.1108 0.080725C48.0831 0.0777351 48.0559 0.0752436 48.0288 0.0727521C47.9487 0.0652776 47.8691 0.0583014 47.7896 0.0518234C47.7624 0.0498302 47.7347 0.047837 47.7076 0.0458438C47.6285 0.0398642 47.5489 0.0343829 47.4699 0.0298981C47.4432 0.0284032 47.4165 0.0269083 47.3898 0.0254134C47.3093 0.0209287 47.2292 0.0169423 47.1491 0.0139525C47.1244 0.0129559 47.1002 0.0119593 47.0755 0.0109626C46.9925 0.00797283 46.9095 0.00597963 46.8265 0.00398642C46.8057 0.00348812 46.7849 0.00298981 46.7647 0.00249151C46.6762 0.000996605 46.5878 0.000498302 46.4998 0C46.4855 0 46.4707 0 46.4558 0C46.359 0 46.2616 0.000996604 46.1653 0.00298981C46.1598 0.00298981 46.1549 0.00298981 46.1494 0.00298981C45.2046 0.0209287 44.2904 0.117101 43.4167 0.27307C22.8193 4.40798 6.13713 45.4671 12.2964 65.7644C13.0817 66.7351 13.9148 67.7352 14.8063 68.7697C15.1873 69.1878 15.5659 69.5964 15.9434 70C14.7025 57.3352 19.8211 41.0153 19.8211 41.0153Z" fill="#227A5D"/>
<path fill-rule="evenodd" clip-rule="evenodd" d="M56.2941 79.8581C69.7673 67.0584 81 55.0419 81 55.0419C81 55.0419 72.2945 52.3813 64.2108 57.2931C56.1271 62.2049 45.1411 69.9814 45.1411 69.9814C45.1411 69.9814 25.0354 63.7397 18.6075 41C18.6075 41 10.2279 51.2945 11.0578 65.6934C11.8295 66.6251 12.6469 67.5846 13.5189 68.5758C30.4244 86.7285 43.4828 91.0611 56.2941 79.8581Z" fill="#4275D2"/>
<path fill-rule="evenodd" clip-rule="evenodd" d="M62.4107 27.2544C68.0555 30.3581 74.7452 28.7029 76 27.0477C73.1814 23.2443 64.2339 7.0357 53.1203 1.72476C50.5814 0.511523 48.0763 0.022523 45.7407 0C44.7555 2.89997 44.1491 7.93262 47.9853 14.0649C47.9853 14.0649 58.0201 25.1858 62.4107 27.2544Z" fill="#6EFD85"/>
<path fill-rule="evenodd" clip-rule="evenodd" d="M55 21C52.7343 14.2847 53.2772 6.89893 54.0561 2.12347C53.7796 1.97956 53.502 1.84061 53.2229 1.7096C50.6519 0.507172 48.1153 0.0223315 45.7497 0C44.7526 2.8753 44.1385 7.86514 48.0226 13.9448C48.0226 13.9448 51.332 17.5356 55 21Z" fill="#46D346"/>
<path fill-rule="evenodd" clip-rule="evenodd" d="M55.002 64.4975C55.001 64.4995 54.9995 64.5015 54.998 64.5025C54.9995 64.5015 55.001 64.4995 55.002 64.4975Z" fill="#204892"/>
<path fill-rule="evenodd" clip-rule="evenodd" d="M45.987 70.5185C45.987 70.5185 45.997 70.5045 46.013 70.4815C45.9975 70.5035 45.987 70.5185 45.987 70.5185Z" fill="#204892"/>
<path fill-rule="evenodd" clip-rule="evenodd" d="M45.9885 70.5165C45.9965 70.5055 46.0035 70.4955 46.0115 70.4835C46.0035 70.4955 45.9965 70.5055 45.9885 70.5165Z" fill="#204892"/>
<path fill-rule="evenodd" clip-rule="evenodd" d="M46 70.3109C45.1794 70.0474 25.5453 63.5228 19.1764 41C19.1764 41 15.9269 62.6082 37.324 80L45.9995 70.3109H46Z" fill="#204892"/>
<path fill-rule="evenodd" clip-rule="evenodd" d="M64.3847 57.944C56.3848 62.8117 45.5126 70.5183 45.5126 70.5183C45.5126 70.5183 45.5007 70.5148 45.4833 70.5089L37 80H39.1537C59.6982 59.3448 72.9693 57.9528 78.3173 58.546C80.0289 56.7532 81 55.713 81 55.713C81 55.713 72.3847 53.0763 64.3847 57.944Z" fill="#7BBBEF"/>
</g>
</svg>
