<?xml version="1.0" encoding="UTF-8"?>
<svg width="30px" height="30px" viewBox="0 0 30 30" version="1.1" xmlns="http://www.w3.org/2000/svg" xmlns:xlink="http://www.w3.org/1999/xlink">
    <!-- Generator: Sketch 52.1 (67048) - http://www.bohemiancoding.com/sketch -->
    <title>times-circle</title>
    <desc>Created with Sketch.</desc>
    <g id="Page-1" stroke="none" stroke-width="1" fill="none" fill-rule="evenodd">
        <g id="REGÃSTRATE_MENSAJE" transform="translate(-1080.000000, -240.000000)" fill="#568AE9">
            <path d="M1094.99996,240.218811 C1103.02729,240.218811 1109.53118,246.722702 1109.53118,254.750027 C1109.53118,262.777351 1103.02729,269.281242 1094.99996,269.281242 C1086.97264,269.281242 1080.46875,262.777351 1080.46875,254.750027 C1080.46875,246.722702 1086.97264,240.218811 1094.99996,240.218811 Z M1094.99996,266.468749 C1101.47456,266.468749 1106.71869,261.224621 1106.71869,254.750027 C1106.71869,248.275433 1101.47456,243.031305 1094.99996,243.031305 C1088.52537,243.031305 1083.28124,248.275433 1083.28124,254.750027 C1083.28124,261.224621 1088.52537,266.468749 1094.99996,266.468749 Z M1100.96478,251.105493 L1097.32025,254.750027 L1100.96478,258.394561 C1101.24018,258.669962 1101.24018,259.115251 1100.96478,259.390652 L1099.64059,260.714845 C1099.36519,260.990246 1098.9199,260.990246 1098.6445,260.714845 L1094.99996,257.070311 L1091.35543,260.714845 C1091.08003,260.990246 1090.63474,260.990246 1090.35934,260.714845 L1089.03515,259.390652 C1088.75974,259.115251 1088.75974,258.669962 1089.03515,258.394561 L1092.67968,254.750027 L1089.03515,251.105493 C1088.75974,250.830091 1088.75974,250.384803 1089.03515,250.109401 L1090.35934,248.785209 C1090.63474,248.509807 1091.08003,248.509807 1091.35543,248.785209 L1094.99996,252.429743 L1098.6445,248.785209 C1098.9199,248.509807 1099.36519,248.509807 1099.64059,248.785209 L1100.96478,250.109401 C1101.24018,250.384803 1101.24018,250.830091 1100.96478,251.105493 Z" id="times-circle"></path>
        </g>
    </g>
</svg>