<svg width="20" height="20" viewBox="0 0 20 20" fill="none" xmlns="http://www.w3.org/2000/svg">
<path fill-rule="evenodd" clip-rule="evenodd" d="M0 10C0 4.47293 4.47254 0 10 0C15.5271 0 20 4.47254 20 10C20 15.5271 15.5275 20 10 20C4.47293 20 0 15.5275 0 10ZM1.5625 10C1.5625 14.6635 5.33621 18.4375 10 18.4375C14.6635 18.4375 18.4375 14.6638 18.4375 10C18.4375 5.33652 14.6638 1.5625 10 1.5625C5.33652 1.5625 1.5625 5.33621 1.5625 10Z" fill="white"/>
<path fill-rule="evenodd" clip-rule="evenodd" d="M10 5.03418C9.56852 5.03418 9.21875 5.38395 9.21875 5.81543V10.8464C9.21875 11.2779 9.56852 11.6277 10 11.6277C10.4315 11.6277 10.7812 11.2779 10.7812 10.8464V5.81543C10.7812 5.38395 10.4315 5.03418 10 5.03418Z" fill="white"/>
<circle cx="10" cy="13.6392" r="1.05469" fill="white"/>
</svg>
