<?xml version="1.0" encoding="UTF-8"?>
<svg width="67px" height="67px" viewBox="0 0 67 67" version="1.1" xmlns="http://www.w3.org/2000/svg" xmlns:xlink="http://www.w3.org/1999/xlink">
    <!-- Generator: Sketch 52.1 (67048) - http://www.bohemiancoding.com/sketch -->
    <title>Group 4</title>
    <desc>Created with Sketch.</desc>
    <g id="Page-1" stroke="none" stroke-width="1" fill="none" fill-rule="evenodd">
        <g id="CARRITO-DE-COMPRAS-EN-COMBO" transform="translate(-583.000000, -1788.000000)" fill="#FFFFFF">
            <g id="Footer" transform="translate(0.000000, 1658.000000)">
                <g id="Group-4" transform="translate(583.000000, 130.000000)">
                    <path d="M39.1750265,35.8750194 L35.3822117,35.8750194 L35.3822117,47.2499923 L30.29547,47.2499923 L30.29547,35.8750194 L26.1623622,35.8750194 L26.1623622,31.169632 L30.29547,31.169632 L30.29547,27.5834628 C30.29547,23.5037148 32.7258231,21.2500542 36.4440531,21.2500542 C38.2249135,21.2500542 40.0875991,21.5679322 40.0875991,21.5679322 L40.0875991,25.5740872 L38.0350298,25.5740872 C36.0129094,25.5740872 35.3822117,26.8288869 35.3822117,28.1161687 L35.3822117,31.169632 L39.8971698,31.169632 L39.1750265,35.8750194 Z" id="facebook-f"></path>
                    <path d="M33.5,66.5 C15.2746033,66.5 0.5,51.7253967 0.5,33.5 C0.5,15.2746033 15.2746033,0.5 33.5,0.5 C51.7253967,0.5 66.5,15.2746033 66.5,33.5 C66.5,51.7253967 51.7253967,66.5 33.5,66.5 Z M33.5,63.5 C50.0685425,63.5 63.5,50.0685425 63.5,33.5 C63.5,16.9314575 50.0685425,3.5 33.5,3.5 C16.9314575,3.5 3.5,16.9314575 3.5,33.5 C3.5,50.0685425 16.9314575,63.5 33.5,63.5 Z" id="Oval" fill-rule="nonzero"></path>
                </g>
            </g>
        </g>
    </g>
</svg>