<?xml version="1.0" encoding="UTF-8"?>
<svg width="19px" height="19px" viewBox="0 0 19 19" version="1.1" xmlns="http://www.w3.org/2000/svg" xmlns:xlink="http://www.w3.org/1999/xlink">
    <!-- Generator: Sketch 52.1 (67048) - http://www.bohemiancoding.com/sketch -->
    <title>Group 11</title>
    <desc>Created with Sketch.</desc>
    <g id="Page-1" stroke="none" stroke-width="1" fill="none" fill-rule="evenodd">
        <g id="REGÃSTRATE_MENSAJE" transform="translate(-787.000000, -707.000000)">
            <g id="Group-11" transform="translate(788.000000, 708.000000)">
                <circle id="Oval" stroke="#568AE9" stroke-width="2" cx="8.5" cy="8.5" r="8.5"></circle>
                <path d="M7.31249925,10.6285714 L7.62499851,10.6285714 L7.62499851,8.37143571 L7.31249925,8.37143571 C7.1399075,8.37143571 7,8.23152821 7,8.05893646 L7,7.31250879 C7,7.13991704 7.1399075,7.00000954 7.31249925,7.00000954 L9.06249508,7.00000954 C9.23508683,7.00000954 9.37499434,7.13991704 9.37499434,7.31250879 L9.37499434,10.6285714 L9.68749359,10.6285714 C9.86008534,10.6285714 9.99999285,10.7684789 9.99999285,10.9410707 L9.99999285,11.6874984 C9.99999285,11.8600901 9.86008534,11.9999976 9.68749359,11.9999976 L7.31249925,11.9999976 C7.1399075,11.9999976 7,11.8600901 7,11.6874984 L7,10.9410707 C7,10.7684789 7.1399075,10.6285714 7.31249925,10.6285714 Z M8.49999642,4.00001669 C9.12130232,4.00001669 9.62499374,4.50369286 9.62499374,5.12501401 C9.62499374,5.74633516 9.12131757,6.25001132 8.49999642,6.25001132 C7.87867527,6.25001132 7.37499911,5.74633516 7.37499911,5.12501401 C7.37499911,4.50369286 7.87867527,4.00001669 8.49999642,4.00001669 Z" id="info" fill="#568AE9"></path>
            </g>
        </g>
    </g>
</svg>