<?xml version="1.0" encoding="UTF-8"?>
<svg width="69px" height="69px" viewBox="0 0 69 69" version="1.1" xmlns="http://www.w3.org/2000/svg" xmlns:xlink="http://www.w3.org/1999/xlink">
    <!-- Generator: Sketch 52.1 (67048) - http://www.bohemiancoding.com/sketch -->
    <title>Group</title>
    <desc>Created with Sketch.</desc>
    <g id="Page-1" stroke="none" stroke-width="1" fill="none" fill-rule="evenodd">
        <g id="CONTÃCTANOS-Desplegable" transform="translate(-368.000000, -867.000000)">
            <g id="Group" transform="translate(370.000000, 869.000000)">
                <path d="M32.1308052,26.0117616 C35.8573931,26.0117616 38.8632339,29.0176024 38.8632339,32.7441903 C38.8632339,36.4707211 35.8573931,39.4765618 32.1308052,39.4765618 C28.4042745,39.4765618 25.3984337,36.4707211 25.3984337,32.7441903 C25.3984337,29.0176024 28.4042745,26.0117616 32.1308052,26.0117616 Z M32.1308052,37.1210873 C34.5390369,37.1210873 36.5077593,35.1582013 36.5077593,32.7441903 C36.5077593,30.3301222 34.5448734,28.3672362 32.1308052,28.3672362 C29.7167942,28.3672362 27.7539083,30.3301222 27.7539083,32.7441903 C27.7539083,35.1582013 29.7226307,37.1210873 32.1308052,37.1210873 Z M40.7089326,25.7363602 C40.7089326,26.6094279 40.0058093,27.3066575 39.1386353,27.3066575 C38.2655676,27.3066575 37.568338,26.6035342 37.568338,25.7363602 C37.568338,24.8691862 38.2714613,24.1660629 39.1386353,24.1660629 C40.0058093,24.1660629 40.7089326,24.8691862 40.7089326,25.7363602 Z M45.1678835,27.3301179 C45.2909644,29.4980815 45.2909644,35.990242 45.1678835,38.1582056 C45.0624264,40.2617391 44.5819474,42.1250045 43.0468406,43.6601685 C41.5116765,45.201169 39.6484112,45.6816481 37.5448777,45.7812686 C35.3769141,45.9042923 28.8788598,45.9042923 26.7108962,45.7812686 C24.6074199,45.6757544 22.7499911,45.1953325 21.2089906,43.6601685 C19.66799,42.1250045 19.187511,40.2617391 19.0878904,38.1582056 C18.9648667,35.990242 18.9648667,29.492245 19.0878904,27.3242814 C19.1933475,25.2207479 19.66799,23.3574825 21.2089906,21.8223185 C22.7499911,20.2871545 24.6132564,19.8066754 26.7108962,19.7071121 C28.8788598,19.5840311 35.3769141,19.5840311 37.5448777,19.7071121 C39.6484112,19.8125691 41.5116765,20.2930482 43.0468406,21.828155 C44.5878411,23.363319 45.0683201,25.2265844 45.1678835,27.3301179 Z M42.3671203,40.4843834 C43.052677,38.7617084 42.8944628,34.6543192 42.8944628,32.7441903 C42.8944628,30.8340043 43.052677,26.7324516 42.3671203,25.0039401 C41.9042652,23.8496345 41.0194673,22.9648939 39.8710554,22.5078752 C38.1483804,21.828155 34.0409912,21.9805327 32.1308052,21.9805327 C30.2206764,21.9805327 26.1191237,21.8223185 24.3906121,22.5078752 C23.2363066,22.9707304 22.351566,23.8555282 21.8945472,25.0039401 C21.214827,26.7266151 21.3672047,30.8340043 21.3672047,32.7441903 C21.3672047,34.6543192 21.2089906,38.7558719 21.8945472,40.4843834 C22.3574024,41.6386889 23.2422003,42.5234296 24.3906121,42.9804483 C26.1132872,43.6601685 30.2206764,43.5077908 32.1308052,43.5077908 C34.0409912,43.5077908 38.1425439,43.666005 39.8710554,42.9804483 C41.025361,42.5175931 41.9101016,41.6327953 42.3671203,40.4843834 Z" id="instagram" fill="#4275D2"></path>
                <circle id="Oval-Copy" stroke="#4275D2" stroke-width="3" cx="32.5" cy="32.5" r="32.5"></circle>
            </g>
        </g>
    </g>
</svg>