<svg width="65" height="65" viewBox="0 0 65 65" fill="none" xmlns="http://www.w3.org/2000/svg">
<g id="Group" clip-path="url(#clip0)">
<path id="instagram" d="M32.125 29.0117C28.375 29.0117 25.3867 32.0586 25.3867 35.75C25.3867 39.5 28.375 42.4883 32.125 42.4883C35.8164 42.4883 38.8633 39.5 38.8633 35.75C38.8633 32.0586 35.8164 29.0117 32.125 29.0117ZM32.125 40.1445C29.7227 40.1445 27.7305 38.2109 27.7305 35.75C27.7305 33.3477 29.6641 31.4141 32.125 31.4141C34.5273 31.4141 36.4609 33.3477 36.4609 35.75C36.4609 38.2109 34.5273 40.1445 32.125 40.1445ZM40.6797 28.7773C40.6797 27.8984 39.9766 27.1953 39.0977 27.1953C38.2188 27.1953 37.5156 27.8984 37.5156 28.7773C37.5156 29.6562 38.2188 30.3594 39.0977 30.3594C39.9766 30.3594 40.6797 29.6562 40.6797 28.7773ZM45.1328 30.3594C45.0156 28.25 44.5469 26.375 43.0234 24.8516C41.5 23.3281 39.625 22.8594 37.5156 22.7422C35.3477 22.625 28.8438 22.625 26.6758 22.7422C24.5664 22.8594 22.75 23.3281 21.168 24.8516C19.6445 26.375 19.1758 28.25 19.0586 30.3594C18.9414 32.5273 18.9414 39.0312 19.0586 41.1992C19.1758 43.3086 19.6445 45.125 21.168 46.707C22.75 48.2305 24.5664 48.6992 26.6758 48.8164C28.8438 48.9336 35.3477 48.9336 37.5156 48.8164C39.625 48.6992 41.5 48.2305 43.0234 46.707C44.5469 45.125 45.0156 43.3086 45.1328 41.1992C45.25 39.0312 45.25 32.5273 45.1328 30.3594ZM42.3203 43.4844C41.9102 44.6562 40.9727 45.5352 39.8594 46.0039C38.1016 46.707 34 46.5312 32.125 46.5312C30.1914 46.5312 26.0898 46.707 24.3906 46.0039C23.2188 45.5352 22.3398 44.6562 21.8711 43.4844C21.168 41.7852 21.3438 37.6836 21.3438 35.75C21.3438 33.875 21.168 29.7734 21.8711 28.0156C22.3398 26.9023 23.2188 26.0234 24.3906 25.5547C26.0898 24.8516 30.1914 25.0273 32.125 25.0273C34 25.0273 38.1016 24.8516 39.8594 25.5547C40.9727 25.9648 41.8516 26.9023 42.3203 28.0156C43.0234 29.7734 42.8477 33.875 42.8477 35.75C42.8477 37.6836 43.0234 41.7852 42.3203 43.4844Z" fill="#4A90E2"/>
<circle id="Oval Copy" cx="32.5" cy="32.5" r="32.5" stroke="#4A90E2" stroke-width="3"/>
</g>
<defs>
<clipPath id="clip0">
<rect width="65" height="65" fill="white"/>
</clipPath>
</defs>
</svg>
