<?xml version="1.0" encoding="UTF-8"?>
<svg width="67px" height="67px" viewBox="0 0 67 67" version="1.1" xmlns="http://www.w3.org/2000/svg" xmlns:xlink="http://www.w3.org/1999/xlink">
    <!-- Generator: Sketch 52.1 (67048) - http://www.bohemiancoding.com/sketch -->
    <title>Group 5</title>
    <desc>Created with Sketch.</desc>
    <g id="Page-1" stroke="none" stroke-width="1" fill="none" fill-rule="evenodd">
        <g id="CARRITO-DE-COMPRAS-EN-COMBO" transform="translate(-680.000000, -1788.000000)" fill="#FFFFFF">
            <g id="Footer" transform="translate(0.000000, 1658.000000)">
                <g id="Group-5" transform="translate(680.000000, 130.000000)">
                    <path d="M33.1308052,27.0117616 C36.8573931,27.0117616 39.8632339,30.0176024 39.8632339,33.7441903 C39.8632339,37.4707211 36.8573931,40.4765618 33.1308052,40.4765618 C29.4042745,40.4765618 26.3984337,37.4707211 26.3984337,33.7441903 C26.3984337,30.0176024 29.4042745,27.0117616 33.1308052,27.0117616 Z M33.1308052,38.1210873 C35.5390369,38.1210873 37.5077593,36.1582013 37.5077593,33.7441903 C37.5077593,31.3301222 35.5448734,29.3672362 33.1308052,29.3672362 C30.7167942,29.3672362 28.7539083,31.3301222 28.7539083,33.7441903 C28.7539083,36.1582013 30.7226307,38.1210873 33.1308052,38.1210873 Z M41.7089326,26.7363602 C41.7089326,27.6094279 41.0058093,28.3066575 40.1386353,28.3066575 C39.2655676,28.3066575 38.568338,27.6035342 38.568338,26.7363602 C38.568338,25.8691862 39.2714613,25.1660629 40.1386353,25.1660629 C41.0058093,25.1660629 41.7089326,25.8691862 41.7089326,26.7363602 Z M46.1678835,28.3301179 C46.2909644,30.4980815 46.2909644,36.990242 46.1678835,39.1582056 C46.0624264,41.2617391 45.5819474,43.1250045 44.0468406,44.6601685 C42.5116765,46.201169 40.6484112,46.6816481 38.5448777,46.7812686 C36.3769141,46.9042923 29.8788598,46.9042923 27.7108962,46.7812686 C25.6074199,46.6757544 23.7499911,46.1953325 22.2089906,44.6601685 C20.66799,43.1250045 20.187511,41.2617391 20.0878904,39.1582056 C19.9648667,36.990242 19.9648667,30.492245 20.0878904,28.3242814 C20.1933475,26.2207479 20.66799,24.3574825 22.2089906,22.8223185 C23.7499911,21.2871545 25.6132564,20.8066754 27.7108962,20.7071121 C29.8788598,20.5840311 36.3769141,20.5840311 38.5448777,20.7071121 C40.6484112,20.8125691 42.5116765,21.2930482 44.0468406,22.828155 C45.5878411,24.363319 46.0683201,26.2265844 46.1678835,28.3301179 Z M43.3671203,41.4843834 C44.052677,39.7617084 43.8944628,35.6543192 43.8944628,33.7441903 C43.8944628,31.8340043 44.052677,27.7324516 43.3671203,26.0039401 C42.9042652,24.8496345 42.0194673,23.9648939 40.8710554,23.5078752 C39.1483804,22.828155 35.0409912,22.9805327 33.1308052,22.9805327 C31.2206764,22.9805327 27.1191237,22.8223185 25.3906121,23.5078752 C24.2363066,23.9707304 23.351566,24.8555282 22.8945472,26.0039401 C22.214827,27.7266151 22.3672047,31.8340043 22.3672047,33.7441903 C22.3672047,35.6543192 22.2089906,39.7558719 22.8945472,41.4843834 C23.3574024,42.6386889 24.2422003,43.5234296 25.3906121,43.9804483 C27.1132872,44.6601685 31.2206764,44.5077908 33.1308052,44.5077908 C35.0409912,44.5077908 39.1425439,44.666005 40.8710554,43.9804483 C42.025361,43.5175931 42.9101016,42.6327953 43.3671203,41.4843834 Z" id="instagram"></path>
                    <path d="M33.5,66.5 C15.2746033,66.5 0.5,51.7253967 0.5,33.5 C0.5,15.2746033 15.2746033,0.5 33.5,0.5 C51.7253967,0.5 66.5,15.2746033 66.5,33.5 C66.5,51.7253967 51.7253967,66.5 33.5,66.5 Z M33.5,63.5 C50.0685425,63.5 63.5,50.0685425 63.5,33.5 C63.5,16.9314575 50.0685425,3.5 33.5,3.5 C16.9314575,3.5 3.5,16.9314575 3.5,33.5 C3.5,50.0685425 16.9314575,63.5 33.5,63.5 Z" id="Oval-Copy" fill-rule="nonzero"></path>
                </g>
            </g>
        </g>
    </g>
</svg>