<svg width="53" height="53" viewBox="0 0 53 53" fill="none" xmlns="http://www.w3.org/2000/svg">
<g id="messenger">
<path id="Path" fill-rule="evenodd" clip-rule="evenodd" d="M26.5 0.00515339C12.1781 -0.27721 0.327006 11.079 0 25.3985C0.0373691 32.6877 3.2653 39.595 8.8333 44.2999V51.8959C8.8333 52.5057 9.32769 53 9.9375 53C10.1444 53 10.3472 52.9418 10.5227 52.8322L16.6773 48.9879C19.813 50.1871 23.1428 50.7986 26.5 50.7919C40.8219 51.0743 52.673 39.7181 53 25.3986C52.673 11.079 40.8219 -0.27721 26.5 0.00515339Z" fill="#2196F3"/>
<path id="Path_2" fill-rule="evenodd" clip-rule="evenodd" d="M43.7794 18.4307C43.454 18.0035 42.8573 17.8756 42.3795 18.1307L31.0046 24.2053L23.9282 18.2614C23.4942 17.897 22.847 17.9212 22.4429 18.3171L9.31803 31.1733C8.89219 31.593 8.89424 32.2713 9.32274 32.6885C9.66532 33.022 10.1906 33.0959 10.6152 32.8704L21.9901 26.7958L29.0731 32.7418C29.5071 33.1062 30.1543 33.082 30.5584 32.686L43.6833 19.8299C44.0657 19.4517 44.1067 18.8558 43.7794 18.4307Z" fill="#FAFAFA"/>
</g>
</svg>
