<?xml version="1.0" encoding="UTF-8"?>
<svg width="20px" height="21px" viewBox="0 0 20 21" version="1.1" xmlns="http://www.w3.org/2000/svg" xmlns:xlink="http://www.w3.org/1999/xlink">
    <!-- Generator: Sketch 52.1 (67048) - http://www.bohemiancoding.com/sketch -->
    <title>search</title>
    <desc>Created with Sketch.</desc>
    <g id="Page-1" stroke="none" stroke-width="1" fill="none" fill-rule="evenodd">
        <g id="TEMARIO" transform="translate(-1113.000000, -154.000000)" fill="#FFFFFF">
            <g id="Group-9">
                <g id="Group-11">
                    <g id="barra-de-navegación">
                        <path d="M1132.72652,171.792977 C1133.08979,172.160141 1133.08979,172.753897 1132.72262,173.121099 L1131.61713,174.226557 C1131.25386,174.593759 1130.6601,174.593759 1130.29294,174.226557 L1126.39841,170.332028 C1126.22262,170.156247 1126.12497,169.917981 1126.12497,169.667967 L1126.12497,169.031257 C1124.74607,170.109364 1123.01169,170.750003 1121.12498,170.750003 C1116.63669,170.750003 1113,167.113308 1113,162.625022 C1113,158.136737 1116.63669,154.500042 1121.12498,154.500042 C1125.61327,154.500042 1129.24996,158.136737 1129.24996,162.625022 C1129.24996,164.511729 1128.60932,166.246115 1127.53122,167.62501 L1128.16792,167.62501 C1128.41794,167.62501 1128.65621,167.722666 1128.83199,167.898447 L1132.72652,171.792977 Z M1121.12498,167.62501 C1123.89059,167.62501 1126.12497,165.386742 1126.12497,162.625022 C1126.12497,159.859412 1123.8867,157.625034 1121.12498,157.625034 C1118.35937,157.625034 1116.12499,159.863303 1116.12499,162.625022 C1116.12499,165.390633 1118.36326,167.62501 1121.12498,167.62501 Z" id="search"></path>
                    </g>
                </g>
            </g>
        </g>
    </g>
</svg>