<svg width="18" height="16" viewBox="0 0 18 16" fill="none" xmlns="http://www.w3.org/2000/svg">
<path d="M16.5 9.4375L17.9688 2.9375C18.0625 2.46875 17.7188 2 17.2188 2H4.96875L4.6875 0.625C4.59375 0.28125 4.28125 0 3.9375 0H0.75C0.3125 0 0 0.34375 0 0.75V1.25C0 1.6875 0.3125 2 0.75 2H2.90625L5.125 12.75C4.59375 13.0625 4.25 13.625 4.25 14.25C4.25 15.2188 5.03125 16 6 16C6.9375 16 7.75 15.2188 7.75 14.25C7.75 13.7812 7.53125 13.3438 7.21875 13H13.75C13.4375 13.3438 13.25 13.7812 13.25 14.25C13.25 15.2188 14.0312 16 15 16C15.9375 16 16.75 15.2188 16.75 14.25C16.75 13.5625 16.3438 12.9688 15.75 12.6875L15.9062 11.9375C16.0312 11.4688 15.6562 11 15.1875 11H6.8125L6.59375 10H15.75C16.0938 10 16.4062 9.78125 16.5 9.4375Z" fill="white"/>
</svg>
