<svg width="33" height="32" viewBox="0 0 33 32" fill="none" xmlns="http://www.w3.org/2000/svg">
<g id="Group 3">
<mask id="mask0" mask-type="alpha" maskUnits="userSpaceOnUse" x="0" y="0" width="33" height="31">
<path id="Clip 2" fill-rule="evenodd" clip-rule="evenodd" d="M0 0.353516H32.9168V30.5549H0V0.353516Z" fill="white"/>
</mask>
<g mask="url(#mask0)">
<path id="Fill 1" fill-rule="evenodd" clip-rule="evenodd" d="M8.20626 26.4523C8.20652 27.2207 8.82234 27.8409 9.59071 27.8464C10.3489 27.8519 10.9858 27.2252 10.9942 26.4653C11.0027 25.696 10.3558 25.0466 9.58745 25.0529C8.82458 25.0591 8.206 25.6859 8.20626 26.4523ZM26.1097 26.4505C26.109 25.6934 25.4779 25.0586 24.7197 25.0528C23.9483 25.0468 23.3091 25.6923 23.3192 26.4671C23.3293 27.234 23.9571 27.8521 24.7204 27.8467C25.4808 27.8412 26.1103 27.2086 26.1097 26.4505ZM29.843 8.59558H6.07647C6.36316 11.7871 6.64735 14.9521 6.93009 18.1001C6.99892 18.1192 7.0192 18.1305 7.03888 18.1294C9.24318 18.0035 11.4476 17.8782 13.6517 17.7493C16.4228 17.5873 19.1937 17.4221 21.9649 17.2588C23.8264 17.1491 25.6883 17.0432 27.5492 16.9232C27.6394 16.9173 27.771 16.8074 27.7991 16.7191C27.9093 16.3729 27.9861 16.0162 28.0745 15.6632C28.6617 13.3171 29.2487 10.971 29.843 8.59558ZM0 1.43536C0.279125 0.634248 0.8525 0.32049 1.6848 0.35624C2.44449 0.388896 3.20667 0.361053 3.96773 0.363803C4.87077 0.366982 5.39541 0.87367 5.4682 1.7755C5.5715 3.05691 5.69078 4.33712 5.80516 5.61768C5.8117 5.6909 5.83481 5.76257 5.85681 5.86587H6.2706C14.6532 5.86595 23.0357 5.86569 31.4182 5.86629C32.2187 5.86638 32.7549 6.23479 32.8912 6.92496C32.939 7.16679 32.9158 7.44076 32.8559 7.68293C31.9997 11.1422 31.1316 14.5985 30.2664 18.0555C30.2326 18.1905 30.201 18.326 30.1654 18.4604C29.986 19.1373 29.539 19.5212 28.8365 19.564C26.5904 19.7013 24.3437 19.8281 22.0974 19.9606C18.9524 20.1463 15.8076 20.3345 12.6626 20.5192C11.026 20.6153 9.38893 20.7064 7.75199 20.7997C7.62446 20.8069 7.49693 20.8133 7.32798 20.8223C7.36373 20.9218 7.37868 21.0024 7.41847 21.068C7.9402 21.928 8.70289 22.3492 9.71214 22.3484C14.643 22.3446 19.5739 22.3441 24.5048 22.3518C24.8874 22.3524 25.2787 22.3855 25.651 22.4698C27.614 22.9146 28.9913 24.8096 28.8035 26.777C28.6008 28.901 26.8971 30.5017 24.784 30.5537C22.7803 30.603 20.9837 29.1048 20.6601 27.1131C20.5483 26.4246 20.6207 25.7493 20.8465 25.0678H13.4681C13.8534 26.2633 13.7692 27.406 13.148 28.4891C12.7025 29.2659 12.0681 29.8398 11.2475 30.2024C9.60816 30.9267 7.71873 30.511 6.52893 29.1647C5.48857 27.9875 4.93436 25.8852 6.31288 23.9719C6.1105 23.7481 5.90923 23.5301 5.71295 23.3077C4.88847 22.3737 4.48224 21.2781 4.37714 20.0397C4.09552 16.7198 3.78598 13.4022 3.48915 10.0833C3.28874 7.84243 3.08696 5.60161 2.89807 3.35967C2.8777 3.11793 2.7946 3.0472 2.5648 3.06086C2.2764 3.07797 1.98455 3.04462 1.69718 3.06877C0.863672 3.13881 0.29193 2.80649 0 2.01432V1.43536Z" fill="white"/>
</g>
</g>
</svg>
