<svg width="53" height="53" viewBox="0 0 53 53" fill="none" xmlns="http://www.w3.org/2000/svg">
<g id="whatsapp">
<path id="Path" fill-rule="evenodd" clip-rule="evenodd" d="M0 53L5.37422 37.6451C3.31033 33.9058 2.22279 29.6843 2.22279 25.3887C2.22279 18.6071 4.86358 12.2314 9.65894 7.43625C14.4543 2.6411 20.8298 0 27.6114 0C34.3931 0 40.7686 2.64079 45.5639 7.43615C50.3591 12.2315 53 18.607 53 25.3886C53 32.1701 50.3592 38.5458 45.5639 43.341C40.7686 48.1362 34.393 50.7771 27.6114 50.7771C23.3155 50.7771 19.0943 49.6897 15.355 47.6257L0 53Z" fill="#86F28B"/>
<path id="Path_2" fill-rule="evenodd" clip-rule="evenodd" d="M0 53L15.3548 47.6923C19.0942 49.7306 23.3155 50.8047 27.6113 50.8047C34.3929 50.8047 40.7686 48.1965 45.5637 43.4606C50.3589 38.7247 53 32.4279 53 25.7302C53 19.0325 50.3592 12.7359 45.5639 8L0 53Z" fill="#66E26F"/>
<path id="Path_3" fill-rule="evenodd" clip-rule="evenodd" d="M22.3825 30.6174C28.4023 36.6372 35.2341 39.5651 37.642 37.1572L40.5485 34.2507C41.1505 33.6488 41.1505 32.6727 40.5485 32.0708L36.9154 28.4376C36.3134 27.8356 35.3374 27.8356 34.7354 28.4376L32.5555 30.6175C28.0914 28.503 24.4971 24.9085 22.3825 20.4445L24.5624 18.2646C25.1644 17.6626 25.1644 16.6866 24.5624 16.0847L20.9293 12.4515C20.3273 11.8495 19.3513 11.8495 18.7493 12.4515L15.8428 15.358C13.4348 17.7658 16.3628 24.5977 22.3825 30.6174Z" fill="white"/>
<path id="Path_4" fill-rule="evenodd" clip-rule="evenodd" d="M40.5395 31.8599L36.8317 28.0976C36.2173 27.4742 35.2213 27.4742 34.607 28.0976L32.3822 30.355C30.1044 29.2602 28.536 28.357 26.7797 26.5748L22.5742 30.8185C28.7177 37.0522 35.1159 39.6208 37.5733 37.1273L40.5395 34.2463C41.1538 33.6228 41.1538 32.4832 40.5395 31.8599Z" fill="#DCF4FF"/>
</g>
</svg>
