<?xml version="1.0" encoding="UTF-8"?>
<svg width="491px" height="1081px" viewBox="0 0 491 1081" version="1.1" xmlns="http://www.w3.org/2000/svg" xmlns:xlink="http://www.w3.org/1999/xlink">
    <!-- Generator: Sketch 52.1 (67048) - http://www.bohemiancoding.com/sketch -->
    <title>Group 8</title>
    <desc>Created with Sketch.</desc>
    <g id="Page-1" stroke="none" stroke-width="1" fill="none" fill-rule="evenodd">
        <g id="HOME" transform="translate(-10.000000, -1837.000000)">
            <g id="Group-8" transform="translate(10.000000, 1837.000000)">
                <ellipse id="Oval-Copy-19" stroke="#7BBBEF" stroke-width="3" cx="76.5" cy="156" rx="8.5" ry="8"></ellipse>
                <ellipse id="Oval-Copy-39" stroke="#7BBBEF" stroke-width="3" cx="43.5" cy="674" rx="8.5" ry="8"></ellipse>
                <ellipse id="Oval-Copy-42" stroke="#7BBBEF" stroke-width="3" cx="480.5" cy="60" rx="8.5" ry="8"></ellipse>
                <path d="M246.874957,123.687525 C247.63421,123.687525 248.249954,124.303269 248.249954,125.062521 L248.249954,126.437518 C248.249954,127.196771 247.63421,127.812515 246.874957,127.812515 L240.687472,127.812515 L240.687472,134 C240.687472,134.759253 240.071728,135.374997 239.312475,135.374997 L237.937479,135.374997 C237.178226,135.374997 236.562482,134.759253 236.562482,134 L236.562482,127.812515 L230.374997,127.812515 C229.615744,127.812515 229,127.196771 229,126.437518 L229,125.062521 C229,124.303269 229.615744,123.687525 230.374997,123.687525 L236.562482,123.687525 L236.562482,117.500039 C236.562482,116.740787 237.178226,116.125043 237.937479,116.125043 L239.312475,116.125043 C240.071728,116.125043 240.687472,116.740787 240.687472,117.500039 L240.687472,123.687525 L246.874957,123.687525 Z" id="plus-copy-3" fill="#7DDDDD"></path>
                <path d="M99.8749574,457.687525 C100.63421,457.687525 101.249954,458.303269 101.249954,459.062521 L101.249954,460.437518 C101.249954,461.196771 100.63421,461.812515 99.8749574,461.812515 L93.6874721,461.812515 L93.6874721,468 C93.6874721,468.759253 93.0717281,469.374997 92.3124754,469.374997 L90.9374787,469.374997 C90.178226,469.374997 89.562482,468.759253 89.562482,468 L89.562482,461.812515 L83.3749967,461.812515 C82.6157441,461.812515 82,461.196771 82,460.437518 L82,459.062521 C82,458.303269 82.6157441,457.687525 83.3749967,457.687525 L89.562482,457.687525 L89.562482,451.500039 C89.562482,450.740787 90.178226,450.125043 90.9374787,450.125043 L92.3124754,450.125043 C93.0717281,450.125043 93.6874721,450.740787 93.6874721,451.500039 L93.6874721,457.687525 L99.8749574,457.687525 Z" id="plus-copy-4" fill="#7DDDDD"></path>
                <circle id="Oval-Copy-20" fill="#7DDDDD" cx="32.5" cy="323.5" r="6.5"></circle>
                <circle id="Oval-Copy-40" fill="#7DDDDD" cx="31.5" cy="1074.5" r="6.5"></circle>
                <circle id="Oval-Copy-38" fill="#7BBBEF" cx="6.5" cy="73.5" r="6.5"></circle>
                <circle id="Oval-Copy-45" fill="#7BBBEF" cx="385.5" cy="129.5" r="6.5"></circle>
                <g id="Group-4" transform="translate(126.000000, 0.000000)">
                    <path d="M4.57459916,7.08949066 L17.960115,7.0704501 C18.5123992,7.06966448 18.9607508,7.51674242 18.9615364,8.06902661 C18.9615378,8.06997493 18.9615378,8.07092324 18.9615364,8.07187156 L18.9424959,21.4573874 C18.9417118,22.0085609 18.4950929,22.4551799 17.9439194,22.4559639 L4.55840354,22.4750045 C4.00611935,22.4757901 3.55776769,22.0287121 3.55698208,21.4764279 C3.55698073,21.4754796 3.55698073,21.4745313 3.55698208,21.473583 L3.57602264,8.08806717 C3.57680668,7.53689368 4.02342566,7.09027469 4.57459916,7.08949066 Z" id="Rectangle-Copy-10" fill="#7BBBEF" transform="translate(11.259259, 14.772727) rotate(45.000000) translate(-11.259259, -14.772727) "></path>
                    <path d="M14.5567934,5.04332538 L14.5391753,17.4288382 L26.9246881,17.4112201 L26.9423062,5.0257073 L14.5567934,5.04332538 Z" id="Rectangle-Copy" stroke="#4275D2" stroke-width="3" transform="translate(20.740741, 11.227273) rotate(45.000000) translate(-20.740741, -11.227273) "></path>
                </g>
                <g id="Group-4" transform="translate(186.000000, 259.000000)">
                    <path d="M4.57459916,7.08949066 L17.960115,7.0704501 C18.5123992,7.06966448 18.9607508,7.51674242 18.9615364,8.06902661 C18.9615378,8.06997493 18.9615378,8.07092324 18.9615364,8.07187156 L18.9424959,21.4573874 C18.9417118,22.0085609 18.4950929,22.4551799 17.9439194,22.4559639 L4.55840354,22.4750045 C4.00611935,22.4757901 3.55776769,22.0287121 3.55698208,21.4764279 C3.55698073,21.4754796 3.55698073,21.4745313 3.55698208,21.473583 L3.57602264,8.08806717 C3.57680668,7.53689368 4.02342566,7.09027469 4.57459916,7.08949066 Z" id="Rectangle-Copy-10" fill="#7BBBEF" transform="translate(11.259259, 14.772727) rotate(45.000000) translate(-11.259259, -14.772727) "></path>
                    <path d="M14.5567934,5.04332538 L14.5391753,17.4288382 L26.9246881,17.4112201 L26.9423062,5.0257073 L14.5567934,5.04332538 Z" id="Rectangle-Copy" stroke="#4275D2" stroke-width="3" transform="translate(20.740741, 11.227273) rotate(45.000000) translate(-20.740741, -11.227273) "></path>
                </g>
                <g id="Group-4" transform="translate(110.000000, 879.000000)">
                    <path d="M4.57459916,7.08949066 L17.960115,7.0704501 C18.5123992,7.06966448 18.9607508,7.51674242 18.9615364,8.06902661 C18.9615378,8.06997493 18.9615378,8.07092324 18.9615364,8.07187156 L18.9424959,21.4573874 C18.9417118,22.0085609 18.4950929,22.4551799 17.9439194,22.4559639 L4.55840354,22.4750045 C4.00611935,22.4757901 3.55776769,22.0287121 3.55698208,21.4764279 C3.55698073,21.4754796 3.55698073,21.4745313 3.55698208,21.473583 L3.57602264,8.08806717 C3.57680668,7.53689368 4.02342566,7.09027469 4.57459916,7.08949066 Z" id="Rectangle-Copy-10" fill="#7BBBEF" transform="translate(11.259259, 14.772727) rotate(45.000000) translate(-11.259259, -14.772727) "></path>
                    <path d="M14.5567934,5.04332538 L14.5391753,17.4288382 L26.9246881,17.4112201 L26.9423062,5.0257073 L14.5567934,5.04332538 Z" id="Rectangle-Copy" stroke="#4275D2" stroke-width="3" transform="translate(20.740741, 11.227273) rotate(45.000000) translate(-20.740741, -11.227273) "></path>
                </g>
            </g>
        </g>
    </g>
</svg>