<svg width="250" height="352" viewBox="0 0 250 352" fill="none" xmlns="http://www.w3.org/2000/svg">
<g clip-path="url(#clip0)">
<ellipse cx="8.5" cy="248" rx="8.5" ry="8" stroke="#7DDDDD" stroke-width="3"/>
<ellipse cx="46.5" cy="124" rx="8.5" ry="8" stroke="#7BBBEF" stroke-width="3"/>
<path d="M232.125 326.688H238.312V320.5C238.312 319.77 238.957 319.125 239.688 319.125H241.062C241.836 319.125 242.438 319.77 242.438 320.5V326.688H248.625C249.398 326.688 250 327.332 250 328.062V329.438C250 330.211 249.398 330.812 248.625 330.812H242.438V337C242.438 337.773 241.836 338.375 241.062 338.375H239.688C238.957 338.375 238.312 337.773 238.312 337V330.812H232.125C231.395 330.812 230.75 330.211 230.75 329.438V328.062C230.75 327.332 231.395 326.688 232.125 326.688Z" fill="#7DDDDD"/>
<path d="M94.875 188.688H88.6875V182.5C88.6875 181.77 88.043 181.125 87.3125 181.125H85.9375C85.1641 181.125 84.5625 181.77 84.5625 182.5V188.688H78.375C77.6016 188.688 77 189.332 77 190.062V191.438C77 192.211 77.6016 192.812 78.375 192.812H84.5625V199C84.5625 199.773 85.1641 200.375 85.9375 200.375H87.3125C88.043 200.375 88.6875 199.773 88.6875 199V192.812H94.875C95.6055 192.812 96.25 192.211 96.25 191.438V190.062C96.25 189.332 95.6055 188.688 94.875 188.688Z" fill="#7DDDDD"/>
<circle cx="98.5" cy="303.5" r="6.5" fill="#7DDDDD"/>
<circle cx="61.5" cy="6.5" r="6.5" fill="#7BBBEF"/>
<circle cx="156.5" cy="96.5" r="6.5" fill="#7DDDDD"/>
<path fill-rule="evenodd" clip-rule="evenodd" d="M167.554 226.613C167.944 226.224 168.576 226.224 168.966 226.613L178.444 236.065C178.836 236.455 178.836 237.09 178.444 237.481L168.966 246.932C168.576 247.321 167.944 247.321 167.554 246.932L158.075 237.481C157.683 237.09 157.683 236.455 158.075 236.065L167.554 226.613Z" fill="#7BBBEF"/>
<path d="M168.97 233.227L177.74 224.482L186.511 233.227L177.74 241.973L168.97 233.227Z" stroke="#4275D2" stroke-width="3"/>
</g>
<defs>
<clipPath id="clip0">
<rect width="250" height="352" fill="white"/>
</clipPath>
</defs>
</svg>
