<?xml version="1.0" encoding="UTF-8"?>
<svg width="736px" height="776px" viewBox="0 0 736 776" version="1.1" xmlns="http://www.w3.org/2000/svg" xmlns:xlink="http://www.w3.org/1999/xlink">
    <!-- Generator: Sketch 52.1 (67048) - http://www.bohemiancoding.com/sketch -->
    <title>Group 8 Copy 2</title>
    <desc>Created with Sketch.</desc>
    <g id="Page-1" stroke="none" stroke-width="1" fill="none" fill-rule="evenodd">
        <g id="CONTRASEÑA_CAMBIADA" transform="translate(-933.000000, -214.000000)">
            <g id="Group-8-Copy-2" transform="translate(1301.000000, 602.000000) scale(-1, -1) translate(-1301.000000, -602.000000) translate(933.000000, 214.000000)">
                <ellipse id="Oval-Copy-19" stroke="#7BBBEF" stroke-width="3" cx="76.5" cy="188" rx="8.5" ry="8"></ellipse>
                <ellipse id="Oval-Copy-39" stroke="#7BBBEF" stroke-width="3" cx="67.5" cy="522" rx="8.5" ry="8"></ellipse>
                <ellipse id="Oval-Copy-42" stroke="#7BBBEF" stroke-width="3" cx="535.5" cy="74" rx="8.5" ry="8"></ellipse>
                <path d="M246.874957,155.687525 C247.63421,155.687525 248.249954,156.303269 248.249954,157.062521 L248.249954,158.437518 C248.249954,159.196771 247.63421,159.812515 246.874957,159.812515 L240.687472,159.812515 L240.687472,166 C240.687472,166.759253 240.071728,167.374997 239.312475,167.374997 L237.937479,167.374997 C237.178226,167.374997 236.562482,166.759253 236.562482,166 L236.562482,159.812515 L230.374997,159.812515 C229.615744,159.812515 229,159.196771 229,158.437518 L229,157.062521 C229,156.303269 229.615744,155.687525 230.374997,155.687525 L236.562482,155.687525 L236.562482,149.500039 C236.562482,148.740787 237.178226,148.125043 237.937479,148.125043 L239.312475,148.125043 C240.071728,148.125043 240.687472,148.740787 240.687472,149.500039 L240.687472,155.687525 L246.874957,155.687525 Z" id="plus-copy-3" fill="#7DDDDD"></path>
                <path d="M158.874957,638.687525 C159.63421,638.687525 160.249954,639.303269 160.249954,640.062521 L160.249954,641.437518 C160.249954,642.196771 159.63421,642.812515 158.874957,642.812515 L152.687472,642.812515 L152.687472,649 C152.687472,649.759253 152.071728,650.374997 151.312475,650.374997 L149.937479,650.374997 C149.178226,650.374997 148.562482,649.759253 148.562482,649 L148.562482,642.812515 L142.374997,642.812515 C141.615744,642.812515 141,642.196771 141,641.437518 L141,640.062521 C141,639.303269 141.615744,638.687525 142.374997,638.687525 L148.562482,638.687525 L148.562482,632.500039 C148.562482,631.740787 149.178226,631.125043 149.937479,631.125043 L151.312475,631.125043 C152.071728,631.125043 152.687472,631.740787 152.687472,632.500039 L152.687472,638.687525 L158.874957,638.687525 Z" id="plus-copy-4" fill="#7DDDDD"></path>
                <circle id="Oval-Copy-20" fill="#7DDDDD" cx="32.5" cy="355.5" r="6.5"></circle>
                <circle id="Oval-Copy-40" fill="#7DDDDD" cx="729.5" cy="26.5" r="6.5"></circle>
                <circle id="Oval-Copy-38" fill="#7BBBEF" cx="6.5" cy="105.5" r="6.5"></circle>
                <circle id="Oval-Copy-45" fill="#7BBBEF" cx="352.5" cy="88.5" r="6.5"></circle>
                <circle id="Oval-Copy-50" fill="#7BBBEF" cx="62.5" cy="747.5" r="6.5"></circle>
                <g id="Group-4" transform="translate(118.000000, 0.000000)">
                    <path d="M4.57459916,7.08949066 L17.960115,7.0704501 C18.5123992,7.06966448 18.9607508,7.51674242 18.9615364,8.06902661 C18.9615378,8.06997493 18.9615378,8.07092324 18.9615364,8.07187156 L18.9424959,21.4573874 C18.9417118,22.0085609 18.4950929,22.4551799 17.9439194,22.4559639 L4.55840354,22.4750045 C4.00611935,22.4757901 3.55776769,22.0287121 3.55698208,21.4764279 C3.55698073,21.4754796 3.55698073,21.4745313 3.55698208,21.473583 L3.57602264,8.08806717 C3.57680668,7.53689368 4.02342566,7.09027469 4.57459916,7.08949066 Z" id="Rectangle-Copy-10" fill="#7BBBEF" transform="translate(11.259259, 14.772727) rotate(45.000000) translate(-11.259259, -14.772727) "></path>
                    <path d="M14.5567934,5.04332538 L14.5391753,17.4288382 L26.9246881,17.4112201 L26.9423062,5.0257073 L14.5567934,5.04332538 Z" id="Rectangle-Copy" stroke="#4275D2" stroke-width="3" transform="translate(20.740741, 11.227273) rotate(45.000000) translate(-20.740741, -11.227273) "></path>
                </g>
                <g id="Group-4" transform="translate(186.000000, 291.000000)">
                    <path d="M4.57459916,7.08949066 L17.960115,7.0704501 C18.5123992,7.06966448 18.9607508,7.51674242 18.9615364,8.06902661 C18.9615378,8.06997493 18.9615378,8.07092324 18.9615364,8.07187156 L18.9424959,21.4573874 C18.9417118,22.0085609 18.4950929,22.4551799 17.9439194,22.4559639 L4.55840354,22.4750045 C4.00611935,22.4757901 3.55776769,22.0287121 3.55698208,21.4764279 C3.55698073,21.4754796 3.55698073,21.4745313 3.55698208,21.473583 L3.57602264,8.08806717 C3.57680668,7.53689368 4.02342566,7.09027469 4.57459916,7.08949066 Z" id="Rectangle-Copy-10" fill="#7BBBEF" transform="translate(11.259259, 14.772727) rotate(45.000000) translate(-11.259259, -14.772727) "></path>
                    <path d="M14.5567934,5.04332538 L14.5391753,17.4288382 L26.9246881,17.4112201 L26.9423062,5.0257073 L14.5567934,5.04332538 Z" id="Rectangle-Copy" stroke="#4275D2" stroke-width="3" transform="translate(20.740741, 11.227273) rotate(45.000000) translate(-20.740741, -11.227273) "></path>
                </g>
                <g id="Group-4" transform="translate(287.000000, 750.000000)">
                    <path d="M4.57459916,7.08949066 L17.960115,7.0704501 C18.5123992,7.06966448 18.9607508,7.51674242 18.9615364,8.06902661 C18.9615378,8.06997493 18.9615378,8.07092324 18.9615364,8.07187156 L18.9424959,21.4573874 C18.9417118,22.0085609 18.4950929,22.4551799 17.9439194,22.4559639 L4.55840354,22.4750045 C4.00611935,22.4757901 3.55776769,22.0287121 3.55698208,21.4764279 C3.55698073,21.4754796 3.55698073,21.4745313 3.55698208,21.473583 L3.57602264,8.08806717 C3.57680668,7.53689368 4.02342566,7.09027469 4.57459916,7.08949066 Z" id="Rectangle-Copy-10" fill="#7BBBEF" transform="translate(11.259259, 14.772727) rotate(45.000000) translate(-11.259259, -14.772727) "></path>
                    <path d="M14.5567934,5.04332538 L14.5391753,17.4288382 L26.9246881,17.4112201 L26.9423062,5.0257073 L14.5567934,5.04332538 Z" id="Rectangle-Copy" stroke="#4275D2" stroke-width="3" transform="translate(20.740741, 11.227273) rotate(45.000000) translate(-20.740741, -11.227273) "></path>
                </g>
            </g>
        </g>
    </g>
</svg>