<svg width="23" height="19" viewBox="0 0 23 19" fill="none" xmlns="http://www.w3.org/2000/svg">
<path fill-rule="evenodd" clip-rule="evenodd" d="M19.8015 1.3257C22.89 3.9261 22.4306 8.15891 20.2363 10.4024L13.0421 17.7319C12.632 18.1503 12.0865 18.3799 11.5 18.3799C10.9175 18.3799 10.368 18.1462 9.9578 17.7278L2.76366 10.3983C0.565246 8.15478 0.114076 3.92197 3.19841 1.3257C5.56914 -0.671763 9.23181 -0.368232 11.5 1.94093C13.7681 -0.368232 17.4308 -0.667637 19.8015 1.3257ZM18.8335 9.01611C20.3183 7.50266 20.63 4.59873 18.5341 2.83098C16.9468 1.49389 14.4859 1.68663 12.9355 3.26573L11.5 4.72999L10.0644 3.26573C8.52225 1.69484 6.06132 1.49389 4.46581 2.83506C2.3658 4.60286 2.66933 7.49032 4.1664 9.01611L11.3605 16.3456C11.4589 16.444 11.541 16.444 11.6394 16.3456L18.8335 9.01611Z" fill="#7BBBEF"/>
<path d="M19.8015 1.3257L19.9625 1.13446L19.9624 1.13435L19.8015 1.3257ZM20.2363 10.4024L20.4147 10.5775L20.415 10.5772L20.2363 10.4024ZM13.0421 17.7319L12.8637 17.5568L12.8636 17.5569L13.0421 17.7319ZM9.9578 17.7278L10.1363 17.5528L10.1362 17.5527L9.9578 17.7278ZM2.76366 10.3983L2.5851 10.5733L2.58525 10.5735L2.76366 10.3983ZM3.19841 1.3257L3.35941 1.51696L3.35949 1.51689L3.19841 1.3257ZM11.5 1.94093L11.3216 2.11612L11.5 2.2977L11.6783 2.11612L11.5 1.94093ZM18.8335 9.01611L19.0119 9.19123L19.012 9.19118L18.8335 9.01611ZM18.5341 2.83098L18.6953 2.63988L18.6952 2.63977L18.5341 2.83098ZM12.9355 3.26573L12.7571 3.09058L12.757 3.09071L12.9355 3.26573ZM11.5 4.72999L11.3214 4.905L11.5 5.08709L11.6785 4.905L11.5 4.72999ZM10.0644 3.26573L10.2429 3.09071L10.2428 3.09059L10.0644 3.26573ZM4.46581 2.83506L4.30494 2.64369L4.3048 2.64381L4.46581 2.83506ZM4.1664 9.01611L3.98795 9.1912L3.98798 9.19123L4.1664 9.01611ZM11.3605 16.3456L11.1821 16.5207L11.1837 16.5224L11.3605 16.3456ZM11.6394 16.3456L11.8162 16.5224L11.8179 16.5207L11.6394 16.3456ZM19.6405 1.51694C22.5994 4.00823 22.1678 8.07007 20.0575 10.2276L20.415 10.5772C22.6934 8.24775 23.1806 3.84397 19.9625 1.13446L19.6405 1.51694ZM20.0578 10.2273L12.8637 17.5568L13.2205 17.907L20.4147 10.5775L20.0578 10.2273ZM12.8636 17.5569C12.5004 17.9274 12.0192 18.1299 11.5 18.1299V18.6299C12.1538 18.6299 12.7636 18.3732 13.2207 17.9069L12.8636 17.5569ZM11.5 18.1299C10.9858 18.1299 10.5002 17.924 10.1363 17.5528L9.77928 17.9028C10.2357 18.3684 10.8493 18.6299 11.5 18.6299V18.1299ZM10.1362 17.5527L2.94208 10.2232L2.58525 10.5735L9.77938 17.9029L10.1362 17.5527ZM2.94223 10.2234C0.828399 8.06614 0.404403 4.00437 3.35941 1.51696L3.03741 1.13444C-0.176252 3.83958 0.302094 8.24343 2.5851 10.5733L2.94223 10.2234ZM3.35949 1.51689C5.62018 -0.387865 9.13548 -0.109544 11.3216 2.11612L11.6783 1.76575C9.32815 -0.62692 5.51809 -0.955661 3.03733 1.13451L3.35949 1.51689ZM11.6783 2.11612C13.8642 -0.109325 17.3797 -0.383996 19.6406 1.51705L19.9624 1.13435C17.4819 -0.951279 13.672 -0.627139 11.3216 1.76575L11.6783 2.11612ZM19.012 9.19118C20.5816 7.59124 20.9201 4.51639 18.6953 2.63988L18.3729 3.02208C20.3399 4.68107 20.055 7.41408 18.6551 8.84103L19.012 9.19118ZM18.6952 2.63977C16.9975 1.20972 14.3892 1.42825 12.7571 3.09058L13.1139 3.44087C14.5826 1.945 16.8961 1.77805 18.3731 3.02218L18.6952 2.63977ZM12.757 3.09071L11.3214 4.55497L11.6785 4.905L13.114 3.44074L12.757 3.09071ZM11.6785 4.55497L10.2429 3.09071L9.8859 3.44074L11.3214 4.905L11.6785 4.55497ZM10.2428 3.09059C8.619 1.43652 6.01082 1.20975 4.30494 2.64369L4.62667 3.02643C6.11182 1.77803 8.42551 1.95316 9.88602 3.44086L10.2428 3.09059ZM4.3048 2.64381C2.07582 4.52018 2.4058 7.57869 3.98795 9.1912L4.34485 8.84102C2.93287 7.40195 2.65579 4.68553 4.62681 3.02632L4.3048 2.64381ZM3.98798 9.19123L11.1821 16.5207L11.5389 16.1705L4.34482 8.84099L3.98798 9.19123ZM11.1837 16.5224C11.2521 16.5908 11.3576 16.6694 11.5 16.6694C11.6423 16.6694 11.7478 16.5908 11.8162 16.5224L11.4627 16.1688C11.4494 16.1821 11.4453 16.1831 11.4505 16.1804C11.4574 16.1767 11.4749 16.1694 11.5 16.1694C11.525 16.1694 11.5425 16.1767 11.5494 16.1804C11.5546 16.1831 11.5506 16.1821 11.5373 16.1688L11.1837 16.5224ZM11.8179 16.5207L19.0119 9.19123L18.6551 8.84099L11.461 16.1705L11.8179 16.5207Z" fill="#7BBBEF"/>
</svg>
