<svg width="19" height="23" viewBox="0 0 19 23" fill="none" xmlns="http://www.w3.org/2000/svg">
<mask id="mask0" mask-type="alpha" maskUnits="userSpaceOnUse" x="0" y="0" width="19" height="22">
<path fill-rule="evenodd" clip-rule="evenodd" d="M0 0H19V21.9231H0V0Z" fill="white"/>
</mask>
<g mask="url(#mask0)">
<path fill-rule="evenodd" clip-rule="evenodd" d="M16.973 17.814C16.9718 16.6797 16.0579 15.7581 14.9331 15.7567C13.8089 15.7552 12.8901 16.6769 12.888 17.8086C12.8858 18.9644 13.8073 19.8937 14.9467 19.885C16.0705 19.8764 16.9742 18.9528 16.973 17.814ZM2.03068 10.9488C2.02977 12.0879 2.93397 13.0104 4.05877 13.0179C5.18356 13.0254 6.11119 12.1053 6.11543 10.9776C6.11996 9.81764 5.2076 8.887 4.06844 8.88961C2.94349 8.89205 2.03144 9.81382 2.03068 10.9488ZM12.888 4.09062C12.8887 5.22611 13.8002 6.14787 14.925 6.15078C16.0493 6.15369 16.9703 5.23223 16.973 4.10163C16.9757 2.94503 16.0564 2.01531 14.9169 2.0225C13.792 2.02954 12.8873 2.95161 12.888 4.09062ZM6.89972 13.947C4.93907 15.6418 2.46509 15.231 1.15325 13.8062C-0.370571 12.1512 -0.38297 9.81902 1.10819 8.14791C2.38268 6.7196 4.88554 6.22314 6.9035 7.95851C8.01106 7.25766 9.10939 6.523 10.248 5.85872C10.816 5.52735 11.0324 5.22687 10.914 4.48594C10.5694 2.3297 12.2602 0.270613 14.4396 0.0273594C16.9753 -0.255519 19.0711 1.6899 18.9937 4.25493C18.9231 6.5946 16.8012 8.44471 14.5212 8.15479C13.5183 8.0272 13.2339 7.90236 12.0949 7.08494C10.7731 7.92118 9.44189 8.75865 8.12083 9.61202C8.04311 9.6622 7.99684 9.85329 8.02104 9.95855C8.17557 10.6283 8.17269 11.2897 8.02028 11.96C7.99594 12.0672 8.07154 12.2632 8.16196 12.3216C9.46276 13.1626 10.774 13.9871 11.9889 14.7562C12.6807 14.4312 13.2835 14.0402 13.9426 13.8581C16.1465 13.2492 18.3697 14.6492 18.8948 16.909C19.4043 19.1018 18.0125 21.3691 15.8122 21.828C12.7404 22.4685 10.3434 19.7673 10.9727 16.9187C11.0342 16.6407 10.9713 16.5123 10.7463 16.3725C9.46351 15.574 8.18902 14.762 6.89972 13.947Z" fill="#7BBBEF"/>
</g>
</svg>
