<svg width="25" height="23" viewBox="0 0 25 23" fill="none" xmlns="http://www.w3.org/2000/svg">
<mask id="mask0" mask-type="alpha" maskUnits="userSpaceOnUse" x="0" y="0" width="25" height="23">
<path fill-rule="evenodd" clip-rule="evenodd" d="M0 0H25V22.6744H0V0Z" fill="white"/>
</mask>
<g mask="url(#mask0)">
<path fill-rule="evenodd" clip-rule="evenodd" d="M6.23257 19.5943C6.23277 20.1712 6.70048 20.6368 7.28405 20.641C7.85991 20.6451 8.34362 20.1746 8.34995 19.604C8.35641 19.0265 7.86514 18.5389 7.28157 18.5436C6.70218 18.5483 6.23238 19.0189 6.23257 19.5943ZM19.8301 19.5929C19.8295 19.0245 19.3502 18.548 18.7743 18.5436C18.1885 18.5391 17.703 19.0237 17.7107 19.6054C17.7184 20.1811 18.1952 20.6452 18.7749 20.6412C19.3524 20.637 19.8305 20.1621 19.8301 19.5929ZM22.6655 6.18793H4.61502C4.83275 8.58406 5.0486 10.9603 5.26333 13.3237C5.31561 13.338 5.33101 13.3465 5.34596 13.3457C7.0201 13.2512 8.69431 13.1571 10.3683 13.0603C12.473 12.9387 14.5774 12.8146 16.6821 12.692C18.0959 12.6097 19.51 12.5301 20.9233 12.4401C20.9918 12.4357 21.0918 12.3532 21.1132 12.2868C21.1969 12.027 21.2552 11.7591 21.3223 11.4941C21.7683 9.7327 22.2141 7.97132 22.6655 6.18793ZM0 0.812218C0.211993 0.210766 0.647465 -0.0247948 1.27959 0.00204541C1.85657 0.0265629 2.43544 0.0056585 3.01345 0.00772313C3.6993 0.0101104 4.09776 0.390518 4.15305 1.06759C4.2315 2.02964 4.32209 2.99079 4.40896 3.9522C4.41392 4.00717 4.43148 4.06098 4.44819 4.13853H4.76246C11.129 4.13859 17.4954 4.1384 23.8618 4.13885C24.4697 4.13891 24.877 4.41551 24.9805 4.93367C25.0168 5.11523 24.9992 5.32091 24.9537 5.50273C24.3034 8.09984 23.6442 10.6948 22.987 13.2902C22.9614 13.3915 22.9374 13.4933 22.9103 13.5942C22.7741 14.1024 22.4345 14.3906 21.901 14.4228C20.1952 14.5258 18.4888 14.621 16.7827 14.7205C14.3942 14.8599 12.0057 15.0012 9.61714 15.1398C8.3741 15.212 7.1308 15.2804 5.88756 15.3504C5.7907 15.3558 5.69384 15.3607 5.56553 15.3675C5.59268 15.4421 5.60403 15.5026 5.63425 15.5519C6.0305 16.1976 6.60976 16.5138 7.37627 16.5132C11.1212 16.5104 14.8662 16.51 18.6112 16.5157C18.9017 16.5162 19.1989 16.5411 19.4817 16.6044C20.9726 16.9383 22.0186 18.361 21.876 19.838C21.722 21.4327 20.4281 22.6345 18.8232 22.6735C17.3014 22.7105 15.9369 21.5857 15.6912 20.0904C15.6062 19.5735 15.6612 19.0665 15.8327 18.5549H10.2289C10.5215 19.4524 10.4575 20.3103 9.98578 21.1234C9.64743 21.7066 9.16562 22.1376 8.54236 22.4098C7.2973 22.9535 5.8623 22.6415 4.95866 21.6307C4.16851 20.7468 3.7476 19.1685 4.79457 17.732C4.64086 17.564 4.488 17.4004 4.33893 17.2334C3.71274 16.5322 3.40422 15.7096 3.32439 14.7799C3.11051 12.2874 2.87541 9.79658 2.64997 7.30489C2.49777 5.62248 2.34452 3.94013 2.20106 2.25694C2.18559 2.07545 2.12247 2.02235 1.94794 2.03261C1.7289 2.04545 1.50725 2.02041 1.28899 2.03854C0.65595 2.09113 0.221718 1.84163 0 1.24689V0.812218Z" fill="#7BBBEF"/>
</g>
</svg>
