<?xml version="1.0" encoding="UTF-8"?>
<svg width="20px" height="23px" viewBox="0 0 20 23" version="1.1" xmlns="http://www.w3.org/2000/svg" xmlns:xlink="http://www.w3.org/1999/xlink">
    <!-- Generator: Sketch 52.1 (67048) - http://www.bohemiancoding.com/sketch -->
    <title>Group 10</title>
    <desc>Created with Sketch.</desc>
    <defs>
        <polygon id="path-1" points="0.000133997039 0.228368158 19.7900526 0.228368158 19.7900526 22.8335783 0.000133997039 22.8335783"></polygon>
    </defs>
    <g id="Page-1" stroke="none" stroke-width="1" fill="none" fill-rule="evenodd">
        <g id="WEBINAR_PAGAR" transform="translate(-1408.000000, -476.000000)">
            <g id="Group-10" transform="translate(1408.000000, 476.000000)">
                <g id="Group-3" transform="translate(0.000000, 0.009490)">
                    <mask id="mask-2" fill="white">
                        <use xlink:href="#path-1"></use>
                    </mask>
                    <g id="Clip-2"></g>
                    <path d="M13.3703207,3.01983587 C13.4725961,2.07890216 13.1139186,1.63864223 12.231496,1.63293384 C10.6609739,1.6227063 9.09045186,1.6212792 7.5199298,1.63412309 C6.65582158,1.64125858 6.27431054,2.14906785 6.45150862,3.01983587 L13.3703207,3.01983587 Z M3.53547039,4.50877545 L3.53547039,5.18331741 C3.53547039,10.1058563 3.53451899,15.0281574 3.53594609,19.9506963 C3.53642179,21.1427994 3.83872885,21.4355925 5.05342765,21.4355925 C8.28128693,21.4358303 11.5091462,21.4358303 14.7367676,21.4355925 C15.9707323,21.4355925 16.2540113,21.1480321 16.2542492,19.8898068 C16.2549627,15.0077023 16.254487,10.1255979 16.254487,5.2434934 L16.254487,4.50877545 L3.53547039,4.50877545 Z M2.12644833,4.47547648 C1.64385114,4.47547648 1.24236072,4.48641757 0.841583855,4.47262229 C0.311892408,4.45478355 -0.044168703,4.1467681 0.00459050063,3.72601185 C0.0600094979,3.24626885 0.369452054,3.04504794 0.844913752,3.04813999 C1.99515526,3.05527548 3.14515891,3.05028064 4.29540042,3.05028064 L4.88431646,3.05028064 C4.93783266,2.69112748 4.96090409,2.39048537 5.02964267,2.10078434 C5.29651012,0.977182011 6.17274868,0.251264501 7.32822289,0.238420613 C8.98246806,0.220106181 10.6371889,0.23104727 12.291672,0.238182763 C13.7882227,0.244842557 14.7315349,1.13915771 14.8492706,2.64688742 C14.8583089,2.76272026 14.8716285,2.87831525 14.8885158,3.04980494 C16.2404539,3.04980494 17.5676556,3.05646473 18.8950952,3.04647504 C19.3567616,3.0429073 19.6940326,3.19275265 19.7796585,3.67677694 C19.8550569,4.10205234 19.514456,4.44693451 18.9980842,4.47071949 C18.5789929,4.48974747 18.1582366,4.47452508 17.6635091,4.47452508 L17.6635091,5.23802286 C17.663747,10.1814926 17.6644605,15.1249623 17.6632713,20.0681941 C17.6627956,21.8896477 16.7244782,22.832722 14.9137279,22.8331977 C11.5845446,22.8341491 8.2553613,22.8331977 4.92617802,22.8334356 C3.06381429,22.8334356 2.12692403,21.9067729 2.12668618,20.0574909 C2.12573478,15.1344762 2.12644833,10.2109859 2.12644833,5.28797131 L2.12644833,4.47547648 Z" id="Fill-1" fill="#9F9F9F" mask="url(#mask-2)"></path>
                </g>
                <path d="M9.18171482,12.9359832 C9.18171482,11.1216651 9.17767137,9.30710922 9.18409332,7.49255329 C9.18623396,6.89222047 9.52873764,6.51237438 9.9877877,6.60370869 C10.503446,6.70669764 10.6133326,7.08797083 10.6121434,7.55986478 C10.60477,10.7855834 10.6083378,14.011302 10.6083378,17.2370207 C10.6083378,17.6603933 10.6147597,18.0840037 10.6057214,18.5071385 C10.5959696,18.9711834 10.3966515,19.3003675 9.89193424,19.2977511 C9.38793057,19.2951348 9.18552041,18.9635722 9.18409332,18.5004787 C9.17862277,16.6457261 9.18195267,14.7907358 9.18171482,12.9359832" id="Fill-4" fill="#9F9F9F"></path>
                <path d="M5.67528588,12.9359832 C5.67528588,11.1216651 5.67100459,9.30710922 5.67766438,7.49255329 C5.67980503,6.89222047 6.0223087,6.51237438 6.48112092,6.60370869 C6.99701708,6.70669764 7.10666582,7.08797083 7.10571442,7.55986478 C7.09834108,10.7855834 7.10190883,14.011302 7.10167098,17.2370207 C7.10167098,17.6603933 7.10833077,18.0840037 7.09929248,18.5071385 C7.08954064,18.9711834 6.89022253,19.3003675 6.38550531,19.2977511 C5.88126379,19.2951348 5.67885363,18.9635722 5.67766438,18.5004787 C5.67219384,16.6457261 5.67528588,14.7907358 5.67528588,12.9359832" id="Fill-6" fill="#9F9F9F"></path>
                <path d="M14.1356737,12.9298229 C14.1356737,14.7439031 14.1506582,16.5582212 14.1202135,18.3718257 C14.1152186,18.6539156 13.9756008,19.0247234 13.7677201,19.1935967 C13.3433961,19.5384789 12.7580478,19.1812285 12.7202297,18.5718574 C12.6852658,18.0095805 12.7100021,17.4434981 12.7100021,16.8793184 C12.7097643,13.8557721 12.7100021,10.8319879 12.71024,7.80844158 C12.71024,7.64741728 12.6983475,7.48449019 12.7154727,7.32513084 C12.7620912,6.88796295 12.9939948,6.58518019 13.4485257,6.60206753 C13.8954454,6.61871701 14.1306788,6.91507783 14.1323438,7.3665167 C14.1368629,8.59596218 14.1349601,9.82564551 14.1354358,11.0553288 C14.1356737,11.6801602 14.1354358,12.3049916 14.1356737,12.9298229" id="Fill-8" fill="#9F9F9F"></path>
            </g>
        </g>
    </g>
</svg>