<?xml version="1.0" encoding="UTF-8"?>
<svg width="24px" height="26px" viewBox="0 0 24 26" version="1.1" xmlns="http://www.w3.org/2000/svg" xmlns:xlink="http://www.w3.org/1999/xlink">
    <!-- Generator: Sketch 52.1 (67048) - http://www.bohemiancoding.com/sketch -->
    <title>Group 12</title>
    <desc>Created with Sketch.</desc>
    <defs>
        <polygon id="path-1" points="1.86109323e-05 0.0391700977 23.9550468 0.0391700977 23.9550468 25.4583333 1.86109323e-05 25.4583333"></polygon>
    </defs>
    <g id="Page-1" stroke="none" stroke-width="1" fill="none" fill-rule="evenodd">
        <g id="MIS-CURSOS-" transform="translate(-38.000000, -488.000000)">
            <g id="Group-5">
                <g id="Group-12" transform="translate(38.000000, 488.000000)">
                    <g id="Group-3">
                        <mask id="mask-2" fill="white">
                            <use xlink:href="#path-1"></use>
                        </mask>
                        <g id="Clip-2"></g>
                        <path d="M4.27927483,3.4279884 C3.96657996,3.4279884 3.69140846,3.42782962 3.41623697,3.4279884 C2.33468686,3.42878232 1.71293185,4.04634538 1.7128784,5.12141745 C1.71266459,10.7681922 1.71266459,16.4149141 1.7128784,22.0616359 C1.71293185,23.1496224 2.33367127,23.7611517 3.43767127,23.7610988 C9.15694076,23.7608341 14.8761568,23.7603048 20.5953728,23.7598285 C21.6003795,23.7597226 22.2414842,23.1197181 22.2415911,22.1175807 C22.2418584,18.5795605 22.2424998,15.0415402 22.2428205,11.5035199 C22.2429808,9.33305146 22.2450655,7.162583 22.2415911,4.99211453 C22.2403082,4.20290619 21.7433105,3.57899178 20.965796,3.46403232 C20.5514352,3.40274178 20.1201835,3.45318209 19.6766379,3.45318209 C19.6766379,3.68696475 19.6770655,3.91476655 19.676531,4.14251543 C19.6750878,4.73139155 19.3396223,5.11787128 18.8273372,5.12147038 C18.3138762,5.12506948 17.9675065,4.73652556 17.9659029,4.15447714 C17.9652615,3.91910664 17.965796,3.68378908 17.965796,3.44608975 L12.8331635,3.44608975 C12.8331635,3.71882736 12.835943,3.97367534 12.8325755,4.22836453 C12.8257336,4.74451768 12.4627938,5.12173502 11.9771813,5.12147038 C11.4929051,5.12120574 11.1275599,4.74113029 11.1215733,4.22767646 C11.1185265,3.96663592 11.1210388,3.7054366 11.1210388,3.44831273 L5.99091849,3.44831273 C5.99091849,3.73269448 5.99562227,3.99696363 5.9899029,4.26102106 C5.97915902,4.75420349 5.60617016,5.12501655 5.13017906,5.12289944 C4.65670022,5.12078232 4.28889621,4.74584088 4.28013007,4.25064718 C4.27542628,3.98748953 4.27927483,3.72417309 4.27927483,3.4279884 M4.2784196,1.73360664 C4.2784196,1.42773615 4.27291403,1.16341408 4.279649,0.899409572 C4.2923706,0.402998536 4.66124365,0.0382192568 5.1410833,0.0391719595 C5.6149363,0.0401246622 5.97964009,0.413319482 5.98872695,0.91274741 C5.99353764,1.17574628 5.98963563,1.43895687 5.98963563,1.71762241 L11.1225354,1.71762241 C11.1225354,1.44536115 11.1192748,1.18283863 11.1232303,0.920421959 C11.1310343,0.407603266 11.5015644,0.0332440315 11.9900633,0.0398600225 C12.4647715,0.0462643018 12.8240766,0.419300338 12.8323082,0.919522185 C12.8365844,1.18199178 12.8330566,1.44462016 12.8330566,1.72000417 L17.965796,1.72000417 C17.965796,1.47664155 17.9649942,1.23354358 17.9659563,0.990498536 C17.9682013,0.425016554 18.3105621,0.0425593468 18.8160588,0.0398600225 C19.3228918,0.0371077703 19.6748739,0.421576239 19.6765844,0.980389302 C19.6772258,1.21808863 19.6766913,1.45578795 19.6766913,1.73360664 C20.0213506,1.73360664 20.3558004,1.72931948 20.6901434,1.73440056 C21.7859653,1.75107286 22.6712927,2.1883634 23.3264552,3.05955709 C23.7369675,3.6055616 23.9510967,4.22746475 23.9514174,4.90928232 C23.9544107,10.6982744 23.9585265,16.4872666 23.9498673,22.2762587 C23.9472481,24.0185931 22.5045755,25.4490233 20.7463216,25.4516697 C14.9012793,25.4604557 9.05618352,25.4606675 3.21119465,25.4516697 C1.44075367,25.4489175 0.00593853007,24.0095954 0.00422806236,22.2519648 C-0.0013844098,16.4894366 -0.00133095768,10.7269084 0.00406770601,4.96438029 C0.0057247216,3.15937917 1.44144855,1.74763255 3.26379154,1.73392421 C3.59155991,1.73148953 3.91943519,1.73360664 4.2784196,1.73360664" id="Fill-1" fill="#9D9D9D" mask="url(#mask-2)"></path>
                    </g>
                    <path d="M15.8341768,10.2922477 C16.788861,10.2922477 17.7435453,10.2912844 18.6982295,10.2926026 C19.257188,10.2933631 19.6413527,10.6307249 19.6363147,11.1120257 C19.6314887,11.5809556 19.2490211,11.9142106 18.7058131,11.9147683 C16.7787849,11.9166443 14.8518098,11.9172527 12.9247817,11.9160358 C12.3868238,11.9157316 12.0019698,11.5751757 12.0000076,11.107057 C11.9980454,10.6349837 12.3781266,10.294225 12.917092,10.2929068 C13.8894359,10.2905746 14.8618329,10.2922477 15.8341768,10.2922477" id="Fill-4" fill="#9D9D9D"></path>
                    <path d="M15.8062427,19.4995941 C14.8516113,19.4995941 13.89698,19.5007611 12.9424017,19.4991375 C12.383231,19.4982242 11.9967328,19.1607174 12.0000208,18.681551 C12.0032558,18.2016743 12.3863068,17.8758879 12.9530612,17.8756342 C14.8623238,17.8747717 16.7715865,17.8748224 18.6807961,17.8755835 C19.2463307,17.8758372 19.6322455,18.2026384 19.636329,18.6803841 C19.6405716,19.1705097 19.2547628,19.4987316 18.6701367,19.4993404 C17.7155053,19.5003045 16.760874,19.4995941 15.8062427,19.4995941" id="Fill-6" fill="#9D9D9D"></path>
                    <path d="M6.93864047,10.9078337 C7.59132141,10.2459072 8.22200007,9.60973976 8.84839605,8.96923394 C9.06274435,8.75003788 9.31210359,8.63073276 9.61692358,8.67628563 C9.95257889,8.72633955 10.1922486,8.91614316 10.307078,9.2424969 C10.4256548,9.57969657 10.3566501,9.88891376 10.110717,10.1430337 C9.59872217,10.6719892 9.07880441,11.1930815 8.56188453,11.7172106 C8.23404512,12.0495838 7.90984599,12.3855904 7.57681382,12.7125407 C7.18778557,13.094534 6.6997738,13.0964863 6.31642011,12.7143845 C5.7506241,12.1504508 5.18868251,11.5823958 4.63177307,11.0094058 C4.27855876,10.6459048 4.27647096,10.114292 4.61271513,9.77036785 C4.94869164,9.42676909 5.47701417,9.42400338 5.8355283,9.77850229 C6.20394614,10.1429252 6.56058659,10.5197125 6.93864047,10.9078337" id="Fill-8" fill="#9D9D9D"></path>
                    <path d="M6.93380337,18.4981261 C7.60778144,17.8149809 8.24266503,17.1699086 8.87958367,16.5267859 C9.13610771,16.2677497 9.44313323,16.1843468 9.78721818,16.3028439 C10.1107919,16.4143004 10.2976957,16.6567103 10.3518388,16.9957916 C10.3959138,17.2715084 10.3157969,17.5191174 10.1231629,17.7153849 C9.26238822,18.5922522 8.40236329,19.4700401 7.52996736,20.3349385 C7.18866723,20.6733158 6.69281002,20.6625926 6.34909995,20.3234571 C5.76182593,19.7441322 5.18119262,19.1576044 4.60902086,18.5630612 C4.27168372,18.2126067 4.28796416,17.678666 4.62208805,17.3467876 C4.95717592,17.0139344 5.47493674,17.008302 5.82501975,17.3535032 C6.19464999,17.7179303 6.54848178,18.0988756 6.93380337,18.4981261" id="Fill-10" fill="#9D9D9D"></path>
                </g>
            </g>
        </g>
    </g>
</svg>