<svg width="26" height="20" viewBox="0 0 26 20" fill="none" xmlns="http://www.w3.org/2000/svg">
<path d="M2 18.9104H24C24.5523 18.9104 25 18.465 25 17.9154V1.99502C25 1.44549 24.5523 1 24 1H2C1.44772 1 1 1.44549 1 1.99502V17.9154C1 18.465 1.44772 18.9104 2 18.9104Z" stroke="#A8A8A8" stroke-width="2"/>
<path d="M11.2639 10.5513C11.4809 10.672 11.7466 10.6664 11.9584 10.5368L15.3045 8.48775C15.5075 8.36344 15.6311 8.14325 15.6311 7.90608C15.6311 7.66891 15.5075 7.44872 15.3045 7.32441L11.9584 5.27539C11.7466 5.1456 11.4809 5.13998 11.2637 5.26069C11.0466 5.3814 10.9121 5.60955 10.9121 5.85705V9.95511C10.9122 10.2026 11.0467 10.4306 11.2639 10.5513Z" stroke="#A8A8A8" stroke-width="1.5"/>
<path fill-rule="evenodd" clip-rule="evenodd" d="M20.1818 12.962H16.3408C16.3408 12.4884 15.9482 12.1045 15.4638 12.1045C14.9794 12.1045 14.5868 12.4884 14.5868 12.962H5.81648C5.33211 12.962 4.93945 13.346 4.93945 13.8196C4.93945 14.2932 5.33211 14.6771 5.81648 14.6771H14.5868C14.5868 15.1507 14.9794 15.5346 15.4638 15.5346C15.9482 15.5346 16.3408 15.1507 16.3408 14.6771H20.1818C20.6662 14.6771 21.0589 14.2932 21.0589 13.8196C21.0589 13.346 20.6662 12.962 20.1818 12.962Z" fill="#A8A8A8"/>
</svg>
