<svg width="21" height="27" viewBox="0 0 21 27" fill="none" xmlns="http://www.w3.org/2000/svg">
<g id="documents-symbol">
<path id="Path" fill-rule="evenodd" clip-rule="evenodd" d="M4.17895 10.0354C3.38045 10.0354 3.38045 11.2301 4.17895 11.2301C7.35917 11.2301 10.5388 11.2301 13.7188 11.2301C14.5187 11.2301 14.5187 10.0354 13.7188 10.0354C10.5388 10.0354 7.35917 10.0354 4.17895 10.0354Z" fill="#9D9D9D"/>
<path id="Path_2" fill-rule="evenodd" clip-rule="evenodd" d="M13.7187 13.1416C10.5388 13.1416 7.35914 13.1416 4.17894 13.1416C3.38046 13.1416 3.38046 14.3363 4.17894 14.3363C7.35914 14.3363 10.5388 14.3363 13.7187 14.3363C14.5187 14.3363 14.5187 13.1416 13.7187 13.1416Z" fill="#9D9D9D"/>
<path id="Path_3" fill-rule="evenodd" clip-rule="evenodd" d="M13.7187 15.7699C10.5388 15.7699 7.35914 15.7699 4.17894 15.7699C3.38046 15.7699 3.38046 16.9646 4.17894 16.9646C7.35914 16.9646 10.5388 16.9646 13.7187 16.9646C14.5187 16.9645 14.5187 15.7699 13.7187 15.7699Z" fill="#9D9D9D"/>
<path id="Path_4" fill-rule="evenodd" clip-rule="evenodd" d="M13.7187 18.6371C10.5388 18.6371 7.35914 18.6371 4.17894 18.6371C3.38046 18.6371 3.38046 19.8318 4.17894 19.8318C7.35914 19.8318 10.5388 19.8318 13.7187 19.8318C14.5187 19.8317 14.5187 18.6371 13.7187 18.6371Z" fill="#9D9D9D"/>
<path id="Path_5" fill-rule="evenodd" clip-rule="evenodd" d="M13.4822 21.5044C10.301 21.5044 7.12002 21.5044 3.94025 21.5044C3.14231 21.5044 3.14231 22.6991 3.94025 22.6991C7.12002 22.6991 10.301 22.6991 13.4822 22.6991C14.2798 22.699 14.2798 21.5044 13.4822 21.5044Z" fill="#9D9D9D"/>
<path id="Shape" fill-rule="evenodd" clip-rule="evenodd" d="M0 27V3.58405H14.5722L17.8977 6.83276V27H0ZM1.54805 25.441H16.3497V7.61654H13.7755V5.14312H1.54805V25.441Z" fill="#9D9D9D"/>
<path id="Path_6" fill-rule="evenodd" clip-rule="evenodd" d="M3.10156 0V2.7103H4.64956V1.5585H16.8772V4.03195H19.4519V21.857H18.7718V23.4159H20.9993V3.24816L17.6738 0H3.10156Z" fill="#9D9D9D"/>
</g>
</svg>
