<svg width="28" height="28" viewBox="0 0 28 28" fill="none" xmlns="http://www.w3.org/2000/svg">
<path fill-rule="evenodd" clip-rule="evenodd" d="M27.1507 12.4442H16.4032C15.9348 12.4442 15.5547 12.0958 15.5547 11.6664C15.5547 11.2371 15.9348 10.8887 16.4032 10.8887H27.1507C27.619 10.8887 27.9991 11.2371 27.9991 11.6664C27.9991 12.0958 27.619 12.4442 27.1507 12.4442Z" fill="#568AE9"/>
<path fill-rule="evenodd" clip-rule="evenodd" d="M22.6659 17.1111C22.4383 17.1111 22.2109 17.0227 22.0377 16.845C21.6905 16.4904 21.6905 15.9159 22.0377 15.5615L25.8537 11.6666L22.0377 7.77144C21.6905 7.41706 21.6905 6.84251 22.0377 6.48812C22.3851 6.13352 22.948 6.13352 23.2952 6.48812L27.7392 11.0243C28.0864 11.3786 28.0864 11.9532 27.7392 12.3076L23.2952 16.8437C23.121 17.0227 22.8935 17.1111 22.6659 17.1111Z" fill="#568AE9"/>
<path fill-rule="evenodd" clip-rule="evenodd" d="M8.03612 27.8915C8.25704 27.965 8.47815 28 8.71123 28C9.91231 28 10.8889 26.9535 10.8889 25.6666V4.6666C10.8889 3.67154 10.2977 2.78137 9.40588 2.44769L2.85297 0.108521C2.63185 0.0350342 2.41074 0 2.17786 0C0.976776 0 0 1.04654 0 2.3334V23.3334C0 24.3285 0.591369 25.2186 1.48301 25.5523L8.03612 27.8915ZM1.63334 2.3334C1.63334 2.01254 1.87838 1.75 2.17786 1.75C2.24744 1.75 2.30845 1.7594 2.35531 1.77563L8.87772 4.10434C9.09983 4.18723 9.25555 4.41815 9.25555 4.6666V25.6666C9.25555 25.9875 9.0107 26.25 8.71123 26.25C8.64145 26.25 8.58044 26.2406 8.53358 26.2244L2.01117 23.8957C1.78906 23.8128 1.63334 23.5818 1.63334 23.3334V2.3334Z" fill="#568AE9"/>
<path fill-rule="evenodd" clip-rule="evenodd" d="M17.7957 9.33333C17.3155 9.33333 16.9257 8.94134 16.9257 8.45834V3.20838C16.9257 2.40452 16.275 1.74999 15.4757 1.74999H2.42475C1.94447 1.74999 1.55469 1.35799 1.55469 0.874993C1.55469 0.391995 1.94447 0 2.42475 0H15.4757C17.2356 0 18.6658 1.43853 18.6658 3.20838V8.45834C18.6658 8.94134 18.276 9.33333 17.7957 9.33333Z" fill="#568AE9"/>
<path fill-rule="evenodd" clip-rule="evenodd" d="M15.2452 24.889H10.2673C9.75212 24.889 9.33398 24.497 9.33398 24.014C9.33398 23.531 9.75212 23.139 10.2673 23.139H15.2452C16.1027 23.139 16.8007 22.4845 16.8007 21.6806V16.4307C16.8007 15.9477 17.2188 15.5557 17.734 15.5557C18.2492 15.5557 18.6673 15.9477 18.6673 16.4307V21.6806C18.6673 23.4505 17.1331 24.889 15.2452 24.889Z" fill="#568AE9"/>
</svg>
