<svg width="177" height="58" viewBox="0 0 177 58" fill="none" xmlns="http://www.w3.org/2000/svg">
<path fill-rule="evenodd" clip-rule="evenodd" d="M129.58 21H120.42C118.539 21 117 19.4252 117 17.5C117 15.5752 118.539 14 120.42 14H129.58C131.46 14 133 15.5752 133 17.5C133 19.4252 131.46 21 129.58 21Z" fill="#222221"/>
<path fill-rule="evenodd" clip-rule="evenodd" d="M132 17.5C132 18.8806 130.881 20 129.5 20C128.119 20 127 18.8806 127 17.5C127 16.1194 128.119 15 129.5 15C130.881 15 132 16.1194 132 17.5Z" fill="white"/>
<path fill-rule="evenodd" clip-rule="evenodd" d="M79.9772 34.0365C81.0263 35.0218 81.9783 35.9148 82.9203 36.7998C81.0095 40.0523 74.7734 41.8229 69.5856 40.6233C64.3962 39.4241 60.4662 35.0999 60.0588 30.142C59.5457 23.8957 62.4088 19.0785 67.8958 16.9563C73.2166 14.8986 79.76 16.2486 83 20.1691C82.0354 21.0621 81.0612 21.9639 80.0066 22.9401C77.764 20.7593 75.1442 19.7529 72.0393 20.1735C69.8754 20.4662 68.0375 21.3731 66.6227 23.0279C63.9327 26.1744 64.0079 31.141 66.7954 34.2007C68.5683 36.147 70.8612 36.9906 73.4588 36.963C76.0151 36.9357 78.2077 35.9434 79.9772 34.0365Z" fill="black"/>
<path fill-rule="evenodd" clip-rule="evenodd" d="M88.5681 30.992C91.7388 30.992 94.8342 30.9937 97.9294 30.9883C98.1509 30.988 98.3724 30.9369 98.5865 30.9104C98.6695 28.8155 96.6588 26.8333 94.3089 26.647C91.2652 26.4056 88.9717 28.0775 88.5681 30.992ZM99.5072 36.2724C100.265 37.1409 101.034 38.0212 101.82 38.9226C99.4739 41.5608 96.486 42.204 93.2373 41.9482C89.483 41.6524 86.3933 40.1084 84.8898 36.4872C83.4356 32.9859 83.7119 29.5128 86.1032 26.4429C88.6504 23.1732 93.6907 22.0878 97.685 23.8141C101.462 25.4467 103.515 29.3617 102.889 33.9226H88.6265C89.3489 38.3529 94.5179 39.4353 99.5072 36.2724Z" fill="black"/>
<path fill-rule="evenodd" clip-rule="evenodd" d="M163.551 30.9493C163.698 28.7868 161.561 26.7577 159.074 26.635C156.075 26.4871 153.687 28.3445 153.586 30.9493H163.551ZM167.845 33.9542H153.548C153.85 35.7763 154.877 36.9586 156.402 37.5987C159.26 38.7978 161.938 38.37 164.431 36.2266C165.213 37.1162 165.98 37.9902 166.788 38.9104C165.276 40.7445 163.308 41.6411 161.038 41.8875C157.015 42.3243 153.36 41.5726 150.776 38.1556C148.524 35.1778 148.428 30.5147 150.404 27.3414C152.374 24.1781 156.269 22.4969 160.152 23.1333C165.502 24.0104 168.766 28.5226 167.845 33.9542Z" fill="black"/>
<path fill-rule="evenodd" clip-rule="evenodd" d="M123 27.3974C121.857 28.0606 120.776 28.689 119.602 29.3709C118.313 27.5958 116.629 26.6597 114.398 26.8548C112.994 26.9774 111.815 27.5281 110.871 28.5499C108.853 30.7322 108.954 34.6228 111.063 36.6641C113.41 38.9336 116.553 38.5877 119.677 35.6617C120.735 36.275 121.816 36.9017 122.89 37.5233C121.816 40.5462 117.799 42.4347 113.634 41.9139C108.802 41.3096 105.39 38.0381 105.042 33.6774C104.645 28.6829 107.079 24.8876 111.548 23.5353C116.288 22.101 120.888 23.6027 123 27.3974Z" fill="black"/>
<path fill-rule="evenodd" clip-rule="evenodd" d="M146.725 36.5698C147.157 37.6327 147.559 38.6229 148 39.7072C145.516 41.2385 142.945 41.361 140.333 40.3305C138.009 39.4138 137.139 37.494 137.101 35.1721C137.056 32.4848 137.076 29.7961 137.062 27.1077C137.06 26.6962 137.025 26.2847 137 25.7805H134V22.2833C134.943 22.2403 135.901 22.1963 137.033 22.1445V18H141.53V22.1703H146.606V25.7155H141.583V27.2536C141.583 29.3277 141.582 31.4015 141.583 33.4753C141.584 37.118 143.174 38.121 146.725 36.5698Z" fill="black"/>
<mask id="mask0" mask-type="alpha" maskUnits="userSpaceOnUse" x="0" y="0" width="177" height="58">
<path fill-rule="evenodd" clip-rule="evenodd" d="M0 58H177V0H0V58Z" fill="white"/>
</mask>
<g mask="url(#mask0)">
<path fill-rule="evenodd" clip-rule="evenodd" d="M173 41H177V16H173V41Z" fill="black"/>
<path fill-rule="evenodd" clip-rule="evenodd" d="M128 41H132V23H128V41Z" fill="black"/>
<path fill-rule="evenodd" clip-rule="evenodd" d="M32.8148 9.41088C32.8148 9.41088 39.5124 16.851 42.4423 18.2353C46.2096 20.3115 50.6747 19.2045 51.5118 18.0967C49.631 15.5524 43.6591 4.70798 36.2419 1.15469C31.5541 -1.09094 27.0364 0.369754 24.6162 1.89977C17.606 6.33109 1.43486 21.0807 0.4121 25.3717C-0.245439 28.1321 -1.51799 33.5419 9.57478 46.215C20.9548 58.493 29.7452 61.4231 38.3691 53.8457C47.4386 45.1886 55 37.0607 55 37.0607C55 37.0607 49.1399 35.2611 43.6983 38.5833C38.2567 41.9056 30.8614 47.1657 30.8614 47.1657C30.8614 47.1657 17.3272 42.944 13.0002 27.5635C17.1179 20.3115 24.0244 13.7712 32.8148 9.41088Z" fill="#6BD0B2"/>
<path fill-rule="evenodd" clip-rule="evenodd" d="M13.0144 27.539C14.941 24.1427 17.4791 20.9027 20.5364 17.9698C20.9438 17.5787 21.3606 17.1932 21.7865 16.8132C23.0641 15.6739 24.4223 14.5872 25.8559 13.5624C26.3337 13.2208 26.8199 12.8859 27.3142 12.5587C27.5612 12.3947 27.8105 12.2328 28.0618 12.0729C29.5686 11.1126 31.1478 10.219 32.7931 9.40228C32.7931 9.40228 32.8072 9.418 32.8342 9.44778C32.8369 9.45079 32.8399 9.45413 32.8429 9.45782C32.847 9.46216 32.8517 9.46718 32.8561 9.47187C32.877 9.49495 32.9026 9.52339 32.9332 9.55685C32.9366 9.56086 32.9403 9.56488 32.944 9.56889C32.9531 9.5786 32.9625 9.58897 32.972 9.59968C32.9777 9.6057 32.9838 9.61239 32.9898 9.61875C33.2998 9.95868 33.9541 10.6703 34.7954 11.5489C35.0508 7.88129 36.0953 4.18288 37 1.56114C36.875 1.49154 36.7497 1.42463 36.6243 1.35905C36.6172 1.35537 36.6108 1.35169 36.6038 1.34834C36.4744 1.28109 36.3443 1.21585 36.2139 1.15329C36.1378 1.11682 36.062 1.08135 35.9858 1.04689C35.9609 1.03551 35.9363 1.02481 35.9117 1.0141C35.8605 0.991016 35.8089 0.96793 35.7577 0.946183C35.7284 0.933469 35.6991 0.921424 35.6698 0.909045C35.6233 0.88964 35.5768 0.8699 35.5303 0.851163C35.4986 0.838449 35.4673 0.82607 35.436 0.813691C35.3915 0.795958 35.347 0.77856 35.3025 0.761497C35.2709 0.749452 35.2389 0.737407 35.2068 0.725362C35.163 0.709303 35.1189 0.692908 35.0751 0.677183C35.0431 0.665808 35.0111 0.654432 34.9787 0.643391C34.9353 0.628 34.8918 0.612945 34.8483 0.598558C34.8163 0.587851 34.784 0.577145 34.752 0.566773C34.7082 0.552386 34.6647 0.538334 34.6209 0.524616C34.5896 0.514914 34.5579 0.505211 34.5269 0.495508C34.4821 0.482125 34.4376 0.469077 34.3935 0.456028C34.3628 0.447329 34.3325 0.438296 34.3022 0.429931C34.2564 0.416883 34.2109 0.404503 34.1654 0.392458C34.1361 0.384429 34.1071 0.376399 34.0781 0.369038C34.0303 0.356659 33.9824 0.344614 33.9346 0.332904C33.9083 0.326547 33.882 0.319855 33.8554 0.313164C33.8028 0.300784 33.7506 0.289074 33.6981 0.277364C33.6765 0.272345 33.6549 0.267327 33.6334 0.262643C33.5693 0.248591 33.5053 0.235542 33.4413 0.222494C33.4319 0.220821 33.4221 0.218479 33.4127 0.216471C33.2614 0.187028 33.1111 0.160262 32.9615 0.136842L32.948 0.134834C32.879 0.124463 32.8099 0.114091 32.7412 0.104723C32.727 0.10305 32.7132 0.101377 32.6991 0.0993693C32.6401 0.091674 32.5808 0.0839788 32.5218 0.0772872C32.5043 0.0752798 32.4868 0.0732723 32.4693 0.0712648C32.4137 0.0652425 32.3581 0.0592201 32.3028 0.0538669C32.284 0.052194 32.2654 0.0505211 32.2469 0.0485136C32.1923 0.0438295 32.1381 0.0391455 32.0838 0.034796C32.0653 0.0334577 32.0464 0.0321194 32.0279 0.0307811C31.974 0.0267661 31.9197 0.0230858 31.8658 0.0200746C31.8476 0.0190709 31.8294 0.0180671 31.8112 0.0170634C31.7563 0.0140522 31.7017 0.0113756 31.6471 0.00936815C31.6303 0.00836442 31.6138 0.00802984 31.5969 0.00736069C31.5403 0.00535323 31.4837 0.00368034 31.4271 0.00267661C31.413 0.00234204 31.3988 0.00200746 31.385 0.00167288C31.3247 0.000669153 31.2644 0 31.2044 0H31.1744C31.1081 0 31.042 0.000669153 30.9763 0.00167288C30.9726 0.00200746 30.9692 0.00200746 30.9655 0.00200746C30.3213 0.0140522 29.698 0.0786255 29.1023 0.183013C15.0586 2.95967 3.68441 30.5278 7.88394 44.1561C8.41932 44.8079 8.98739 45.4797 9.59522 46.1743C9.855 46.455 10.1131 46.729 10.3705 47C9.52446 38.4967 13.0144 27.539 13.0144 27.539Z" fill="#227A5D"/>
<path fill-rule="evenodd" clip-rule="evenodd" d="M38.4118 53.9052C47.458 45.372 55 37.361 55 37.361C55 37.361 49.1549 35.5872 43.7273 38.8618C38.2993 42.1364 30.9233 47.3211 30.9233 47.3211C30.9233 47.3211 17.4238 43.1596 13.1079 28C13.1079 28 7.48161 34.8631 8.03881 44.462C8.55697 45.0832 9.10575 45.7232 9.69124 46.384C21.0421 58.4859 29.8099 61.374 38.4118 53.9052Z" fill="#4275D2"/>
<path fill-rule="evenodd" clip-rule="evenodd" d="M41.7943 17.8565C45.6182 19.8896 50.15 18.8055 51 17.7207C49.0906 15.2291 43.0294 4.60964 35.5009 1.13003C33.7809 0.335139 32.084 0.0147566 30.5018 0C29.8344 1.9 29.4236 5.19728 32.0223 9.21501C32.0223 9.21501 38.8201 16.5008 41.7943 17.8565Z" fill="#6EFD85"/>
<path fill-rule="evenodd" clip-rule="evenodd" d="M37 14C35.414 9.52312 35.794 4.59929 36.3393 1.41565C36.1457 1.31971 35.9514 1.22707 35.756 1.14006C33.9563 0.338115 32.1807 0.0148876 30.5248 0C29.8268 1.91687 29.397 5.24342 32.1158 9.29683C32.1158 9.29683 34.4324 11.6904 37 14Z" fill="#46D346"/>
<path fill-rule="evenodd" clip-rule="evenodd" d="M36.0013 41.9992C36.0006 41.9998 35.9996 42.0002 35.9986 42.0008C35.9996 42.0002 36.0006 41.9998 36.0013 41.9992Z" fill="#204892"/>
<path fill-rule="evenodd" clip-rule="evenodd" d="M29.9912 47.0062C29.9912 47.0062 29.9979 47.0015 30.0087 46.9938C29.9983 47.0008 29.9912 47.0062 29.9912 47.0062Z" fill="#204892"/>
<path fill-rule="evenodd" clip-rule="evenodd" d="M30.9922 47.0055C30.9976 47.0018 31.0023 46.9985 31.0077 46.9945C31.0023 46.9985 30.9976 47.0018 30.9922 47.0055Z" fill="#204892"/>
<path fill-rule="evenodd" clip-rule="evenodd" d="M31 47.5406C30.4529 47.3649 17.3635 43.0152 13.1176 28C13.1176 28 10.9513 42.4052 25.216 54L30.9997 47.5406H31Z" fill="#204892"/>
<path fill-rule="evenodd" clip-rule="evenodd" d="M43.6714 39.0019C38.2166 42.3119 30.804 47.5527 30.804 47.5527C30.804 47.5527 30.7959 47.5501 30.7841 47.5461L25 54H26.4684C40.4761 39.9544 49.5245 39.0079 53.1709 39.4113C54.3379 38.1921 55 37.4848 55 37.4848C55 37.4848 49.1259 35.6919 43.6714 39.0019Z" fill="#7BBBEF"/>
</g>
</svg>
