<svg width="26" height="26" viewBox="0 0 26 26" fill="none" xmlns="http://www.w3.org/2000/svg">
<g opacity="0.374674">
<path fill-rule="evenodd" clip-rule="evenodd" d="M12.9826 6.5H15.4168C15.8647 6.5 16.2282 6.864 16.2282 7.3125V8.9375C16.2282 9.386 15.8647 9.75 15.4168 9.75C14.9689 9.75 14.6054 9.386 14.6054 8.9375V8.125H12.9826V8.9375C12.9826 9.386 12.619 9.75 12.1711 9.75C11.7232 9.75 11.3597 9.386 11.3597 8.9375V8.125H4.86846V8.9375C4.86846 9.386 4.50494 9.75 4.05705 9.75C3.60915 9.75 3.24564 9.386 3.24564 8.9375V8.125H1.62282V22.75C1.62282 23.6454 2.34984 24.375 3.24564 24.375H8.9255C9.3734 24.375 9.73691 24.739 9.73691 25.1875C9.73691 25.636 9.3734 26 8.9255 26H3.24564C1.45567 26 0 24.5424 0 22.75V7.3125C0 6.864 0.363511 6.5 0.811409 6.5H3.24564V4.875C3.24564 2.18725 5.42995 0 8.11409 0C10.7982 0 12.9826 2.18725 12.9826 4.875V6.5ZM4.86846 4.875V6.5H11.3597V4.875C11.3597 3.08262 9.90406 1.625 8.11409 1.625C6.32412 1.625 4.86846 3.08262 4.86846 4.875Z" fill="black"/>
<path fill-rule="evenodd" clip-rule="evenodd" d="M25.1852 13.0174H22.6592C22.2813 11.1674 20.6364 9.77173 18.6707 9.77173C16.7049 9.77173 15.06 11.1674 14.6821 13.0174H12.1561C11.7066 13.0174 11.3418 13.3809 11.3418 13.8288V22.7543C11.3418 24.5442 12.8027 25.9999 14.5991 25.9999H22.7422C24.5386 25.9999 25.9995 24.5442 25.9995 22.7543V13.8288C25.9995 13.3809 25.6347 13.0174 25.1852 13.0174ZM18.6707 11.3945C19.7309 11.3945 20.6266 12.0745 20.9638 13.0174H16.3775C16.7147 12.0745 17.6104 11.3945 18.6707 11.3945ZM22.7422 24.3771C23.6413 24.3771 24.3709 23.6485 24.3709 22.7543V14.6402H22.7422V15.4516C22.7422 15.8995 22.3774 16.263 21.9279 16.263C21.4784 16.263 21.1136 15.8995 21.1136 15.4516V14.6402H16.2277V15.4516C16.2277 15.8995 15.8629 16.263 15.4134 16.263C14.9639 16.263 14.5991 15.8995 14.5991 15.4516V14.6402H12.9704V22.7543C12.9704 23.6485 13.7001 24.3771 14.5991 24.3771H22.7422Z" fill="black"/>
</g>
</svg>
