<svg width="60" height="60" viewBox="0 0 60 60" fill="none" xmlns="http://www.w3.org/2000/svg">
<circle cx="30" cy="30" r="30" fill="#EBF3FA"/>
<mask id="mask0" mask-type="alpha" maskUnits="userSpaceOnUse" x="0" y="0" width="60" height="60">
<circle cx="30" cy="30" r="30" fill="white"/>
</mask>
<g mask="url(#mask0)">
<path fill-rule="evenodd" clip-rule="evenodd" d="M47.0836 54.7432V59.1102C47.0836 59.6019 46.6938 60.0001 46.2126 60.0001H14.4199C13.9386 60.0001 13.5488 59.6019 13.5488 59.1102V54.7432C13.5488 52.0224 14.8314 49.5819 16.8152 48.0646V19.4551C16.8152 13.3427 21.6658 8.38721 27.6487 8.38721H33.0926C39.0755 8.38721 43.9261 13.3427 43.9261 19.4551V48.1503C45.8478 49.672 47.0836 52.0724 47.0836 54.7432Z" fill="#FFD3B6"/>
<path fill-rule="evenodd" clip-rule="evenodd" d="M41.0952 26.3228V30.8711C41.0952 36.9552 36.2666 41.8834 30.3161 41.8834C24.3659 41.8834 19.5371 36.9555 19.5371 30.8711V26.3216C19.5371 21.899 23.0474 18.3127 27.3764 18.3127H33.2559C37.5849 18.3127 41.0952 21.899 41.0952 26.3228Z" fill="#FFD3B6"/>
<path fill-rule="evenodd" clip-rule="evenodd" d="M43.9254 19.4551V48.1781C42.5535 47.0935 40.8321 46.4484 38.9637 46.4484C36.4735 46.4484 34.4529 44.393 34.4529 41.8499V41.0902L34.4365 41.0491C38.3453 39.3961 41.0945 35.4617 41.0945 30.8711V26.3227C41.0945 21.8988 37.5842 18.3127 33.2552 18.3127H27.3757C23.0467 18.3127 19.5364 21.8989 19.5364 26.3216V30.8711C19.5364 35.4617 22.2856 39.3961 26.1944 41.0491L26.1781 41.0902V41.8499C26.1781 44.3928 24.1577 46.4484 21.6672 46.4484C19.8478 46.4484 18.1689 47.0602 16.8145 48.0924V19.4551C16.8145 13.3427 21.665 8.38721 27.6479 8.38721H33.0919C39.0748 8.38721 43.9254 13.3427 43.9254 19.4551Z" fill="#42434D"/>
<path fill-rule="evenodd" clip-rule="evenodd" d="M47.0836 54.7431V59.1101C47.0836 59.6016 46.6936 60 46.2126 60H14.4199C13.9388 60 13.5488 59.6016 13.5488 59.1101V54.7431C13.5488 50.179 17.158 46.4058 21.6253 46.4481C22.28 46.4543 22.9046 46.318 23.4677 46.0679V46.069C24.7871 49.1335 27.9213 50.9757 31.1873 50.584C33.7971 50.2714 36.0901 48.5651 37.1647 46.069V46.0679C37.7279 46.318 38.3526 46.4543 39.0072 46.4481C43.4745 46.4058 47.0836 50.179 47.0836 54.7431Z" fill="#568AE9"/>
<path fill-rule="evenodd" clip-rule="evenodd" d="M30.7578 50.6219C30.8994 50.6141 31.042 50.6008 31.1835 50.5841C31.042 50.6019 30.9004 50.6141 30.7578 50.6219Z" fill="#C79A83"/>
<path fill-rule="evenodd" clip-rule="evenodd" d="M34.5775 42.9167C31.8951 44.0639 28.9472 44.1529 26.0566 42.9167C26.2043 42.2909 26.1797 41.8856 26.1797 41.0902L26.196 41.0491C28.818 42.161 31.811 42.1632 34.4382 41.0491L34.4545 41.0902C34.4545 41.8859 34.4299 42.2911 34.5775 42.9167Z" fill="#D2AC9B"/>
<path fill-rule="evenodd" clip-rule="evenodd" d="M31.2421 12.5029V18.3127H29.5V12.5029C29.5 12.0113 29.8898 11.613 30.371 11.613C30.8523 11.613 31.2421 12.0113 31.2421 12.5029Z" fill="#2C2C33"/>
<path fill-rule="evenodd" clip-rule="evenodd" d="M30.7578 50.6219C30.8994 50.6141 31.042 50.6008 31.1835 50.5841C31.042 50.6019 30.9004 50.6141 30.7578 50.6219Z" fill="#C79A83"/>
</g>
</svg>
