<?xml version="1.0" encoding="UTF-8"?>
<svg width="1636px" height="580px" viewBox="0 0 1636 580" version="1.1" xmlns="http://www.w3.org/2000/svg" xmlns:xlink="http://www.w3.org/1999/xlink">
    <!-- Generator: Sketch 52.1 (67048) - http://www.bohemiancoding.com/sketch -->
    <title>Group 8</title>
    <desc>Created with Sketch.</desc>
    <g id="Page-1" stroke="none" stroke-width="1" fill="none" fill-rule="evenodd">
        <g id="CONÓCENOS-" transform="translate(-28.000000, -676.000000)">
            <g id="Group-8" transform="translate(28.000000, 678.000000)">
                <g id="Group-8-Copy-4" transform="translate(377.000000, 281.000000) scale(-1, 1) translate(-377.000000, -281.000000) translate(0.000000, 8.000000)">
                    <ellipse id="Oval-Copy-19" stroke="#7BBBEF" stroke-width="3" cx="165.5" cy="113" rx="8.5" ry="8"></ellipse>
                    <ellipse id="Oval-Copy-21" stroke="#7BBBEF" stroke-width="3" cx="711.5" cy="538" rx="8.5" ry="8"></ellipse>
                    <ellipse id="Oval-Copy-42" stroke="#7BBBEF" stroke-width="3" cx="621.5" cy="171" rx="8.5" ry="8"></ellipse>
                    <path d="M450.874957,95.6875246 C451.63421,95.6875246 452.249954,96.3032687 452.249954,97.0625213 L452.249954,98.437518 C452.249954,99.1967707 451.63421,99.8125148 450.874957,99.8125148 L444.687472,99.8125148 L444.687472,106 C444.687472,106.759253 444.071728,107.374997 443.312475,107.374997 L441.937479,107.374997 C441.178226,107.374997 440.562482,106.759253 440.562482,106 L440.562482,99.8125148 L434.374997,99.8125148 C433.615744,99.8125148 433,99.1967707 433,98.437518 L433,97.0625213 C433,96.3032687 433.615744,95.6875246 434.374997,95.6875246 L440.562482,95.6875246 L440.562482,89.5000393 C440.562482,88.7407867 441.178226,88.1250426 441.937479,88.1250426 L443.312475,88.1250426 C444.071728,88.1250426 444.687472,88.7407867 444.687472,89.5000393 L444.687472,95.6875246 L450.874957,95.6875246 Z" id="plus-copy-3" fill="#7DDDDD" transform="translate(442.624977, 97.750020) scale(-1, 1) translate(-442.624977, -97.750020) "></path>
                    <path d="M469.874957,494.687525 C470.63421,494.687525 471.249954,495.303269 471.249954,496.062521 L471.249954,497.437518 C471.249954,498.196771 470.63421,498.812515 469.874957,498.812515 L463.687472,498.812515 L463.687472,505 C463.687472,505.759253 463.071728,506.374997 462.312475,506.374997 L460.937479,506.374997 C460.178226,506.374997 459.562482,505.759253 459.562482,505 L459.562482,498.812515 L453.374997,498.812515 C452.615744,498.812515 452,498.196771 452,497.437518 L452,496.062521 C452,495.303269 452.615744,494.687525 453.374997,494.687525 L459.562482,494.687525 L459.562482,488.500039 C459.562482,487.740787 460.178226,487.125043 460.937479,487.125043 L462.312475,487.125043 C463.071728,487.125043 463.687472,487.740787 463.687472,488.500039 L463.687472,494.687525 L469.874957,494.687525 Z" id="plus-copy-4" fill="#7DDDDD"></path>
                    <circle id="Oval-Copy-20" fill="#7DDDDD" cx="6.5" cy="25.5" r="6.5"></circle>
                    <circle id="Oval-Copy-40" fill="#7DDDDD" cx="640.5" cy="419.5" r="6.5"></circle>
                    <circle id="Oval-Copy-38" fill="#7BBBEF" cx="505.5" cy="342.5" r="6.5"></circle>
                    <circle id="Oval-Copy-50" fill="#7BBBEF" cx="695.5" cy="18.5" r="6.5"></circle>
                    <g id="Group-4" transform="translate(354.000000, 0.000000)">
                        <path d="M4.57459916,7.08949066 L17.960115,7.0704501 C18.5123992,7.06966448 18.9607508,7.51674242 18.9615364,8.06902661 C18.9615378,8.06997493 18.9615378,8.07092324 18.9615364,8.07187156 L18.9424959,21.4573874 C18.9417118,22.0085609 18.4950929,22.4551799 17.9439194,22.4559639 L4.55840354,22.4750045 C4.00611935,22.4757901 3.55776769,22.0287121 3.55698208,21.4764279 C3.55698073,21.4754796 3.55698073,21.4745313 3.55698208,21.473583 L3.57602264,8.08806717 C3.57680668,7.53689368 4.02342566,7.09027469 4.57459916,7.08949066 Z" id="Rectangle-Copy-10" fill="#7BBBEF" transform="translate(11.259259, 14.772727) rotate(45.000000) translate(-11.259259, -14.772727) "></path>
                        <path d="M14.5567934,5.04332538 L14.5391753,17.4288382 L26.9246881,17.4112201 L26.9423062,5.0257073 L14.5567934,5.04332538 Z" id="Rectangle-Copy" stroke="#4275D2" stroke-width="3" transform="translate(20.740741, 11.227273) rotate(45.000000) translate(-20.740741, -11.227273) "></path>
                    </g>
                    <g id="Group-4" transform="translate(722.000000, 296.000000)">
                        <path d="M4.57459916,7.08949066 L17.960115,7.0704501 C18.5123992,7.06966448 18.9607508,7.51674242 18.9615364,8.06902661 C18.9615378,8.06997493 18.9615378,8.07092324 18.9615364,8.07187156 L18.9424959,21.4573874 C18.9417118,22.0085609 18.4950929,22.4551799 17.9439194,22.4559639 L4.55840354,22.4750045 C4.00611935,22.4757901 3.55776769,22.0287121 3.55698208,21.4764279 C3.55698073,21.4754796 3.55698073,21.4745313 3.55698208,21.473583 L3.57602264,8.08806717 C3.57680668,7.53689368 4.02342566,7.09027469 4.57459916,7.08949066 Z" id="Rectangle-Copy-10" fill="#7BBBEF" transform="translate(11.259259, 14.772727) rotate(45.000000) translate(-11.259259, -14.772727) "></path>
                        <path d="M14.5567934,5.04332538 L14.5391753,17.4288382 L26.9246881,17.4112201 L26.9423062,5.0257073 L14.5567934,5.04332538 Z" id="Rectangle-Copy" stroke="#4275D2" stroke-width="3" transform="translate(20.740741, 11.227273) rotate(45.000000) translate(-20.740741, -11.227273) "></path>
                    </g>
                    <g id="Group-4-Copy" transform="translate(208.000000, 451.000000)">
                        <path d="M4.57459916,7.08949066 L17.960115,7.0704501 C18.5123992,7.06966448 18.9607508,7.51674242 18.9615364,8.06902661 C18.9615378,8.06997493 18.9615378,8.07092324 18.9615364,8.07187156 L18.9424959,21.4573874 C18.9417118,22.0085609 18.4950929,22.4551799 17.9439194,22.4559639 L4.55840354,22.4750045 C4.00611935,22.4757901 3.55776769,22.0287121 3.55698208,21.4764279 C3.55698073,21.4754796 3.55698073,21.4745313 3.55698208,21.473583 L3.57602264,8.08806717 C3.57680668,7.53689368 4.02342566,7.09027469 4.57459916,7.08949066 Z" id="Rectangle-Copy-10" fill="#7BBBEF" transform="translate(11.259259, 14.772727) rotate(45.000000) translate(-11.259259, -14.772727) "></path>
                        <path d="M14.5567934,5.04332538 L14.5391753,17.4288382 L26.9246881,17.4112201 L26.9423062,5.0257073 L14.5567934,5.04332538 Z" id="Rectangle-Copy" stroke="#4275D2" stroke-width="3" transform="translate(20.740741, 11.227273) rotate(45.000000) translate(-20.740741, -11.227273) "></path>
                    </g>
                </g>
                <g id="Group-8-Copy-4" transform="translate(754.000000, 0.000000)">
                    <ellipse id="Oval-Copy-19" stroke="#7BBBEF" stroke-width="3" cx="480.5" cy="8" rx="8.5" ry="8"></ellipse>
                    <ellipse id="Oval-Copy-42" stroke="#7BBBEF" stroke-width="3" cx="754.5" cy="208" rx="8.5" ry="8"></ellipse>
                    <ellipse id="Oval-Copy-44" stroke="#7BBBEF" stroke-width="3" cx="146.5" cy="497" rx="8.5" ry="8"></ellipse>
                    <ellipse id="Oval-Copy-43" stroke="#7BBBEF" stroke-width="3" cx="623.5" cy="479" rx="8.5" ry="8"></ellipse>
                    <path d="M453.874957,143.687525 C454.63421,143.687525 455.249954,144.303269 455.249954,145.062521 L455.249954,146.437518 C455.249954,147.196771 454.63421,147.812515 453.874957,147.812515 L447.687472,147.812515 L447.687472,154 C447.687472,154.759253 447.071728,155.374997 446.312475,155.374997 L444.937479,155.374997 C444.178226,155.374997 443.562482,154.759253 443.562482,154 L443.562482,147.812515 L437.374997,147.812515 C436.615744,147.812515 436,147.196771 436,146.437518 L436,145.062521 C436,144.303269 436.615744,143.687525 437.374997,143.687525 L443.562482,143.687525 L443.562482,137.500039 C443.562482,136.740787 444.178226,136.125043 444.937479,136.125043 L446.312475,136.125043 C447.071728,136.125043 447.687472,136.740787 447.687472,137.500039 L447.687472,143.687525 L453.874957,143.687525 Z" id="plus-copy-3" fill="#7DDDDD" transform="translate(445.624977, 145.750020) scale(-1, 1) translate(-445.624977, -145.750020) "></path>
                    <path d="M776.874957,453.687525 C777.63421,453.687525 778.249954,454.303269 778.249954,455.062521 L778.249954,456.437518 C778.249954,457.196771 777.63421,457.812515 776.874957,457.812515 L770.687472,457.812515 L770.687472,464 C770.687472,464.759253 770.071728,465.374997 769.312475,465.374997 L767.937479,465.374997 C767.178226,465.374997 766.562482,464.759253 766.562482,464 L766.562482,457.812515 L760.374997,457.812515 C759.615744,457.812515 759,457.196771 759,456.437518 L759,455.062521 C759,454.303269 759.615744,453.687525 760.374997,453.687525 L766.562482,453.687525 L766.562482,447.500039 C766.562482,446.740787 767.178226,446.125043 767.937479,446.125043 L769.312475,446.125043 C770.071728,446.125043 770.687472,446.740787 770.687472,447.500039 L770.687472,453.687525 L776.874957,453.687525 Z" id="plus-copy-4" fill="#7DDDDD"></path>
                    <circle id="Oval-Copy-40" fill="#7DDDDD" cx="643.5" cy="315.5" r="6.5"></circle>
                    <circle id="Oval-Copy-45" fill="#7DDDDD" cx="870.5" cy="568.5" r="6.5"></circle>
                    <circle id="Oval-Copy-41" fill="#7DDDDD" cx="6.5" cy="571.5" r="6.5"></circle>
                    <circle id="Oval-Copy-38" fill="#7BBBEF" cx="655.5" cy="93.5" r="6.5"></circle>
                    <circle id="Oval-Copy-39" fill="#7BBBEF" cx="451.5" cy="531.5" r="6.5"></circle>
                    <circle id="Oval-Copy-50" fill="#7DDDDD" cx="863.5" cy="23.5" r="6.5"></circle>
                    <g id="Group-4" transform="translate(274.000000, 51.000000)">
                        <path d="M4.57459916,7.08949066 L17.960115,7.0704501 C18.5123992,7.06966448 18.9607508,7.51674242 18.9615364,8.06902661 C18.9615378,8.06997493 18.9615378,8.07092324 18.9615364,8.07187156 L18.9424959,21.4573874 C18.9417118,22.0085609 18.4950929,22.4551799 17.9439194,22.4559639 L4.55840354,22.4750045 C4.00611935,22.4757901 3.55776769,22.0287121 3.55698208,21.4764279 C3.55698073,21.4754796 3.55698073,21.4745313 3.55698208,21.473583 L3.57602264,8.08806717 C3.57680668,7.53689368 4.02342566,7.09027469 4.57459916,7.08949066 Z" id="Rectangle-Copy-10" fill="#7BBBEF" transform="translate(11.259259, 14.772727) rotate(45.000000) translate(-11.259259, -14.772727) "></path>
                        <path d="M14.5567934,5.04332538 L14.5391753,17.4288382 L26.9246881,17.4112201 L26.9423062,5.0257073 L14.5567934,5.04332538 Z" id="Rectangle-Copy" stroke="#4275D2" stroke-width="3" transform="translate(20.740741, 11.227273) rotate(45.000000) translate(-20.740741, -11.227273) "></path>
                    </g>
                    <g id="Group-4" transform="translate(850.000000, 274.000000)">
                        <path d="M4.57459916,7.08949066 L17.960115,7.0704501 C18.5123992,7.06966448 18.9607508,7.51674242 18.9615364,8.06902661 C18.9615378,8.06997493 18.9615378,8.07092324 18.9615364,8.07187156 L18.9424959,21.4573874 C18.9417118,22.0085609 18.4950929,22.4551799 17.9439194,22.4559639 L4.55840354,22.4750045 C4.00611935,22.4757901 3.55776769,22.0287121 3.55698208,21.4764279 C3.55698073,21.4754796 3.55698073,21.4745313 3.55698208,21.473583 L3.57602264,8.08806717 C3.57680668,7.53689368 4.02342566,7.09027469 4.57459916,7.08949066 Z" id="Rectangle-Copy-10" fill="#7BBBEF" transform="translate(11.259259, 14.772727) rotate(45.000000) translate(-11.259259, -14.772727) "></path>
                        <path d="M14.5567934,5.04332538 L14.5391753,17.4288382 L26.9246881,17.4112201 L26.9423062,5.0257073 L14.5567934,5.04332538 Z" id="Rectangle-Copy" stroke="#4275D2" stroke-width="3" transform="translate(20.740741, 11.227273) rotate(45.000000) translate(-20.740741, -11.227273) "></path>
                    </g>
                </g>
            </g>
        </g>
    </g>
</svg>